<svg xmlns="http://www.w3.org/2000/svg" xmlns:xlink="http://www.w3.org/1999/xlink" xmlns:lucid="lucid" width="1000" height="1318"><g transform="translate(-660 17.5)" lucid:page-tab-id="0_0"><path d="M0 0h1760v1360H0z" fill="#fff"/><path d="M680 70.5h200v80H680z" stroke="#000" stroke-width="2" fill="#fff"/><use xlink:href="#a" transform="matrix(1,0,0,1,685,75.5) translate(56.525 38.6)"/><path d="M1440 70.5h200v80h-200z" stroke="#000" stroke-width="2" fill="#fff"/><use xlink:href="#b" transform="matrix(1,0,0,1,1445,75.5) translate(72.075 38.6)"/><path d="M1540 151.5v1119" fill="none"/><path d="M1540 151.5v10.08m0 10.08v20.16m0 10.1v20.15m0 10.08v20.16m0 10.1v20.15m0 10.1v20.15m0 10.08v20.16m0 10.08v20.16m0 10.08v20.17m0 10.08v20.17m0 10.08V464m0 10.1v20.16m0 10.08v20.16m0 10.08v20.16m0 10.08V585m0 10.07v20.16m0 10.08v20.17m0 10.08v20.17m0 10.08v20.16m0 10.08v20.16m0 10.08v20.17m0 10.08v20.16m0 10.07v20.16m0 10.08v20.18m0 10.08v20.16m0 10.08v20.16m0 10.08v20.17m0 10.1v20.15m0 10.08v20.16m0 10.07v20.17m0 10.08v20.16m0 10.08v20.16m0 10.08v20.16m0 10.1v20.15m0 10.1v20.15m0 10.08v20.16m0 10.08v20.16m0 10.08v10.08" stroke="#000" stroke-width="2" fill="none"/><path d="M1541 151.5h-2v-1h2z"/><path d="M780 151.5v1138" fill="none"/><path d="M780 151.5v9.98m0 9.98v19.97m0 9.98v19.98m0 9.98v19.96m0 10v19.95m0 9.98v19.97m0 9.98v19.97m0 9.98v19.96m0 10v19.96m0 9.98V431m0 10v19.96m0 9.98v19.96m0 10v19.95m0 9.98v19.97m0 9.98v19.97m0 9.98v19.96m0 9.98v19.96m0 9.98v19.97m0 9.97v19.97m0 9.98v19.96m0 9.98v19.97m0 9.98v19.98m0 9.98v19.96m0 10v19.95m0 9.98v19.97m0 9.98v19.97m0 9.98v19.96m0 10v19.96m0 9.98V1000m0 10v19.96m0 9.98v19.96m0 10v19.95m0 9.98v19.97m0 9.98v19.97m0 9.98v19.96m0 9.98v19.96m0 9.98v19.97m0 9.97v19.97m0 9.98v9.98" stroke="#000" stroke-width="2" fill="none"/><path d="M781 151.5h-2v-1h2z"/><path d="M1060 70.5h200v80h-200z" stroke="#000" stroke-width="2" fill="#fff"/><use xlink:href="#c" transform="matrix(1,0,0,1,1065,75.5) translate(62.725 38.6)"/><path d="M1160 151.5v1119" fill="none"/><path d="M1160 151.5v10.08m0 10.08v20.16m0 10.1v20.15m0 10.08v20.16m0 10.1v20.15m0 10.1v20.15m0 10.08v20.16m0 10.08v20.16m0 10.08v20.17m0 10.08v20.17m0 10.08V464m0 10.1v20.16m0 10.08v20.16m0 10.08v20.16m0 10.08V585m0 10.07v20.16m0 10.08v20.17m0 10.08v20.17m0 10.08v20.16m0 10.08v20.16m0 10.08v20.17m0 10.08v20.16m0 10.07v20.16m0 10.08v20.18m0 10.08v20.16m0 10.08v20.16m0 10.08v20.17m0 10.1v20.15m0 10.08v20.16m0 10.07v20.17m0 10.08v20.16m0 10.08v20.16m0 10.08v20.16m0 10.1v20.15m0 10.1v20.15m0 10.08v20.16m0 10.08v20.16m0 10.08v10.08" stroke="#000" stroke-width="2" fill="none"/><path d="M1161 151.5h-2v-1h2z"/><path d="M1160 191.83h190v-.22h171.76" stroke="#000" stroke-width="2" fill="none"/><path d="M1536.76 191.6l-14.26 4.65v-9.27z" stroke="#000" stroke-width="2"/><path d="M1240 150.5h240v40h-240z" stroke="#000" stroke-opacity="0" stroke-width="2" fill="#fff" fill-opacity="0"/><use xlink:href="#d" transform="matrix(1,0,0,1,1245,155.5) translate(26.57499999999999 18.6)"/><use xlink:href="#e" transform="matrix(1,0,0,1,1245,155.5) translate(66.57499999999999 18.6)"/><use xlink:href="#f" transform="matrix(1,0,0,1,1245,155.5) translate(170.475 18.6)"/><path d="M1540 263.6h-190v-.2h-171.76" stroke="#000" stroke-width="2" fill="none"/><path d="M1163.24 263.4l14.26-4.65v9.27z" stroke="#000" stroke-width="2"/><path d="M1240 218.5h240v40h-240z" stroke="#000" stroke-opacity="0" stroke-width="2" fill="#fff" fill-opacity="0"/><use xlink:href="#g" transform="matrix(1,0,0,1,1245,223.5) translate(46.675 18.6)"/><use xlink:href="#h" transform="matrix(1,0,0,1,1245,223.5) translate(80.57499999999999 18.6)"/><use xlink:href="#i" transform="matrix(1,0,0,1,1245,223.5) translate(105.57499999999999 18.6)"/><use xlink:href="#j" transform="matrix(1,0,0,1,1245,223.5) translate(143.425 18.6)"/><path d="M1160 335.6H970v-.2H798.24" stroke="#000" stroke-width="2" fill="none"/><path d="M783.24 335.4l14.26-4.65v9.27z" stroke="#000" stroke-width="2"/><path d="M860 290.5h240v40H860z" stroke="#000" stroke-opacity="0" stroke-width="2" fill="#fff" fill-opacity="0"/><use xlink:href="#k" transform="matrix(1,0,0,1,865,295.5) translate(21.5 18.6)"/><use xlink:href="#l" transform="matrix(1,0,0,1,865,295.5) translate(73.8 18.6)"/><use xlink:href="#m" transform="matrix(1,0,0,1,865,295.5) translate(118.69999999999999 18.6)"/><use xlink:href="#n" transform="matrix(1,0,0,1,865,295.5) translate(141.6 18.6)"/><use xlink:href="#o" transform="matrix(1,0,0,1,865,295.5) translate(188.5 18.6)"/><path d="M780 411.83h190v-.22h171.76" stroke="#000" stroke-width="2" fill="none"/><path d="M1156.76 411.6l-14.26 4.65v-9.27z" stroke="#000" stroke-width="2"/><path d="M860 370.5h240v40H860z" stroke="#000" stroke-opacity="0" stroke-width="2" fill="#fff" fill-opacity="0"/><use xlink:href="#p" transform="matrix(1,0,0,1,865,375.5) translate(36.175 18.6)"/><use xlink:href="#l" transform="matrix(1,0,0,1,865,375.5) translate(84.125 18.6)"/><use xlink:href="#m" transform="matrix(1,0,0,1,865,375.5) translate(129.02499999999998 18.6)"/><use xlink:href="#q" transform="matrix(1,0,0,1,865,375.5) translate(151.925 18.6)"/><path d="M1160 471.83h190v-.22h171.76" stroke="#000" stroke-width="2" fill="none"/><path d="M1536.76 471.6l-14.26 4.65v-9.27z" stroke="#000" stroke-width="2"/><path d="M1240 430.5h240v40h-240z" stroke="#000" stroke-opacity="0" stroke-width="2" fill="#fff" fill-opacity="0"/><use xlink:href="#d" transform="matrix(1,0,0,1,1245,435.5) translate(56.074999999999996 18.6)"/><use xlink:href="#l" transform="matrix(1,0,0,1,1245,435.5) translate(96.07499999999999 18.6)"/><use xlink:href="#f" transform="matrix(1,0,0,1,1245,435.5) translate(140.975 18.6)"/><path d="M1540 555.6h-190v-.2h-171.76" stroke="#000" stroke-width="2" fill="none"/><path d="M1163.24 555.4l14.26-4.65v9.27z" stroke="#000" stroke-width="2"/><path d="M1240 510.5h240v40h-240z" stroke="#000" stroke-opacity="0" stroke-width="2" fill="#fff" fill-opacity="0"/><use xlink:href="#r" transform="matrix(1,0,0,1,1245,515.5) translate(30.599999999999994 18.6)"/><use xlink:href="#s" transform="matrix(1,0,0,1,1245,515.5) translate(70.55 18.6)"/><use xlink:href="#t" transform="matrix(1,0,0,1,1245,515.5) translate(105.55 18.6)"/><use xlink:href="#u" transform="matrix(1,0,0,1,1245,515.5) translate(125.55 18.6)"/><use xlink:href="#v" transform="matrix(1,0,0,1,1245,515.5) translate(184.5 18.6)"/><path d="M1160 631.83h190v-.22h171.76" stroke="#000" stroke-width="2" fill="none"/><path d="M1536.76 631.6l-14.26 4.65v-9.27z" stroke="#000" stroke-width="2"/><path d="M1240 590.5h240v40h-240z" stroke="#000" stroke-opacity="0" stroke-width="2" fill="#fff" fill-opacity="0"/><g><use xlink:href="#d" transform="matrix(1,0,0,1,1245,595.5) translate(6.274999999999977 18.6)"/><use xlink:href="#w" transform="matrix(1,0,0,1,1245,595.5) translate(46.27499999999998 18.6)"/><use xlink:href="#x" transform="matrix(1,0,0,1,1245,595.5) translate(170.875 18.6)"/><use xlink:href="#f" transform="matrix(1,0,0,1,1245,595.5) translate(190.775 18.6)"/></g><path d="M1540 715.6h-190v-.2h-171.76" stroke="#000" stroke-width="2" fill="none"/><path d="M1163.24 715.4l14.26-4.65v9.27z" stroke="#000" stroke-width="2"/><path d="M1240 670.5h240v40h-240z" stroke="#000" stroke-opacity="0" stroke-width="2" fill="#fff" fill-opacity="0"/><g><use xlink:href="#g" transform="matrix(1,0,0,1,1245,675.5) translate(35.64999999999999 18.6)"/><use xlink:href="#h" transform="matrix(1,0,0,1,1245,675.5) translate(69.54999999999998 18.6)"/><use xlink:href="#y" transform="matrix(1,0,0,1,1245,675.5) translate(94.54999999999998 18.6)"/><use xlink:href="#v" transform="matrix(1,0,0,1,1245,675.5) translate(179.45 18.6)"/></g><path d="M1160 795.6H970v-.2H798.24" stroke="#000" stroke-width="2" fill="none"/><path d="M783.24 795.4l14.26-4.65v9.27z" stroke="#000" stroke-width="2"/><path d="M860 750.5h240v40H860z" stroke="#000" stroke-opacity="0" stroke-width="2" fill="#fff" fill-opacity="0"/><g><use xlink:href="#z" transform="matrix(1,0,0,1,865,755.5000000000001) translate(35.14999999999999 18.6)"/><use xlink:href="#A" transform="matrix(1,0,0,1,865,755.5000000000001) translate(66.1 18.6)"/><use xlink:href="#x" transform="matrix(1,0,0,1,865,755.5000000000001) translate(154.95 18.6)"/><use xlink:href="#o" transform="matrix(1,0,0,1,865,755.5000000000001) translate(174.85000000000002 18.6)"/></g><path d="M1160 871.83h190v-.22h171.76" stroke="#000" stroke-width="2" fill="none"/><path d="M1536.76 871.6l-14.26 4.65v-9.27z" stroke="#000" stroke-width="2"/><path d="M1240 823.9h240v53.2h-240z" stroke="#000" stroke-opacity="0" stroke-width="2" fill="#fff" fill-opacity="0"/><g><use xlink:href="#p" transform="matrix(1,0,0,1,1245,828.9) translate(28.57499999999999 14.799999999999999)"/><use xlink:href="#B" transform="matrix(1,0,0,1,1245,828.9) translate(76.52499999999999 14.799999999999999)"/><use xlink:href="#C" transform="matrix(1,0,0,1,1245,828.9) translate(172.425 14.799999999999999)"/><use xlink:href="#D" transform="matrix(1,0,0,1,1245,828.9) translate(73.07499999999999 36.4)"/></g><path d="M1040 2.5h240v60h-240z" stroke="#000" stroke-opacity="0" stroke-width="2" fill="#fff" fill-opacity="0"/><g><use xlink:href="#E" transform="matrix(1,0,0,1,1045,7.5) translate(35.8888888888889 30.333333333333336)"/><use xlink:href="#F" transform="matrix(1,0,0,1,1045,7.5) translate(75.74074074074075 30.333333333333336)"/></g><defs><path d="M30-248c118-7 216 8 213 122C240-48 200 0 122 0H30v-248zM63-27c89 8 146-16 146-99s-60-101-146-95v194" id="G"/><path d="M141-36C126-15 110 5 73 4 37 3 15-17 15-53c-1-64 63-63 125-63 3-35-9-54-41-54-24 1-41 7-42 31l-33-3c5-37 33-52 76-52 45 0 72 20 72 64v82c-1 20 7 32 28 27v20c-31 9-61-2-59-35zM48-53c0 20 12 33 32 33 41-3 63-29 60-74-43 2-92-5-92 41" id="H"/><path d="M59-47c-2 24 18 29 38 22v24C64 9 27 4 27-40v-127H5v-23h24l9-43h21v43h35v23H59v120" id="I"/><path d="M115-194c53 0 69 39 70 98 0 66-23 100-70 100C84 3 66-7 56-30L54 0H23l1-261h32v101c10-23 28-34 59-34zm-8 174c40 0 45-34 45-75 0-40-5-75-45-74-42 0-51 32-51 76 0 43 10 73 51 73" id="J"/><path d="M135-143c-3-34-86-38-87 0 15 53 115 12 119 90S17 21 10-45l28-5c4 36 97 45 98 0-10-56-113-15-118-90-4-57 82-63 122-42 12 7 21 19 24 35" id="K"/><path d="M100-194c63 0 86 42 84 106H49c0 40 14 67 53 68 26 1 43-12 49-29l28 8c-11 28-37 45-77 45C44 4 14-33 15-96c1-61 26-98 85-98zm52 81c6-60-76-77-97-28-3 7-6 17-6 28h103" id="L"/><g id="a"><use transform="matrix(0.05,0,0,0.05,0,0)" xlink:href="#G"/><use transform="matrix(0.05,0,0,0.05,12.950000000000001,0)" xlink:href="#H"/><use transform="matrix(0.05,0,0,0.05,22.950000000000003,0)" xlink:href="#I"/><use transform="matrix(0.05,0,0,0.05,27.950000000000003,0)" xlink:href="#H"/><use transform="matrix(0.05,0,0,0.05,37.95,0)" xlink:href="#J"/><use transform="matrix(0.05,0,0,0.05,47.95,0)" xlink:href="#H"/><use transform="matrix(0.05,0,0,0.05,57.95,0)" xlink:href="#K"/><use transform="matrix(0.05,0,0,0.05,66.95,0)" xlink:href="#L"/></g><path d="M212-179c-10-28-35-45-73-45-59 0-87 40-87 99 0 60 29 101 89 101 43 0 62-24 78-52l27 14C228-24 195 4 139 4 59 4 22-46 18-125c-6-104 99-153 187-111 19 9 31 26 39 46" id="M"/><path d="M24 0v-261h32V0H24" id="N"/><path d="M24-231v-30h32v30H24zM24 0v-190h32V0H24" id="O"/><path d="M117-194c89-4 53 116 60 194h-32v-121c0-31-8-49-39-48C34-167 62-67 57 0H25l-1-190h30c1 10-1 24 2 32 11-22 29-35 61-36" id="P"/><g id="b"><use transform="matrix(0.05,0,0,0.05,0,0)" xlink:href="#M"/><use transform="matrix(0.05,0,0,0.05,12.950000000000001,0)" xlink:href="#N"/><use transform="matrix(0.05,0,0,0.05,16.900000000000002,0)" xlink:href="#O"/><use transform="matrix(0.05,0,0,0.05,20.85,0)" xlink:href="#L"/><use transform="matrix(0.05,0,0,0.05,30.85,0)" xlink:href="#P"/><use transform="matrix(0.05,0,0,0.05,40.85,0)" xlink:href="#I"/></g><path d="M266 0h-40l-56-210L115 0H75L2-248h35L96-30l15-64 43-154h32l59 218 59-218h35" id="Q"/><g id="c"><use transform="matrix(0.05,0,0,0.05,0,0)" xlink:href="#Q"/><use transform="matrix(0.05,0,0,0.05,16.599999999999998,0)" xlink:href="#L"/><use transform="matrix(0.05,0,0,0.05,26.599999999999994,0)" xlink:href="#J"/><use transform="matrix(0.05,0,0,0.05,36.599999999999994,0)" xlink:href="#K"/><use transform="matrix(0.05,0,0,0.05,45.599999999999994,0)" xlink:href="#O"/><use transform="matrix(0.05,0,0,0.05,49.55,0)" xlink:href="#I"/><use transform="matrix(0.05,0,0,0.05,54.54999999999999,0)" xlink:href="#L"/></g><path d="M30 0v-248h33v221h125V0H30" id="R"/><g id="d"><use transform="matrix(0.05,0,0,0.05,0,0)" xlink:href="#R"/><use transform="matrix(0.05,0,0,0.05,10,0)" xlink:href="#H"/><use transform="matrix(0.05,0,0,0.05,20,0)" xlink:href="#H"/><use transform="matrix(0.05,0,0,0.05,30,0)" xlink:href="#I"/></g><path d="M106-169C34-169 62-67 57 0H25v-261h32l-1 103c12-21 28-36 61-36 89 0 53 116 60 194h-32v-121c2-32-8-49-39-48" id="S"/><path d="M100-194c62-1 85 37 85 99 1 63-27 99-86 99S16-35 15-95c0-66 28-99 85-99zM99-20c44 1 53-31 53-75 0-43-8-75-51-75s-53 32-53 75 10 74 51 75" id="T"/><path d="M210-169c-67 3-38 105-44 169h-31v-121c0-29-5-50-35-48C34-165 62-65 56 0H25l-1-190h30c1 10-1 24 2 32 10-44 99-50 107 0 11-21 27-35 58-36 85-2 47 119 55 194h-31v-121c0-29-5-49-35-48" id="U"/><path d="M115-194c55 1 70 41 70 98S169 2 115 4C84 4 66-9 55-30l1 105H24l-1-265h31l2 30c10-21 28-34 59-34zm-8 174c40 0 45-34 45-75s-6-73-45-74c-42 0-51 32-51 76 0 43 10 73 51 73" id="V"/><path d="M177-190C167-65 218 103 67 71c-23-6-38-20-44-43l32-5c15 47 100 32 89-28v-30C133-14 115 1 83 1 29 1 15-40 15-95c0-56 16-97 71-98 29-1 48 16 59 35 1-10 0-23 2-32h30zM94-22c36 0 50-32 50-73 0-42-14-75-50-75-39 0-46 34-46 75s6 73 46 73" id="W"/><g id="e"><use transform="matrix(0.05,0,0,0.05,0,0)" xlink:href="#S"/><use transform="matrix(0.05,0,0,0.05,10,0)" xlink:href="#T"/><use transform="matrix(0.05,0,0,0.05,20,0)" xlink:href="#U"/><use transform="matrix(0.05,0,0,0.05,34.95,0)" xlink:href="#L"/><use transform="matrix(0.05,0,0,0.05,44.95,0)" xlink:href="#V"/><use transform="matrix(0.05,0,0,0.05,54.95,0)" xlink:href="#H"/><use transform="matrix(0.05,0,0,0.05,64.95,0)" xlink:href="#W"/><use transform="matrix(0.05,0,0,0.05,74.95,0)" xlink:href="#O"/><use transform="matrix(0.05,0,0,0.05,78.9,0)" xlink:href="#P"/><use transform="matrix(0.05,0,0,0.05,88.9,0)" xlink:href="#H"/></g><path d="M9 0v-24l116-142H16v-24h144v24L44-24h123V0H9" id="X"/><g id="f"><use transform="matrix(0.05,0,0,0.05,0,0)" xlink:href="#X"/><use transform="matrix(0.05,0,0,0.05,9,0)" xlink:href="#O"/><use transform="matrix(0.05,0,0,0.05,12.949999999999998,0)" xlink:href="#L"/><use transform="matrix(0.05,0,0,0.05,22.95,0)" xlink:href="#P"/></g><path d="M194 0L95-120 63-95V0H30v-248h33v124l119-124h40L117-140 236 0h-42" id="Y"/><path d="M143 0L79-87 56-68V0H24v-261h32v163l83-92h37l-77 82L181 0h-38" id="Z"/><g id="g"><use transform="matrix(0.05,0,0,0.05,0,0)" xlink:href="#Y"/><use transform="matrix(0.05,0,0,0.05,12,0)" xlink:href="#N"/><use transform="matrix(0.05,0,0,0.05,15.949999999999998,0)" xlink:href="#O"/><use transform="matrix(0.05,0,0,0.05,19.9,0)" xlink:href="#Z"/></g><g id="h"><use transform="matrix(0.05,0,0,0.05,0,0)" xlink:href="#T"/><use transform="matrix(0.05,0,0,0.05,10,0)" xlink:href="#V"/></g><path d="M24-231v-30h32v30H24zM-9 49c24 4 33-6 33-30v-209h32V24c2 40-23 58-65 49V49" id="aa"/><g id="i"><use transform="matrix(0.05,0,0,0.05,0,0)" xlink:href="#U"/><use transform="matrix(0.05,0,0,0.05,14.950000000000001,0)" xlink:href="#O"/><use transform="matrix(0.05,0,0,0.05,18.900000000000002,0)" xlink:href="#aa"/><use transform="matrix(0.05,0,0,0.05,22.85,0)" xlink:href="#P"/></g><path d="M114-163C36-179 61-72 57 0H25l-1-190h30c1 12-1 29 2 39 6-27 23-49 58-41v29" id="ab"/><g id="j"><use transform="matrix(0.05,0,0,0.05,0,0)" xlink:href="#ab"/><use transform="matrix(0.05,0,0,0.05,5.95,0)" xlink:href="#O"/><use transform="matrix(0.05,0,0,0.05,9.9,0)" xlink:href="#I"/><use transform="matrix(0.05,0,0,0.05,14.9,0)" xlink:href="#I"/><use transform="matrix(0.05,0,0,0.05,19.9,0)" xlink:href="#L"/><use transform="matrix(0.05,0,0,0.05,29.899999999999995,0)" xlink:href="#P"/></g><path d="M137 0h-34L2-248h35l83 218 83-218h36" id="ac"/><g id="k"><use transform="matrix(0.05,0,0,0.05,0,0)" xlink:href="#ac"/><use transform="matrix(0.05,0,0,0.05,11.35,0)" xlink:href="#ab"/><use transform="matrix(0.05,0,0,0.05,17.3,0)" xlink:href="#H"/><use transform="matrix(0.05,0,0,0.05,27.3,0)" xlink:href="#H"/><use transform="matrix(0.05,0,0,0.05,37.3,0)" xlink:href="#W"/></g><g id="l"><use transform="matrix(0.05,0,0,0.05,0,0)" xlink:href="#ab"/><use transform="matrix(0.05,0,0,0.05,5.95,0)" xlink:href="#O"/><use transform="matrix(0.05,0,0,0.05,9.9,0)" xlink:href="#I"/><use transform="matrix(0.05,0,0,0.05,14.9,0)" xlink:href="#I"/><use transform="matrix(0.05,0,0,0.05,19.9,0)" xlink:href="#L"/><use transform="matrix(0.05,0,0,0.05,29.899999999999995,0)" xlink:href="#P"/></g><g id="m"><use transform="matrix(0.05,0,0,0.05,0,0)" xlink:href="#J"/><use transform="matrix(0.05,0,0,0.05,10,0)" xlink:href="#O"/><use transform="matrix(0.05,0,0,0.05,13.949999999999998,0)" xlink:href="#aa"/></g><path d="M96-169c-40 0-48 33-48 73s9 75 48 75c24 0 41-14 43-38l32 2c-6 37-31 61-74 61-59 0-76-41-82-99-10-93 101-131 147-64 4 7 5 14 7 22l-32 3c-4-21-16-35-41-35" id="ad"/><g id="n"><use transform="matrix(0.05,0,0,0.05,0,0)" xlink:href="#ad"/><use transform="matrix(0.05,0,0,0.05,9,0)" xlink:href="#N"/><use transform="matrix(0.05,0,0,0.05,12.949999999999998,0)" xlink:href="#O"/><use transform="matrix(0.05,0,0,0.05,16.9,0)" xlink:href="#L"/><use transform="matrix(0.05,0,0,0.05,26.899999999999995,0)" xlink:href="#P"/><use transform="matrix(0.05,0,0,0.05,36.9,0)" xlink:href="#I"/></g><g id="o"><use transform="matrix(0.05,0,0,0.05,0,0)" xlink:href="#T"/><use transform="matrix(0.05,0,0,0.05,10,0)" xlink:href="#V"/></g><path d="M185-189c-5-48-123-54-124 2 14 75 158 14 163 119 3 78-121 87-175 55-17-10-28-26-33-46l33-7c5 56 141 63 141-1 0-78-155-14-162-118-5-82 145-84 179-34 5 7 8 16 11 25" id="ae"/><path d="M84 4C-5 8 30-112 23-190h32v120c0 31 7 50 39 49 72-2 45-101 50-169h31l1 190h-30c-1-10 1-25-2-33-11 22-28 36-60 37" id="af"/><g id="p"><use transform="matrix(0.05,0,0,0.05,0,0)" xlink:href="#ae"/><use transform="matrix(0.05,0,0,0.05,12,0)" xlink:href="#I"/><use transform="matrix(0.05,0,0,0.05,17,0)" xlink:href="#af"/><use transform="matrix(0.05,0,0,0.05,27,0)" xlink:href="#af"/><use transform="matrix(0.05,0,0,0.05,37,0)" xlink:href="#ab"/></g><g id="q"><use transform="matrix(0.05,0,0,0.05,0,0)" xlink:href="#ad"/><use transform="matrix(0.05,0,0,0.05,9,0)" xlink:href="#N"/><use transform="matrix(0.05,0,0,0.05,12.949999999999998,0)" xlink:href="#O"/><use transform="matrix(0.05,0,0,0.05,16.9,0)" xlink:href="#L"/><use transform="matrix(0.05,0,0,0.05,26.899999999999995,0)" xlink:href="#P"/><use transform="matrix(0.05,0,0,0.05,36.9,0)" xlink:href="#I"/></g><g id="r"><use transform="matrix(0.05,0,0,0.05,0,0)" xlink:href="#Y"/><use transform="matrix(0.05,0,0,0.05,12,0)" xlink:href="#O"/><use transform="matrix(0.05,0,0,0.05,15.949999999999998,0)" xlink:href="#L"/><use transform="matrix(0.05,0,0,0.05,25.950000000000003,0)" xlink:href="#K"/></g><g id="s"><use transform="matrix(0.05,0,0,0.05,0,0)" xlink:href="#P"/><use transform="matrix(0.05,0,0,0.05,10,0)" xlink:href="#T"/><use transform="matrix(0.05,0,0,0.05,20,0)" xlink:href="#W"/></g><g id="t"><use transform="matrix(0.05,0,0,0.05,0,0)" xlink:href="#I"/><use transform="matrix(0.05,0,0,0.05,5,0)" xlink:href="#L"/></g><g id="u"><use transform="matrix(0.05,0,0,0.05,0,0)" xlink:href="#Z"/><use transform="matrix(0.05,0,0,0.05,9,0)" xlink:href="#T"/><use transform="matrix(0.05,0,0,0.05,19,0)" xlink:href="#U"/><use transform="matrix(0.05,0,0,0.05,33.95,0)" xlink:href="#L"/><use transform="matrix(0.05,0,0,0.05,43.95,0)" xlink:href="#P"/></g><g id="v"><use transform="matrix(0.05,0,0,0.05,0,0)" xlink:href="#ab"/><use transform="matrix(0.05,0,0,0.05,5.95,0)" xlink:href="#O"/><use transform="matrix(0.05,0,0,0.05,9.9,0)" xlink:href="#I"/></g><path d="M85-194c31 0 48 13 60 33l-1-100h32l1 261h-30c-2-10 0-23-3-31C134-8 116 4 85 4 32 4 16-35 15-94c0-66 23-100 70-100zm9 24c-40 0-46 34-46 75 0 40 6 74 45 74 42 0 51-32 51-76 0-42-9-74-50-73" id="ag"/><path d="M101-234c-31-9-42 10-38 44h38v23H63V0H32v-167H5v-23h27c-7-52 17-82 69-68v24" id="ah"/><g id="w"><use transform="matrix(0.05,0,0,0.05,0,0)" xlink:href="#ag"/><use transform="matrix(0.05,0,0,0.05,10,0)" xlink:href="#L"/><use transform="matrix(0.05,0,0,0.05,20,0)" xlink:href="#K"/><use transform="matrix(0.05,0,0,0.05,29,0)" xlink:href="#J"/><use transform="matrix(0.05,0,0,0.05,39,0)" xlink:href="#L"/><use transform="matrix(0.05,0,0,0.05,49,0)" xlink:href="#I"/><use transform="matrix(0.05,0,0,0.05,54,0)" xlink:href="#ab"/><use transform="matrix(0.05,0,0,0.05,59.95,0)" xlink:href="#L"/><use transform="matrix(0.05,0,0,0.05,69.95,0)" xlink:href="#ah"/><use transform="matrix(0.05,0,0,0.05,74.60000000000001,0)" xlink:href="#ah"/><use transform="matrix(0.05,0,0,0.05,79.60000000000001,0)" xlink:href="#L"/><use transform="matrix(0.05,0,0,0.05,89.60000000000001,0)" xlink:href="#P"/><use transform="matrix(0.05,0,0,0.05,99.60000000000001,0)" xlink:href="#ag"/><use transform="matrix(0.05,0,0,0.05,109.60000000000001,0)" xlink:href="#L"/></g><g id="x"><use transform="matrix(0.05,0,0,0.05,0,0)" xlink:href="#ab"/><use transform="matrix(0.05,0,0,0.05,5.95,0)" xlink:href="#O"/><use transform="matrix(0.05,0,0,0.05,9.9,0)" xlink:href="#I"/></g><g id="y"><use transform="matrix(0.05,0,0,0.05,0,0)" xlink:href="#H"/><use transform="matrix(0.05,0,0,0.05,10,0)" xlink:href="#P"/><use transform="matrix(0.05,0,0,0.05,20,0)" xlink:href="#P"/><use transform="matrix(0.05,0,0,0.05,30,0)" xlink:href="#af"/><use transform="matrix(0.05,0,0,0.05,40,0)" xlink:href="#N"/><use transform="matrix(0.05,0,0,0.05,43.95,0)" xlink:href="#L"/><use transform="matrix(0.05,0,0,0.05,53.95,0)" xlink:href="#ab"/><use transform="matrix(0.05,0,0,0.05,59.900000000000006,0)" xlink:href="#L"/><use transform="matrix(0.05,0,0,0.05,69.9,0)" xlink:href="#P"/></g><g id="z"><use transform="matrix(0.05,0,0,0.05,0,0)" xlink:href="#ae"/><use transform="matrix(0.05,0,0,0.05,12,0)" xlink:href="#N"/><use transform="matrix(0.05,0,0,0.05,15.949999999999998,0)" xlink:href="#H"/></g><g id="A"><use transform="matrix(0.05,0,0,0.05,0,0)" xlink:href="#H"/><use transform="matrix(0.05,0,0,0.05,10,0)" xlink:href="#P"/><use transform="matrix(0.05,0,0,0.05,20,0)" xlink:href="#P"/><use transform="matrix(0.05,0,0,0.05,30,0)" xlink:href="#af"/><use transform="matrix(0.05,0,0,0.05,40,0)" xlink:href="#N"/><use transform="matrix(0.05,0,0,0.05,43.95,0)" xlink:href="#L"/><use transform="matrix(0.05,0,0,0.05,53.95,0)" xlink:href="#ab"/><use transform="matrix(0.05,0,0,0.05,59.900000000000006,0)" xlink:href="#O"/><use transform="matrix(0.05,0,0,0.05,63.85,0)" xlink:href="#P"/><use transform="matrix(0.05,0,0,0.05,73.85000000000001,0)" xlink:href="#W"/></g><path d="M108 0H70L1-190h34L89-25l56-165h34" id="ai"/><g id="B"><use transform="matrix(0.05,0,0,0.05,0,0)" xlink:href="#J"/><use transform="matrix(0.05,0,0,0.05,10,0)" xlink:href="#L"/><use transform="matrix(0.05,0,0,0.05,20,0)" xlink:href="#ai"/><use transform="matrix(0.05,0,0,0.05,29,0)" xlink:href="#L"/><use transform="matrix(0.05,0,0,0.05,39,0)" xlink:href="#K"/><use transform="matrix(0.05,0,0,0.05,48,0)" xlink:href="#I"/><use transform="matrix(0.05,0,0,0.05,53,0)" xlink:href="#O"/><use transform="matrix(0.05,0,0,0.05,56.95,0)" xlink:href="#W"/><use transform="matrix(0.05,0,0,0.05,66.95,0)" xlink:href="#O"/><use transform="matrix(0.05,0,0,0.05,70.9,0)" xlink:href="#P"/><use transform="matrix(0.05,0,0,0.05,80.9,0)" xlink:href="#W"/></g><g id="C"><use transform="matrix(0.05,0,0,0.05,0,0)" xlink:href="#ai"/><use transform="matrix(0.05,0,0,0.05,9,0)" xlink:href="#H"/><use transform="matrix(0.05,0,0,0.05,19,0)" xlink:href="#P"/></g><g id="D"><use transform="matrix(0.05,0,0,0.05,0,0)" xlink:href="#H"/><use transform="matrix(0.05,0,0,0.05,10,0)" xlink:href="#P"/><use transform="matrix(0.05,0,0,0.05,20,0)" xlink:href="#P"/><use transform="matrix(0.05,0,0,0.05,30,0)" xlink:href="#af"/><use transform="matrix(0.05,0,0,0.05,40,0)" xlink:href="#N"/><use transform="matrix(0.05,0,0,0.05,43.95,0)" xlink:href="#L"/><use transform="matrix(0.05,0,0,0.05,53.95,0)" xlink:href="#ab"/><use transform="matrix(0.05,0,0,0.05,59.900000000000006,0)" xlink:href="#O"/><use transform="matrix(0.05,0,0,0.05,63.85,0)" xlink:href="#P"/><use transform="matrix(0.05,0,0,0.05,73.85000000000001,0)" xlink:href="#W"/></g><path d="M233-177c-1 41-23 64-60 70L243 0h-38l-65-103H63V0H30v-248c88 3 205-21 203 71zM63-129c60-2 137 13 137-47 0-61-80-42-137-45v92" id="aj"/><g id="E"><use transform="matrix(0.07407407407407408,0,0,0.07407407407407408,0,0)" xlink:href="#aj"/><use transform="matrix(0.07407407407407408,0,0,0.07407407407407408,19.185185185185187,0)" xlink:href="#O"/><use transform="matrix(0.07407407407407408,0,0,0.07407407407407408,25.037037037037035,0)" xlink:href="#I"/></g><g id="F"><use transform="matrix(0.07407407407407408,0,0,0.07407407407407408,0,0)" xlink:href="#H"/><use transform="matrix(0.07407407407407408,0,0,0.07407407407407408,14.814814814814817,0)" xlink:href="#P"/><use transform="matrix(0.07407407407407408,0,0,0.07407407407407408,29.629629629629633,0)" xlink:href="#P"/><use transform="matrix(0.07407407407407408,0,0,0.07407407407407408,44.44444444444445,0)" xlink:href="#af"/><use transform="matrix(0.07407407407407408,0,0,0.07407407407407408,59.25925925925927,0)" xlink:href="#N"/><use transform="matrix(0.07407407407407408,0,0,0.07407407407407408,65.11111111111111,0)" xlink:href="#L"/><use transform="matrix(0.07407407407407408,0,0,0.07407407407407408,79.92592592592592,0)" xlink:href="#ab"/><use transform="matrix(0.07407407407407408,0,0,0.07407407407407408,88.74074074074073,0)" xlink:href="#L"/><use transform="matrix(0.07407407407407408,0,0,0.07407407407407408,103.55555555555553,0)" xlink:href="#P"/></g></defs></g></svg>