<svg xmlns="http://www.w3.org/2000/svg" xmlns:xlink="http://www.w3.org/1999/xlink" xmlns:lucid="lucid" width="1000" height="1310"><g transform="translate(-400 0)" lucid:page-tab-id="0_0"><path d="M0 0h1760v1360H0z" fill="#fff"/><path d="M420 80h200v80H420z" stroke="#000" stroke-width="2" fill="#fff"/><use xlink:href="#a" transform="matrix(1,0,0,1,425,85) translate(56.525 38.6)"/><path d="M1180 80h200v80h-200z" stroke="#000" stroke-width="2" fill="#fff"/><use xlink:href="#b" transform="matrix(1,0,0,1,1185,85) translate(72.075 38.6)"/><path d="M1280 161v1119" fill="none"/><path d="M1280 161v10.08m0 10.08v20.16m0 10.1v20.15m0 10.08v20.16m0 10.1v20.15m0 10.1v20.15m0 10.08v20.16m0 10.08v20.16m0 10.08v20.17m0 10.08v20.17m0 10.08v20.16m0 10.1v20.16m0 10.08V534m0 10.08v20.16m0 10.08v20.17m0 10.07v20.16m0 10.08v20.17m0 10.08v20.17m0 10.08v20.16m0 10.08v20.16m0 10.08v20.17m0 10.08v20.16m0 10.07v20.16m0 10.08v20.18m0 10.08v20.16m0 10.08v20.16m0 10.08v20.17m0 10.1v20.15m0 10.08v20.16m0 10.07v20.17m0 10.08v20.16m0 10.08v20.16m0 10.08v20.16m0 10.1v20.15m0 10.1v20.15m0 10.08v20.16m0 10.08v20.16m0 10.08V1280" stroke="#000" stroke-width="2" fill="none"/><path d="M1281 161h-2v-1h2z"/><path d="M520 161v1138" fill="none"/><path d="M520 161v9.98m0 9.98v19.97m0 9.98v19.98m0 9.98v19.96m0 10v19.95m0 9.98v19.97m0 9.98v19.97m0 9.98v19.96m0 10v19.96m0 9.98v19.97m0 10v19.96m0 9.98v19.96m0 10v19.95m0 9.98v19.97m0 9.98v19.97m0 9.98v19.96m0 9.98v19.96m0 9.98v19.97m0 9.97v19.97m0 9.98v19.96m0 9.98v19.97m0 9.98v19.98m0 9.98v19.96m0 10v19.95m0 9.98v19.97m0 9.98v19.97m0 9.98v19.96m0 10v19.96m0 9.98v19.97m0 10v19.96m0 9.98v19.96m0 10v19.95m0 9.98v19.97m0 9.98v19.97m0 9.98v19.96m0 9.98v19.96m0 9.98v19.97m0 9.97v19.97m0 9.98v9.98" stroke="#000" stroke-width="2" fill="none"/><path d="M521 161h-2v-1h2z"/><path d="M800 80h200v80H800z" stroke="#000" stroke-width="2" fill="#fff"/><use xlink:href="#c" transform="matrix(1,0,0,1,805,85) translate(62.725 38.6)"/><path d="M900 161v1119" fill="none"/><path d="M900 161v10.08m0 10.08v20.16m0 10.1v20.15m0 10.08v20.16m0 10.1v20.15m0 10.1v20.15m0 10.08v20.16m0 10.08v20.16m0 10.08v20.17m0 10.08v20.17m0 10.08v20.16m0 10.1v20.16m0 10.08V534m0 10.08v20.16m0 10.08v20.17m0 10.07v20.16m0 10.08v20.17m0 10.08v20.17m0 10.08v20.16m0 10.08v20.16m0 10.08v20.17m0 10.08v20.16m0 10.07v20.16m0 10.08v20.18m0 10.08v20.16m0 10.08v20.16m0 10.08v20.17m0 10.1v20.15m0 10.08v20.16m0 10.07v20.17m0 10.08v20.16m0 10.08v20.16m0 10.08v20.16m0 10.1v20.15m0 10.1v20.15m0 10.08v20.16m0 10.08v20.16m0 10.08V1280" stroke="#000" stroke-width="2" fill="none"/><path d="M901 161h-2v-1h2z"/><path d="M980 180h240v53.2H980z" stroke="#000" stroke-opacity="0" stroke-width="2" fill="#fff" fill-opacity="0"/><use xlink:href="#d" transform="matrix(1,0,0,1,985,185) translate(26.57499999999999 25.6)"/><use xlink:href="#e" transform="matrix(1,0,0,1,985,185) translate(66.57499999999999 25.6)"/><use xlink:href="#f" transform="matrix(1,0,0,1,985,185) translate(170.475 25.6)"/><path d="M900 238.44h190v-.22h171.76" stroke="#000" stroke-width="2" fill="none"/><path d="M1276.76 238.22l-14.26 4.64v-9.28z" stroke="#000" stroke-width="2"/><path d="M980 266.6h240v53.2H980z" stroke="#000" stroke-opacity="0" stroke-width="2" fill="#fff" fill-opacity="0"/><path d="M980 260h240v53.2H980z" stroke="#000" stroke-opacity="0" stroke-width="2" fill="#fff" fill-opacity="0"/><use xlink:href="#g" transform="matrix(1,0,0,1,985,265) translate(49.575 25.6)"/><use xlink:href="#h" transform="matrix(1,0,0,1,985,265) translate(83.475 25.6)"/><use xlink:href="#i" transform="matrix(1,0,0,1,985,265) translate(108.475 25.6)"/><path d="M1280 308.98h-190v-.22H918.24" stroke="#000" stroke-width="2" fill="none"/><path d="M903.24 308.76l14.26-4.64v9.27z" stroke="#000" stroke-width="2"/><path d="M980 340h240v40H980z" stroke="#000" stroke-opacity="0" stroke-width="2" fill="#fff" fill-opacity="0"/><use xlink:href="#d" transform="matrix(1,0,0,1,985,345) translate(8.099999999999994 19.1)"/><use xlink:href="#j" transform="matrix(1,0,0,1,985,345) translate(48.099999999999994 19.1)"/><use xlink:href="#k" transform="matrix(1,0,0,1,985,345) translate(125.05 19.1)"/><use xlink:href="#f" transform="matrix(1,0,0,1,985,345) translate(188.95000000000002 19.1)"/><path d="M900 378.44h190v-.22h171.76" stroke="#000" stroke-width="2" fill="none"/><path d="M1276.76 378.22l-14.26 4.64v-9.28z" stroke="#000" stroke-width="2"/><path d="M980 420h240v40H980z" stroke="#000" stroke-opacity="0" stroke-width="2" fill="#fff" fill-opacity="0"/><use xlink:href="#l" transform="matrix(1,0,0,1,985,425) translate(48.900000000000006 19.1)"/><use xlink:href="#m" transform="matrix(1,0,0,1,985,425) translate(101.2 19.1)"/><use xlink:href="#n" transform="matrix(1,0,0,1,985,425) translate(131.15 19.1)"/><path d="M900 458.44h190v-.22h171.76" stroke="#000" stroke-width="2" fill="none"/><path d="M1276.76 458.22l-14.26 4.64v-9.28z" stroke="#000" stroke-width="2"/><path d="M980 486.6h240v53.2H980z" stroke="#000" stroke-opacity="0" stroke-width="2" fill="#fff" fill-opacity="0"/><path d="M980 480h240v53.2H980z" stroke="#000" stroke-opacity="0" stroke-width="2" fill="#fff" fill-opacity="0"/><use xlink:href="#o" transform="matrix(1,0,0,1,985,485) translate(65.4 25.6)"/><use xlink:href="#p" transform="matrix(1,0,0,1,985,485) translate(95.7 25.6)"/><use xlink:href="#q" transform="matrix(1,0,0,1,985,485) translate(150.65 25.6)"/><path d="M1280 528.98h-190v-.22H918.24" stroke="#000" stroke-width="2" fill="none"/><path d="M903.24 528.76l14.26-4.64v9.27z" stroke="#000" stroke-width="2"/><path d="M600 566.6h240v53.2H600z" stroke="#000" stroke-opacity="0" stroke-width="2" fill="#fff" fill-opacity="0"/><path d="M600 560h240v53.2H600z" stroke="#000" stroke-opacity="0" stroke-width="2" fill="#fff" fill-opacity="0"/><use xlink:href="#r" transform="matrix(1,0,0,1,605,564.9999999999999) translate(13.625 25.6)"/><use xlink:href="#s" transform="matrix(1,0,0,1,605,564.9999999999999) translate(58.575 25.6)"/><use xlink:href="#t" transform="matrix(1,0,0,1,605,564.9999999999999) translate(103.475 25.6)"/><use xlink:href="#u" transform="matrix(1,0,0,1,605,564.9999999999999) translate(137.475 25.6)"/><use xlink:href="#n" transform="matrix(1,0,0,1,605,564.9999999999999) translate(166.42499999999998 25.6)"/><path d="M900 608.98H710v-.22H538.24" stroke="#000" stroke-width="2" fill="none"/><path d="M523.24 608.76l14.26-4.64v9.27z" stroke="#000" stroke-width="2"/><path d="M600 640h240v40H600z" stroke="#000" stroke-opacity="0" stroke-width="2" fill="#fff" fill-opacity="0"/><use xlink:href="#v" transform="matrix(1,0,0,1,605,645) translate(12.125 19.1)"/><use xlink:href="#s" transform="matrix(1,0,0,1,605,645) translate(60.075 19.1)"/><use xlink:href="#t" transform="matrix(1,0,0,1,605,645) translate(104.975 19.1)"/><use xlink:href="#u" transform="matrix(1,0,0,1,605,645) translate(138.975 19.1)"/><use xlink:href="#n" transform="matrix(1,0,0,1,605,645) translate(167.92499999999998 19.1)"/><path d="M520 678.44h190v-.22h171.76" stroke="#000" stroke-width="2" fill="none"/><path d="M896.76 678.22l-14.26 4.64v-9.28z" stroke="#000" stroke-width="2"/><path d="M980 693.4h240v53.2H980z" stroke="#000" stroke-opacity="0" stroke-width="2" fill="#fff" fill-opacity="0"/><use xlink:href="#d" transform="matrix(1,0,0,1,985,698.4) translate(7.099999999999994 14.799999999999999)"/><use xlink:href="#w" transform="matrix(1,0,0,1,985,698.4) translate(47.099999999999994 14.799999999999999)"/><use xlink:href="#t" transform="matrix(1,0,0,1,985,698.4) translate(124 14.799999999999999)"/><use xlink:href="#s" transform="matrix(1,0,0,1,985,698.4) translate(158 14.799999999999999)"/><use xlink:href="#x" transform="matrix(1,0,0,1,985,698.4) translate(202.9 14.799999999999999)"/><use xlink:href="#u" transform="matrix(1,0,0,1,985,698.4) translate(56.574999999999996 36.4)"/><use xlink:href="#p" transform="matrix(1,0,0,1,985,698.4) translate(85.52499999999999 36.4)"/><use xlink:href="#f" transform="matrix(1,0,0,1,985,698.4) translate(140.475 36.4)"/><path d="M900 738.44h190v-.22h171.76" stroke="#000" stroke-width="2" fill="none"/><path d="M1276.76 738.22l-14.26 4.64v-9.28z" stroke="#000" stroke-width="2"/><path d="M980 766.6h240v53.2H980z" stroke="#000" stroke-opacity="0" stroke-width="2" fill="#fff" fill-opacity="0"/><path d="M980 760h240v53.2H980z" stroke="#000" stroke-opacity="0" stroke-width="2" fill="#fff" fill-opacity="0"/><g><use xlink:href="#y" transform="matrix(1,0,0,1,985,764.9999999999999) translate(25.27499999999999 25.6)"/><use xlink:href="#z" transform="matrix(1,0,0,1,985,764.9999999999999) translate(65.225 25.6)"/><use xlink:href="#A" transform="matrix(1,0,0,1,985,764.9999999999999) translate(189.825 25.6)"/></g><path d="M1280 808.98h-190v-.22H918.24" stroke="#000" stroke-width="2" fill="none"/><path d="M903.24 808.76l14.26-4.64v9.27z" stroke="#000" stroke-width="2"/><path d="M980 860h240v53.2H980z" stroke="#000" stroke-opacity="0" stroke-width="2" fill="#fff" fill-opacity="0"/><g><use xlink:href="#l" transform="matrix(1,0,0,1,985,865) translate(50.400000000000006 25.6)"/><use xlink:href="#m" transform="matrix(1,0,0,1,985,865) translate(102.7 25.6)"/><use xlink:href="#B" transform="matrix(1,0,0,1,985,865) translate(132.65 25.6)"/></g><path d="M900 905.04h190v-.22h171.76" stroke="#000" stroke-width="2" fill="none"/><path d="M1276.76 904.82l-14.26 4.64v-9.28z" stroke="#000" stroke-width="2"/><path d="M980 946.6h240v53.2H980z" stroke="#000" stroke-opacity="0" stroke-width="2" fill="#fff" fill-opacity="0"/><path d="M980 940h240v53.2H980z" stroke="#000" stroke-opacity="0" stroke-width="2" fill="#fff" fill-opacity="0"/><g><use xlink:href="#C" transform="matrix(1,0,0,1,985,945) translate(69.525 25.6)"/><use xlink:href="#B" transform="matrix(1,0,0,1,985,945) translate(113.525 25.6)"/></g><path d="M1280 988.98h-190v-.22H918.24" stroke="#000" stroke-width="2" fill="none"/><path d="M903.24 988.76l14.26-4.64v9.27z" stroke="#000" stroke-width="2"/><path d="M600 1026.6h240v53.2H600z" stroke="#000" stroke-opacity="0" stroke-width="2" fill="#fff" fill-opacity="0"/><path d="M600 1020h240v53.2H600z" stroke="#000" stroke-opacity="0" stroke-width="2" fill="#fff" fill-opacity="0"/><g><use xlink:href="#D" transform="matrix(1,0,0,1,605,1025) translate(63.55 25.6)"/><use xlink:href="#E" transform="matrix(1,0,0,1,605,1025) translate(94.5 25.6)"/><use xlink:href="#F" transform="matrix(1,0,0,1,605,1025) translate(146.45 25.6)"/></g><path d="M900 1068.98H710v-.22H538.24" stroke="#000" stroke-width="2" fill="none"/><path d="M523.24 1068.76l14.26-4.64v9.27z" stroke="#000" stroke-width="2"/><path d="M980 1079.8h240v53.2H980z" stroke="#000" stroke-opacity="0" stroke-width="2" fill="#fff" fill-opacity="0"/><g><use xlink:href="#v" transform="matrix(1,0,0,1,985,1084.8000000000006) translate(2.5999999999999943 25.6)"/><use xlink:href="#G" transform="matrix(1,0,0,1,985,1084.8000000000006) translate(50.55 25.6)"/><use xlink:href="#t" transform="matrix(1,0,0,1,985,1084.8000000000006) translate(146.45000000000002 25.6)"/><use xlink:href="#B" transform="matrix(1,0,0,1,985,1084.8000000000006) translate(180.45000000000002 25.6)"/></g><path d="M900 1124.84h190v-.22h171.76" stroke="#000" stroke-width="2" fill="none"/><path d="M1276.76 1124.62l-14.26 4.64v-9.28z" stroke="#000" stroke-width="2"/><path d="M780 20h240v60H780z" stroke="#000" stroke-opacity="0" stroke-width="2" fill="#fff" fill-opacity="0"/><g><use xlink:href="#H" transform="matrix(1,0,0,1,785,25) translate(23.999999999999986 30.333333333333336)"/><use xlink:href="#I" transform="matrix(1,0,0,1,785,25) translate(105.4074074074074 30.333333333333336)"/></g><defs><path d="M30-248c118-7 216 8 213 122C240-48 200 0 122 0H30v-248zM63-27c89 8 146-16 146-99s-60-101-146-95v194" id="J"/><path d="M141-36C126-15 110 5 73 4 37 3 15-17 15-53c-1-64 63-63 125-63 3-35-9-54-41-54-24 1-41 7-42 31l-33-3c5-37 33-52 76-52 45 0 72 20 72 64v82c-1 20 7 32 28 27v20c-31 9-61-2-59-35zM48-53c0 20 12 33 32 33 41-3 63-29 60-74-43 2-92-5-92 41" id="K"/><path d="M59-47c-2 24 18 29 38 22v24C64 9 27 4 27-40v-127H5v-23h24l9-43h21v43h35v23H59v120" id="L"/><path d="M115-194c53 0 69 39 70 98 0 66-23 100-70 100C84 3 66-7 56-30L54 0H23l1-261h32v101c10-23 28-34 59-34zm-8 174c40 0 45-34 45-75 0-40-5-75-45-74-42 0-51 32-51 76 0 43 10 73 51 73" id="M"/><path d="M135-143c-3-34-86-38-87 0 15 53 115 12 119 90S17 21 10-45l28-5c4 36 97 45 98 0-10-56-113-15-118-90-4-57 82-63 122-42 12 7 21 19 24 35" id="N"/><path d="M100-194c63 0 86 42 84 106H49c0 40 14 67 53 68 26 1 43-12 49-29l28 8c-11 28-37 45-77 45C44 4 14-33 15-96c1-61 26-98 85-98zm52 81c6-60-76-77-97-28-3 7-6 17-6 28h103" id="O"/><g id="a"><use transform="matrix(0.05,0,0,0.05,0,0)" xlink:href="#J"/><use transform="matrix(0.05,0,0,0.05,12.950000000000001,0)" xlink:href="#K"/><use transform="matrix(0.05,0,0,0.05,22.950000000000003,0)" xlink:href="#L"/><use transform="matrix(0.05,0,0,0.05,27.950000000000003,0)" xlink:href="#K"/><use transform="matrix(0.05,0,0,0.05,37.95,0)" xlink:href="#M"/><use transform="matrix(0.05,0,0,0.05,47.95,0)" xlink:href="#K"/><use transform="matrix(0.05,0,0,0.05,57.95,0)" xlink:href="#N"/><use transform="matrix(0.05,0,0,0.05,66.95,0)" xlink:href="#O"/></g><path d="M212-179c-10-28-35-45-73-45-59 0-87 40-87 99 0 60 29 101 89 101 43 0 62-24 78-52l27 14C228-24 195 4 139 4 59 4 22-46 18-125c-6-104 99-153 187-111 19 9 31 26 39 46" id="P"/><path d="M24 0v-261h32V0H24" id="Q"/><path d="M24-231v-30h32v30H24zM24 0v-190h32V0H24" id="R"/><path d="M117-194c89-4 53 116 60 194h-32v-121c0-31-8-49-39-48C34-167 62-67 57 0H25l-1-190h30c1 10-1 24 2 32 11-22 29-35 61-36" id="S"/><g id="b"><use transform="matrix(0.05,0,0,0.05,0,0)" xlink:href="#P"/><use transform="matrix(0.05,0,0,0.05,12.950000000000001,0)" xlink:href="#Q"/><use transform="matrix(0.05,0,0,0.05,16.900000000000002,0)" xlink:href="#R"/><use transform="matrix(0.05,0,0,0.05,20.85,0)" xlink:href="#O"/><use transform="matrix(0.05,0,0,0.05,30.85,0)" xlink:href="#S"/><use transform="matrix(0.05,0,0,0.05,40.85,0)" xlink:href="#L"/></g><path d="M266 0h-40l-56-210L115 0H75L2-248h35L96-30l15-64 43-154h32l59 218 59-218h35" id="T"/><g id="c"><use transform="matrix(0.05,0,0,0.05,0,0)" xlink:href="#T"/><use transform="matrix(0.05,0,0,0.05,16.599999999999998,0)" xlink:href="#O"/><use transform="matrix(0.05,0,0,0.05,26.599999999999994,0)" xlink:href="#M"/><use transform="matrix(0.05,0,0,0.05,36.599999999999994,0)" xlink:href="#N"/><use transform="matrix(0.05,0,0,0.05,45.599999999999994,0)" xlink:href="#R"/><use transform="matrix(0.05,0,0,0.05,49.55,0)" xlink:href="#L"/><use transform="matrix(0.05,0,0,0.05,54.54999999999999,0)" xlink:href="#O"/></g><path d="M30 0v-248h33v221h125V0H30" id="U"/><g id="d"><use transform="matrix(0.05,0,0,0.05,0,0)" xlink:href="#U"/><use transform="matrix(0.05,0,0,0.05,10,0)" xlink:href="#K"/><use transform="matrix(0.05,0,0,0.05,20,0)" xlink:href="#K"/><use transform="matrix(0.05,0,0,0.05,30,0)" xlink:href="#L"/></g><path d="M106-169C34-169 62-67 57 0H25v-261h32l-1 103c12-21 28-36 61-36 89 0 53 116 60 194h-32v-121c2-32-8-49-39-48" id="V"/><path d="M100-194c62-1 85 37 85 99 1 63-27 99-86 99S16-35 15-95c0-66 28-99 85-99zM99-20c44 1 53-31 53-75 0-43-8-75-51-75s-53 32-53 75 10 74 51 75" id="W"/><path d="M210-169c-67 3-38 105-44 169h-31v-121c0-29-5-50-35-48C34-165 62-65 56 0H25l-1-190h30c1 10-1 24 2 32 10-44 99-50 107 0 11-21 27-35 58-36 85-2 47 119 55 194h-31v-121c0-29-5-49-35-48" id="X"/><path d="M115-194c55 1 70 41 70 98S169 2 115 4C84 4 66-9 55-30l1 105H24l-1-265h31l2 30c10-21 28-34 59-34zm-8 174c40 0 45-34 45-75s-6-73-45-74c-42 0-51 32-51 76 0 43 10 73 51 73" id="Y"/><path d="M177-190C167-65 218 103 67 71c-23-6-38-20-44-43l32-5c15 47 100 32 89-28v-30C133-14 115 1 83 1 29 1 15-40 15-95c0-56 16-97 71-98 29-1 48 16 59 35 1-10 0-23 2-32h30zM94-22c36 0 50-32 50-73 0-42-14-75-50-75-39 0-46 34-46 75s6 73 46 73" id="Z"/><g id="e"><use transform="matrix(0.05,0,0,0.05,0,0)" xlink:href="#V"/><use transform="matrix(0.05,0,0,0.05,10,0)" xlink:href="#W"/><use transform="matrix(0.05,0,0,0.05,20,0)" xlink:href="#X"/><use transform="matrix(0.05,0,0,0.05,34.95,0)" xlink:href="#O"/><use transform="matrix(0.05,0,0,0.05,44.95,0)" xlink:href="#Y"/><use transform="matrix(0.05,0,0,0.05,54.95,0)" xlink:href="#K"/><use transform="matrix(0.05,0,0,0.05,64.95,0)" xlink:href="#Z"/><use transform="matrix(0.05,0,0,0.05,74.95,0)" xlink:href="#R"/><use transform="matrix(0.05,0,0,0.05,78.9,0)" xlink:href="#S"/><use transform="matrix(0.05,0,0,0.05,88.9,0)" xlink:href="#O"/></g><path d="M9 0v-24l116-142H16v-24h144v24L44-24h123V0H9" id="aa"/><g id="f"><use transform="matrix(0.05,0,0,0.05,0,0)" xlink:href="#aa"/><use transform="matrix(0.05,0,0,0.05,9,0)" xlink:href="#R"/><use transform="matrix(0.05,0,0,0.05,12.949999999999998,0)" xlink:href="#O"/><use transform="matrix(0.05,0,0,0.05,22.95,0)" xlink:href="#S"/></g><path d="M194 0L95-120 63-95V0H30v-248h33v124l119-124h40L117-140 236 0h-42" id="ab"/><path d="M143 0L79-87 56-68V0H24v-261h32v163l83-92h37l-77 82L181 0h-38" id="ac"/><g id="g"><use transform="matrix(0.05,0,0,0.05,0,0)" xlink:href="#ab"/><use transform="matrix(0.05,0,0,0.05,12,0)" xlink:href="#Q"/><use transform="matrix(0.05,0,0,0.05,15.949999999999998,0)" xlink:href="#R"/><use transform="matrix(0.05,0,0,0.05,19.9,0)" xlink:href="#ac"/></g><g id="h"><use transform="matrix(0.05,0,0,0.05,0,0)" xlink:href="#W"/><use transform="matrix(0.05,0,0,0.05,10,0)" xlink:href="#Y"/></g><path d="M85-194c31 0 48 13 60 33l-1-100h32l1 261h-30c-2-10 0-23-3-31C134-8 116 4 85 4 32 4 16-35 15-94c0-66 23-100 70-100zm9 24c-40 0-46 34-46 75 0 40 6 74 45 74 42 0 51-32 51-76 0-42-9-74-50-73" id="ad"/><g id="i"><use transform="matrix(0.05,0,0,0.05,0,0)" xlink:href="#V"/><use transform="matrix(0.05,0,0,0.05,10,0)" xlink:href="#O"/><use transform="matrix(0.05,0,0,0.05,20,0)" xlink:href="#Q"/><use transform="matrix(0.05,0,0,0.05,23.95,0)" xlink:href="#Y"/><use transform="matrix(0.05,0,0,0.05,33.95,0)" xlink:href="#ad"/><use transform="matrix(0.05,0,0,0.05,43.95,0)" xlink:href="#O"/><use transform="matrix(0.05,0,0,0.05,53.95,0)" xlink:href="#N"/><use transform="matrix(0.05,0,0,0.05,62.95,0)" xlink:href="#ac"/></g><g id="j"><use transform="matrix(0.05,0,0,0.05,0,0)" xlink:href="#V"/><use transform="matrix(0.05,0,0,0.05,10,0)" xlink:href="#O"/><use transform="matrix(0.05,0,0,0.05,20,0)" xlink:href="#Q"/><use transform="matrix(0.05,0,0,0.05,23.95,0)" xlink:href="#Y"/><use transform="matrix(0.05,0,0,0.05,33.95,0)" xlink:href="#ad"/><use transform="matrix(0.05,0,0,0.05,43.95,0)" xlink:href="#O"/><use transform="matrix(0.05,0,0,0.05,53.95,0)" xlink:href="#N"/><use transform="matrix(0.05,0,0,0.05,62.95,0)" xlink:href="#ac"/></g><path d="M96-169c-40 0-48 33-48 73s9 75 48 75c24 0 41-14 43-38l32 2c-6 37-31 61-74 61-59 0-76-41-82-99-10-93 101-131 147-64 4 7 5 14 7 22l-32 3c-4-21-16-35-41-35" id="ae"/><path d="M114-163C36-179 61-72 57 0H25l-1-190h30c1 12-1 29 2 39 6-27 23-49 58-41v29" id="af"/><g id="k"><use transform="matrix(0.05,0,0,0.05,0,0)" xlink:href="#N"/><use transform="matrix(0.05,0,0,0.05,9,0)" xlink:href="#ae"/><use transform="matrix(0.05,0,0,0.05,18,0)" xlink:href="#V"/><use transform="matrix(0.05,0,0,0.05,28,0)" xlink:href="#O"/><use transform="matrix(0.05,0,0,0.05,38,0)" xlink:href="#af"/><use transform="matrix(0.05,0,0,0.05,43.95,0)" xlink:href="#X"/></g><path d="M137 0h-34L2-248h35l83 218 83-218h36" id="ag"/><g id="l"><use transform="matrix(0.05,0,0,0.05,0,0)" xlink:href="#ag"/><use transform="matrix(0.05,0,0,0.05,11.35,0)" xlink:href="#af"/><use transform="matrix(0.05,0,0,0.05,17.3,0)" xlink:href="#K"/><use transform="matrix(0.05,0,0,0.05,27.3,0)" xlink:href="#K"/><use transform="matrix(0.05,0,0,0.05,37.3,0)" xlink:href="#Z"/></g><g id="m"><use transform="matrix(0.05,0,0,0.05,0,0)" xlink:href="#W"/><use transform="matrix(0.05,0,0,0.05,10,0)" xlink:href="#X"/></g><path d="M84 4C-5 8 30-112 23-190h32v120c0 31 7 50 39 49 72-2 45-101 50-169h31l1 190h-30c-1-10 1-25-2-33-11 22-28 36-60 37" id="ah"/><g id="n"><use transform="matrix(0.05,0,0,0.05,0,0)" xlink:href="#ad"/><use transform="matrix(0.05,0,0,0.05,10,0)" xlink:href="#K"/><use transform="matrix(0.05,0,0,0.05,20,0)" xlink:href="#L"/><use transform="matrix(0.05,0,0,0.05,25,0)" xlink:href="#ah"/><use transform="matrix(0.05,0,0,0.05,35,0)" xlink:href="#X"/></g><g id="o"><use transform="matrix(0.05,0,0,0.05,0,0)" xlink:href="#ag"/><use transform="matrix(0.05,0,0,0.05,11.35,0)" xlink:href="#ah"/><use transform="matrix(0.05,0,0,0.05,21.35,0)" xlink:href="#Q"/></g><g id="p"><use transform="matrix(0.05,0,0,0.05,0,0)" xlink:href="#ad"/><use transform="matrix(0.05,0,0,0.05,10,0)" xlink:href="#K"/><use transform="matrix(0.05,0,0,0.05,20,0)" xlink:href="#L"/><use transform="matrix(0.05,0,0,0.05,25,0)" xlink:href="#ah"/><use transform="matrix(0.05,0,0,0.05,35,0)" xlink:href="#X"/></g><g id="q"><use transform="matrix(0.05,0,0,0.05,0,0)" xlink:href="#R"/><use transform="matrix(0.05,0,0,0.05,3.95,0)" xlink:href="#S"/></g><path d="M209 0H11v-25l151-195H24v-28h176v25L50-27h159V0" id="ai"/><g id="r"><use transform="matrix(0.05,0,0,0.05,0,0)" xlink:href="#ai"/><use transform="matrix(0.05,0,0,0.05,10.950000000000001,0)" xlink:href="#W"/><use transform="matrix(0.05,0,0,0.05,20.950000000000003,0)" xlink:href="#O"/><use transform="matrix(0.05,0,0,0.05,30.950000000000003,0)" xlink:href="#ac"/></g><g id="s"><use transform="matrix(0.05,0,0,0.05,0,0)" xlink:href="#af"/><use transform="matrix(0.05,0,0,0.05,5.95,0)" xlink:href="#R"/><use transform="matrix(0.05,0,0,0.05,9.9,0)" xlink:href="#L"/><use transform="matrix(0.05,0,0,0.05,14.9,0)" xlink:href="#L"/><use transform="matrix(0.05,0,0,0.05,19.9,0)" xlink:href="#O"/><use transform="matrix(0.05,0,0,0.05,29.899999999999995,0)" xlink:href="#S"/></g><path d="M108 0H70L1-190h34L89-25l56-165h34" id="aj"/><g id="t"><use transform="matrix(0.05,0,0,0.05,0,0)" xlink:href="#aj"/><use transform="matrix(0.05,0,0,0.05,9,0)" xlink:href="#K"/><use transform="matrix(0.05,0,0,0.05,19,0)" xlink:href="#S"/></g><g id="u"><use transform="matrix(0.05,0,0,0.05,0,0)" xlink:href="#ad"/><use transform="matrix(0.05,0,0,0.05,10,0)" xlink:href="#R"/><use transform="matrix(0.05,0,0,0.05,13.949999999999998,0)" xlink:href="#O"/></g><path d="M185-189c-5-48-123-54-124 2 14 75 158 14 163 119 3 78-121 87-175 55-17-10-28-26-33-46l33-7c5 56 141 63 141-1 0-78-155-14-162-118-5-82 145-84 179-34 5 7 8 16 11 25" id="ak"/><g id="v"><use transform="matrix(0.05,0,0,0.05,0,0)" xlink:href="#ak"/><use transform="matrix(0.05,0,0,0.05,12,0)" xlink:href="#L"/><use transform="matrix(0.05,0,0,0.05,17,0)" xlink:href="#ah"/><use transform="matrix(0.05,0,0,0.05,27,0)" xlink:href="#ah"/><use transform="matrix(0.05,0,0,0.05,37,0)" xlink:href="#af"/></g><g id="w"><use transform="matrix(0.05,0,0,0.05,0,0)" xlink:href="#W"/><use transform="matrix(0.05,0,0,0.05,10,0)" xlink:href="#aj"/><use transform="matrix(0.05,0,0,0.05,19,0)" xlink:href="#O"/><use transform="matrix(0.05,0,0,0.05,29,0)" xlink:href="#af"/><use transform="matrix(0.05,0,0,0.05,34.95,0)" xlink:href="#aa"/><use transform="matrix(0.05,0,0,0.05,43.95,0)" xlink:href="#R"/><use transform="matrix(0.05,0,0,0.05,47.900000000000006,0)" xlink:href="#ae"/><use transform="matrix(0.05,0,0,0.05,56.900000000000006,0)" xlink:href="#V"/><use transform="matrix(0.05,0,0,0.05,66.9,0)" xlink:href="#L"/></g><g id="x"><use transform="matrix(0.05,0,0,0.05,0,0)" xlink:href="#W"/><use transform="matrix(0.05,0,0,0.05,10,0)" xlink:href="#Y"/></g><g id="y"><use transform="matrix(0.05,0,0,0.05,0,0)" xlink:href="#ab"/><use transform="matrix(0.05,0,0,0.05,12,0)" xlink:href="#R"/><use transform="matrix(0.05,0,0,0.05,15.949999999999998,0)" xlink:href="#O"/><use transform="matrix(0.05,0,0,0.05,25.950000000000003,0)" xlink:href="#N"/></g><path d="M101-234c-31-9-42 10-38 44h38v23H63V0H32v-167H5v-23h27c-7-52 17-82 69-68v24" id="al"/><g id="z"><use transform="matrix(0.05,0,0,0.05,0,0)" xlink:href="#ad"/><use transform="matrix(0.05,0,0,0.05,10,0)" xlink:href="#O"/><use transform="matrix(0.05,0,0,0.05,20,0)" xlink:href="#N"/><use transform="matrix(0.05,0,0,0.05,29,0)" xlink:href="#M"/><use transform="matrix(0.05,0,0,0.05,39,0)" xlink:href="#O"/><use transform="matrix(0.05,0,0,0.05,49,0)" xlink:href="#L"/><use transform="matrix(0.05,0,0,0.05,54,0)" xlink:href="#af"/><use transform="matrix(0.05,0,0,0.05,59.95,0)" xlink:href="#O"/><use transform="matrix(0.05,0,0,0.05,69.95,0)" xlink:href="#al"/><use transform="matrix(0.05,0,0,0.05,74.60000000000001,0)" xlink:href="#al"/><use transform="matrix(0.05,0,0,0.05,79.60000000000001,0)" xlink:href="#O"/><use transform="matrix(0.05,0,0,0.05,89.60000000000001,0)" xlink:href="#S"/><use transform="matrix(0.05,0,0,0.05,99.60000000000001,0)" xlink:href="#ad"/><use transform="matrix(0.05,0,0,0.05,109.60000000000001,0)" xlink:href="#O"/></g><g id="A"><use transform="matrix(0.05,0,0,0.05,0,0)" xlink:href="#af"/><use transform="matrix(0.05,0,0,0.05,5.95,0)" xlink:href="#R"/><use transform="matrix(0.05,0,0,0.05,9.9,0)" xlink:href="#L"/></g><g id="B"><use transform="matrix(0.05,0,0,0.05,0,0)" xlink:href="#ac"/><use transform="matrix(0.05,0,0,0.05,9,0)" xlink:href="#Q"/><use transform="matrix(0.05,0,0,0.05,12.949999999999998,0)" xlink:href="#K"/><use transform="matrix(0.05,0,0,0.05,22.95,0)" xlink:href="#ae"/><use transform="matrix(0.05,0,0,0.05,31.950000000000003,0)" xlink:href="#V"/><use transform="matrix(0.05,0,0,0.05,41.95,0)" xlink:href="#L"/></g><path d="M143 4C61 4 22-44 18-125c-5-107 100-154 193-111 17 8 29 25 37 43l-32 9c-13-25-37-40-76-40-61 0-88 39-88 99 0 61 29 100 91 101 35 0 62-11 79-27v-45h-74v-28h105v86C228-13 192 4 143 4" id="am"/><g id="C"><use transform="matrix(0.05,0,0,0.05,0,0)" xlink:href="#am"/><use transform="matrix(0.05,0,0,0.05,14,0)" xlink:href="#O"/><use transform="matrix(0.05,0,0,0.05,24,0)" xlink:href="#O"/><use transform="matrix(0.05,0,0,0.05,34,0)" xlink:href="#al"/></g><g id="D"><use transform="matrix(0.05,0,0,0.05,0,0)" xlink:href="#ak"/><use transform="matrix(0.05,0,0,0.05,12,0)" xlink:href="#Q"/><use transform="matrix(0.05,0,0,0.05,15.949999999999998,0)" xlink:href="#K"/></g><g id="E"><use transform="matrix(0.05,0,0,0.05,0,0)" xlink:href="#ac"/><use transform="matrix(0.05,0,0,0.05,9,0)" xlink:href="#Q"/><use transform="matrix(0.05,0,0,0.05,12.949999999999998,0)" xlink:href="#K"/><use transform="matrix(0.05,0,0,0.05,22.95,0)" xlink:href="#ae"/><use transform="matrix(0.05,0,0,0.05,31.950000000000003,0)" xlink:href="#V"/><use transform="matrix(0.05,0,0,0.05,41.95,0)" xlink:href="#L"/></g><g id="F"><use transform="matrix(0.05,0,0,0.05,0,0)" xlink:href="#W"/><use transform="matrix(0.05,0,0,0.05,10,0)" xlink:href="#Y"/></g><g id="G"><use transform="matrix(0.05,0,0,0.05,0,0)" xlink:href="#M"/><use transform="matrix(0.05,0,0,0.05,10,0)" xlink:href="#O"/><use transform="matrix(0.05,0,0,0.05,20,0)" xlink:href="#aj"/><use transform="matrix(0.05,0,0,0.05,29,0)" xlink:href="#O"/><use transform="matrix(0.05,0,0,0.05,39,0)" xlink:href="#N"/><use transform="matrix(0.05,0,0,0.05,48,0)" xlink:href="#L"/><use transform="matrix(0.05,0,0,0.05,53,0)" xlink:href="#R"/><use transform="matrix(0.05,0,0,0.05,56.95,0)" xlink:href="#Z"/><use transform="matrix(0.05,0,0,0.05,66.95,0)" xlink:href="#R"/><use transform="matrix(0.05,0,0,0.05,70.9,0)" xlink:href="#S"/><use transform="matrix(0.05,0,0,0.05,80.9,0)" xlink:href="#Z"/></g><g id="H"><use transform="matrix(0.07407407407407408,0,0,0.07407407407407408,0,0)" xlink:href="#ab"/><use transform="matrix(0.07407407407407408,0,0,0.07407407407407408,17.77777777777778,0)" xlink:href="#Q"/><use transform="matrix(0.07407407407407408,0,0,0.07407407407407408,23.629629629629633,0)" xlink:href="#K"/><use transform="matrix(0.07407407407407408,0,0,0.07407407407407408,38.44444444444445,0)" xlink:href="#ae"/><use transform="matrix(0.07407407407407408,0,0,0.07407407407407408,51.777777777777786,0)" xlink:href="#V"/><use transform="matrix(0.07407407407407408,0,0,0.07407407407407408,66.59259259259261,0)" xlink:href="#L"/></g><g id="I"><use transform="matrix(0.07407407407407408,0,0,0.07407407407407408,0,0)" xlink:href="#R"/><use transform="matrix(0.07407407407407408,0,0,0.07407407407407408,5.851851851851853,0)" xlink:href="#S"/><use transform="matrix(0.07407407407407408,0,0,0.07407407407407408,20.666666666666668,0)" xlink:href="#ad"/><use transform="matrix(0.07407407407407408,0,0,0.07407407407407408,35.48148148148149,0)" xlink:href="#R"/><use transform="matrix(0.07407407407407408,0,0,0.07407407407407408,41.333333333333336,0)" xlink:href="#O"/><use transform="matrix(0.07407407407407408,0,0,0.07407407407407408,56.14814814814815,0)" xlink:href="#S"/><use transform="matrix(0.07407407407407408,0,0,0.07407407407407408,70.96296296296298,0)" xlink:href="#O"/><use transform="matrix(0.07407407407407408,0,0,0.07407407407407408,85.7777777777778,0)" xlink:href="#S"/></g></defs></g></svg>