<svg xmlns="http://www.w3.org/2000/svg" xmlns:xlink="http://www.w3.org/1999/xlink" xmlns:lucid="lucid" width="1260" height="980"><g transform="translate(-260 -80)" lucid:page-tab-id="0_0"><path d="M0 0h1760v1360H0z" fill="#fff"/><path d="M339.75 629.75c0 10.9-8.84 19.75-19.75 19.75-10.9 0-19.75-8.84-19.75-19.75 0-10.9 8.84-19.75 19.75-19.75 10.9 0 19.75 8.84 19.75 19.75z" stroke="#000" stroke-width="2" fill="#fff"/><path d="M280 615c0-2.76 2.24-5 5-5h70c2.76 0 5 2.24 5 5v148c0 2.76-2.24 5-5 5h-70c-2.76 0-5-2.24-5-5z" fill="none"/><path d="M320 649.5v50.3c0 2.76 1.2 6.9 2.67 9.22L360 768m-40-63.2L280 768m0-98.75h80" stroke="#000" stroke-width="2" fill="none"/><use xlink:href="#a" transform="matrix(1,0,0,1,200,768) translate(81.1 14.6)"/><path d="M800 180c0 33.14-35.82 60-80 60s-80-26.86-80-60 35.82-60 80-60 80 26.86 80 60z" stroke="#000" stroke-width="2" fill="#fff"/><use xlink:href="#b" transform="matrix(1,0,0,1,640,120) translate(39.504999999999995 40.65)"/><use xlink:href="#c" transform="matrix(1,0,0,1,640,120) translate(31.07999999999999 62.25)"/><use xlink:href="#d" transform="matrix(1,0,0,1,640,120) translate(55.05499999999999 83.85000000000001)"/><path d="M480 105c0-2.76 2.24-5 5-5h810c2.76 0 5 2.24 5 5v930c0 2.76-2.24 5-5 5H485c-2.76 0-5-2.24-5-5z" stroke="#000" stroke-width="2" fill="none"/><use xlink:href="#e" transform="matrix(1,0,0,1,488,108) translate(363.075 15.6)"/><path d="M1399.75 359.75c0 10.9-8.84 19.75-19.75 19.75-10.9 0-19.75-8.84-19.75-19.75 0-10.9 8.84-19.75 19.75-19.75 10.9 0 19.75 8.84 19.75 19.75z" stroke="#000" stroke-width="2" fill="#fff"/><path d="M1340 345c0-2.76 2.24-5 5-5h70c2.76 0 5 2.24 5 5v148c0 2.76-2.24 5-5 5h-70c-2.76 0-5-2.24-5-5z" fill="none"/><path d="M1380 379.5v50.3c0 2.76 1.2 6.9 2.67 9.22L1420 498m-40-63.2l-40 63.2m0-98.75h80" stroke="#000" stroke-width="2" fill="none"/><use xlink:href="#f" transform="matrix(1,0,0,1,1260,498) translate(76.225 14.6)"/><path d="M1120 180c0 33.14-35.82 60-80 60s-80-26.86-80-60 35.82-60 80-60 80 26.86 80 60z" stroke="#000" stroke-width="2" fill="#fff"/><use xlink:href="#b" transform="matrix(1,0,0,1,960,120) translate(39.504999999999995 51.9)"/><use xlink:href="#g" transform="matrix(1,0,0,1,960,120) translate(41.105 73.5)"/><path d="M1120 900c0 33.14-35.82 60-80 60s-80-26.86-80-60 35.82-60 80-60 80 26.86 80 60z" stroke="#000" stroke-width="2" fill="#fff"/><use xlink:href="#h" transform="matrix(1,0,0,1,960,840) translate(39.004999999999995 51.9)"/><use xlink:href="#g" transform="matrix(1,0,0,1,960,840) translate(41.105 73.5)"/><path d="M800 900c0 33.14-35.82 60-80 60s-80-26.86-80-60 35.82-60 80-60 80 26.86 80 60z" stroke="#000" stroke-width="2" fill="#fff"/><use xlink:href="#h" transform="matrix(1,0,0,1,640,840) translate(39.004999999999995 40.65)"/><use xlink:href="#i" transform="matrix(1,0,0,1,640,840) translate(31.554999999999993 62.25)"/><use xlink:href="#j" transform="matrix(1,0,0,1,640,840) translate(25.079999999999995 83.85000000000001)"/><path d="M960 700c0 33.14-35.82 60-80 60s-80-26.86-80-60 35.82-60 80-60 80 26.86 80 60z" stroke="#000" stroke-width="2" fill="#fff"/><use xlink:href="#h" transform="matrix(1,0,0,1,800,640) translate(39.005 31.410000000000004)"/><use xlink:href="#k" transform="matrix(1,0,0,1,800,640) translate(38.029999999999994 53.01)"/><use xlink:href="#l" transform="matrix(1,0,0,1,800,640) translate(40.605 74.61)"/><use xlink:href="#d" transform="matrix(1,0,0,1,800,640) translate(55.055 96.21000000000001)"/><path d="M720 839l138.46-67.5" stroke="#000" stroke-width="2" fill="none"/><path d="M720.44 839.9l-.22.1h-1.12l-1.9.08-.33-.66 2.7-1.32z"/><path d="M878.23 761.86l-13.76 20.87-11.15-22.88z" fill="#fff"/><path d="M880 761l-15.66 23.74-12.7-26.03zm-15.4 19.72l11.87-18-21.5-1.73z"/><path d="M1040 839l-138.46-67.5" stroke="#000" stroke-width="2" fill="none"/><path d="M1043.13 839.42l-.32.67-2.8-.1h-.23l-.2-.1.87-1.8z"/><path d="M895.53 782.73l-13.76-20.87 24.9-2z" fill="#fff"/><path d="M895.66 784.74L880 761l28.35-2.3zm-12.13-22.02l11.87 18 9.62-19.73z"/><path d="M321.02 700H799M321.02 700h-3" stroke="#000" stroke-width="2" fill="none"/><path d="M800 700v.38l.03.62H799v-2h1.03z"/><path d="M960 380c0 33.14-35.82 60-80 60s-80-26.86-80-60 35.82-60 80-60 80 26.86 80 60z" stroke="#000" stroke-width="2" fill="#fff"/><use xlink:href="#b" transform="matrix(1,0,0,1,800,320) translate(39.505 31.410000000000004)"/><use xlink:href="#k" transform="matrix(1,0,0,1,800,320) translate(38.029999999999994 53.01)"/><use xlink:href="#l" transform="matrix(1,0,0,1,800,320) translate(40.605 74.61)"/><use xlink:href="#d" transform="matrix(1,0,0,1,800,320) translate(55.055 96.21000000000001)"/><path d="M761.8 232.23l98.88 72.6" stroke="#000" stroke-width="2" fill="none"/><path d="M762.38 231.43l-1.18 1.6-1.4-1 2.1-.94z"/><path d="M878.42 317.84l-24.88-2.48 15.06-20.5z" fill="#fff"/><path d="M880 319l-28.3-2.8 17.13-23.36zm-24.62-4.46l21.45 2.14-8.46-19.83z"/><path d="M1040 241l-138.46 67.5" stroke="#000" stroke-width="2" fill="none"/><path d="M1043.13 240.58l-2.7 1.32-.87-1.8.22-.1h1.12l1.9-.08z"/><path d="M906.68 320.15l-24.9-2 13.75-20.88z" fill="#fff"/><path d="M908.35 321.3L880 319l15.66-23.74zm-24.82-4.02l21.5 1.73-9.63-19.72z"/><path d="M1379 429.9l-418.7-41.87M1379 429.9l3 .3" stroke="#000" stroke-width="2" fill="none"/><path d="M960.4 387.03l-.2 2-1.1-.1.1-.4.25-1.6z"/><path d="M760 540c0 33.14-35.82 60-80 60s-80-26.86-80-60 35.82-60 80-60 80 26.86 80 60z" stroke="#000" stroke-width="2" fill="#fff"/><use xlink:href="#m" transform="matrix(1,0,0,1,600,480) translate(33.58 40.65)"/><use xlink:href="#n" transform="matrix(1,0,0,1,600,480) translate(19.555 62.25)"/><use xlink:href="#o" transform="matrix(1,0,0,1,600,480) translate(53.555 62.25)"/><use xlink:href="#p" transform="matrix(1,0,0,1,600,480) translate(88.55499999999999 62.25)"/><use xlink:href="#q" transform="matrix(1,0,0,1,600,480) translate(126.505 62.25)"/><use xlink:href="#o" transform="matrix(1,0,0,1,600,480) translate(45.004999999999995 83.85000000000001)"/><use xlink:href="#r" transform="matrix(1,0,0,1,600,480) translate(80.005 83.85000000000001)"/><path d="M880 639l-117.5-97.74" fill="none"/><path d="M880 639l-7.83-6.52m-7.84-6.5l-15.66-13.04m-7.83-6.52l-15.67-13.03m-7.83-6.53l-15.67-13.03m-7.83-6.52l-15.66-13.03m-7.84-6.53l-7.83-6.5" stroke="#000" stroke-width="2" fill="none"/><path d="M882.87 640.1L880 640h-.36l-.28-.23 1.28-1.54zM782.4 543.45l-.3 1.98-18.08-2.92 6.15 17.26-1.88.67L761 540z"/><path d="M830 555c0-2.76 2.24-5 5-5h110c2.76 0 5 2.24 5 5v30c0 2.76-2.24 5-5 5H835c-2.76 0-5-2.24-5-5z" fill="#fff" fill-opacity="0"/><path d="M853.33 550h18.34m9.16 0h18.34m9.16 0h18.34m9.16 0H945l2.95.96 1.8 2.46.25 1.58v10m0 10v10l-.96 2.95-2.46 1.8-1.58.25h-9.17m-9.16 0h-18.34m-9.16 0h-18.34m-9.16 0h-18.34m-9.16 0H835l-2.95-.96-1.8-2.46L830 585v-10m0-10v-10l.96-2.95 2.46-1.8L835 550h9.17" stroke="#000" stroke-opacity="0" stroke-width="2" fill="none"/><use xlink:href="#s" transform="matrix(1,0,0,1,830,550) translate(6.054999999999994 24.4)"/><path d="M599 540L321 699.78" stroke="#000" stroke-width="2" fill="none"/><path d="M600 540V540.58l-.5.3-1-1.75 1.55-.9z"/><path d="M321 699.78l-2.6 1.5" stroke="#000" stroke-width="2" fill="none"/><path d="M1200 540c0 33.14-35.82 60-80 60s-80-26.86-80-60 35.82-60 80-60 80 26.86 80 60z" stroke="#000" stroke-width="2" fill="#fff"/><g><use xlink:href="#t" transform="matrix(1,0,0,1,1040,480) translate(24.504999999999995 51.9)"/><use xlink:href="#u" transform="matrix(1,0,0,1,1040,480) translate(110.505 51.9)"/><use xlink:href="#v" transform="matrix(1,0,0,1,1040,480) translate(24.555 73.5)"/><use xlink:href="#w" transform="matrix(1,0,0,1,1040,480) translate(49.555 73.5)"/><use xlink:href="#x" transform="matrix(1,0,0,1,1040,480) translate(89.55499999999999 73.5)"/><use xlink:href="#y" transform="matrix(1,0,0,1,1040,480) translate(117.505 73.5)"/></g><path d="M1340 745c0-2.76 2.24-5 5-5h150c2.76 0 5 2.24 5 5v110c0 2.76-2.24 5-5 5h-150c-2.76 0-5-2.24-5-5z" stroke="#000" stroke-width="2" fill="#fff"/><g><use xlink:href="#z" transform="matrix(1,0,0,1,1340,740) translate(44.55499999999999 63.15)"/></g><path d="M1339 800l-138-260" stroke="#000" stroke-width="2" fill="none"/><path d="M1340 799.75v3.12l-.48.25-1.4-2.65 1.76-.94zM1201.88 539.53l-1.76.94-.13-.23v-.62l-.1-2.43.58-.32z"/><path d="M761 540h276.04" fill="none"/><path d="M761 540h10.22m10.23 0h20.44m10.22 0h20.44m10.23 0h20.44m10.22 0h20.45m10.23 0h20.45m10.22 0h20.45m10.22 0h20.45m10.22 0h20.45m10.2 0h10.24" stroke="#000" stroke-width="2" fill="none"/><path d="M761 541h-1.03l.03-1v-.38l-.03-.62H761zM1039 540l-18.67 11.04-1.02-1.72 15.77-9.32-15.76-9.32 1.03-1.72z"/><path d="M840 505c0-2.76 2.24-5 5-5h110c2.76 0 5 2.24 5 5v30c0 2.76-2.24 5-5 5H845c-2.76 0-5-2.24-5-5z" fill="#fff" fill-opacity="0"/><path d="M863.33 500h18.34m9.16 0h18.34m9.16 0h18.34m9.16 0H955l2.95.96 1.8 2.46.25 1.58v10m0 10v10l-.96 2.95-2.46 1.8-1.58.25h-9.17m-9.16 0h-18.34m-9.16 0h-18.34m-9.16 0h-18.34m-9.16 0H845l-2.95-.96-1.8-2.46L840 535v-10m0-10v-10l.96-2.95 2.46-1.8L845 500h9.17" stroke="#000" stroke-opacity="0" stroke-width="2" fill="none"/><g><use xlink:href="#s" transform="matrix(1,0,0,1,840,500) translate(6.054999999999994 24.4)"/></g><defs><path d="M240 0l2-218c-23 76-54 145-80 218h-23L58-218 59 0H30v-248h44l77 211c21-75 51-140 76-211h43V0h-30" id="A"/><path d="M100-194c63 0 86 42 84 106H49c0 40 14 67 53 68 26 1 43-12 49-29l28 8c-11 28-37 45-77 45C44 4 14-33 15-96c1-61 26-98 85-98zm52 81c6-60-76-77-97-28-3 7-6 17-6 28h103" id="B"/><path d="M24 0v-261h32V0H24" id="C"/><path d="M24-231v-30h32v30H24zM24 0v-190h32V0H24" id="D"/><path d="M101-234c-31-9-42 10-38 44h38v23H63V0H32v-167H5v-23h27c-7-52 17-82 69-68v24" id="E"/><path d="M59-47c-2 24 18 29 38 22v24C64 9 27 4 27-40v-127H5v-23h24l9-43h21v43h35v23H59v120" id="F"/><path d="M114-163C36-179 61-72 57 0H25l-1-190h30c1 12-1 29 2 39 6-27 23-49 58-41v29" id="G"/><path d="M135-143c-3-34-86-38-87 0 15 53 115 12 119 90S17 21 10-45l28-5c4 36 97 45 98 0-10-56-113-15-118-90-4-57 82-63 122-42 12 7 21 19 24 35" id="H"/><g id="a"><use transform="matrix(0.05,0,0,0.05,0,0)" xlink:href="#A"/><use transform="matrix(0.05,0,0,0.05,14.950000000000001,0)" xlink:href="#B"/><use transform="matrix(0.05,0,0,0.05,24.950000000000003,0)" xlink:href="#B"/><use transform="matrix(0.05,0,0,0.05,34.95,0)" xlink:href="#C"/><use transform="matrix(0.05,0,0,0.05,38.900000000000006,0)" xlink:href="#D"/><use transform="matrix(0.05,0,0,0.05,42.85000000000001,0)" xlink:href="#E"/><use transform="matrix(0.05,0,0,0.05,47.85000000000001,0)" xlink:href="#F"/><use transform="matrix(0.05,0,0,0.05,52.85,0)" xlink:href="#B"/><use transform="matrix(0.05,0,0,0.05,62.85,0)" xlink:href="#G"/><use transform="matrix(0.05,0,0,0.05,68.80000000000001,0)" xlink:href="#H"/></g><path d="M205 0l-28-72H64L36 0H1l101-248h38L239 0h-34zm-38-99l-47-123c-12 45-31 82-46 123h93" id="I"/><path d="M141-36C126-15 110 5 73 4 37 3 15-17 15-53c-1-64 63-63 125-63 3-35-9-54-41-54-24 1-41 7-42 31l-33-3c5-37 33-52 76-52 45 0 72 20 72 64v82c-1 20 7 32 28 27v20c-31 9-61-2-59-35zM48-53c0 20 12 33 32 33 41-3 63-29 60-74-43 2-92-5-92 41" id="J"/><path d="M117-194c89-4 53 116 60 194h-32v-121c0-31-8-49-39-48C34-167 62-67 57 0H25l-1-190h30c1 10-1 24 2 32 11-22 29-35 61-36" id="K"/><path d="M177-190C167-65 218 103 67 71c-23-6-38-20-44-43l32-5c15 47 100 32 89-28v-30C133-14 115 1 83 1 29 1 15-40 15-95c0-56 16-97 71-98 29-1 48 16 59 35 1-10 0-23 2-32h30zM94-22c36 0 50-32 50-73 0-42-14-75-50-75-39 0-46 34-46 75s6 73 46 73" id="L"/><path d="M108 0H70L1-190h34L89-25l56-165h34" id="M"/><g id="b"><use transform="matrix(0.05,0,0,0.05,0,0)" xlink:href="#I"/><use transform="matrix(0.05,0,0,0.05,12,0)" xlink:href="#J"/><use transform="matrix(0.05,0,0,0.05,22,0)" xlink:href="#K"/><use transform="matrix(0.05,0,0,0.05,32,0)" xlink:href="#L"/><use transform="matrix(0.05,0,0,0.05,42,0)" xlink:href="#B"/><use transform="matrix(0.05,0,0,0.05,52,0)" xlink:href="#M"/><use transform="matrix(0.05,0,0,0.05,61,0)" xlink:href="#B"/><use transform="matrix(0.05,0,0,0.05,71,0)" xlink:href="#K"/></g><path d="M115-194c53 0 69 39 70 98 0 66-23 100-70 100C84 3 66-7 56-30L54 0H23l1-261h32v101c10-23 28-34 59-34zm-8 174c40 0 45-34 45-75 0-40-5-75-45-74-42 0-51 32-51 76 0 43 10 73 51 73" id="N"/><path d="M210-169c-67 3-38 105-44 169h-31v-121c0-29-5-50-35-48C34-165 62-65 56 0H25l-1-190h30c1 10-1 24 2 32 10-44 99-50 107 0 11-21 27-35 58-36 85-2 47 119 55 194h-31v-121c0-29-5-49-35-48" id="O"/><g id="c"><use transform="matrix(0.05,0,0,0.05,0,0)" xlink:href="#N"/><use transform="matrix(0.05,0,0,0.05,10,0)" xlink:href="#B"/><use transform="matrix(0.05,0,0,0.05,20,0)" xlink:href="#H"/><use transform="matrix(0.05,0,0,0.05,29,0)" xlink:href="#F"/><use transform="matrix(0.05,0,0,0.05,34,0)" xlink:href="#B"/><use transform="matrix(0.05,0,0,0.05,44,0)" xlink:href="#O"/><use transform="matrix(0.05,0,0,0.05,58.95,0)" xlink:href="#O"/><use transform="matrix(0.05,0,0,0.05,73.9,0)" xlink:href="#D"/><use transform="matrix(0.05,0,0,0.05,77.85000000000001,0)" xlink:href="#K"/><use transform="matrix(0.05,0,0,0.05,87.85000000000001,0)" xlink:href="#L"/></g><path d="M84 4C-5 8 30-112 23-190h32v120c0 31 7 50 39 49 72-2 45-101 50-169h31l1 190h-30c-1-10 1-25-2-33-11 22-28 36-60 37" id="P"/><path d="M100-194c62-1 85 37 85 99 1 63-27 99-86 99S16-35 15-95c0-66 28-99 85-99zM99-20c44 1 53-31 53-75 0-43-8-75-51-75s-53 32-53 75 10 74 51 75" id="Q"/><g id="d"><use transform="matrix(0.05,0,0,0.05,0,0)" xlink:href="#J"/><use transform="matrix(0.05,0,0,0.05,10,0)" xlink:href="#P"/><use transform="matrix(0.05,0,0,0.05,20,0)" xlink:href="#F"/><use transform="matrix(0.05,0,0,0.05,25,0)" xlink:href="#Q"/><use transform="matrix(0.05,0,0,0.05,35,0)" xlink:href="#G"/><use transform="matrix(0.05,0,0,0.05,40.95,0)" xlink:href="#D"/><use transform="matrix(0.05,0,0,0.05,44.900000000000006,0)" xlink:href="#F"/></g><path d="M212-179c-10-28-35-45-73-45-59 0-87 40-87 99 0 60 29 101 89 101 43 0 62-24 78-52l27 14C228-24 195 4 139 4 59 4 22-46 18-125c-6-104 99-153 187-111 19 9 31 26 39 46" id="R"/><g id="e"><use transform="matrix(0.05,0,0,0.05,0,0)" xlink:href="#R"/><use transform="matrix(0.05,0,0,0.05,12.950000000000001,0)" xlink:href="#Q"/><use transform="matrix(0.05,0,0,0.05,22.950000000000003,0)" xlink:href="#K"/><use transform="matrix(0.05,0,0,0.05,32.95,0)" xlink:href="#F"/><use transform="matrix(0.05,0,0,0.05,37.95,0)" xlink:href="#J"/><use transform="matrix(0.05,0,0,0.05,47.95,0)" xlink:href="#D"/><use transform="matrix(0.05,0,0,0.05,51.900000000000006,0)" xlink:href="#K"/><use transform="matrix(0.05,0,0,0.05,61.900000000000006,0)" xlink:href="#B"/><use transform="matrix(0.05,0,0,0.05,71.9,0)" xlink:href="#G"/></g><path d="M106-169C34-169 62-67 57 0H25v-261h32l-1 103c12-21 28-36 61-36 89 0 53 116 60 194h-32v-121c2-32-8-49-39-48" id="S"/><g id="f"><use transform="matrix(0.05,0,0,0.05,0,0)" xlink:href="#R"/><use transform="matrix(0.05,0,0,0.05,12.950000000000001,0)" xlink:href="#S"/><use transform="matrix(0.05,0,0,0.05,22.950000000000003,0)" xlink:href="#J"/><use transform="matrix(0.05,0,0,0.05,32.95,0)" xlink:href="#P"/><use transform="matrix(0.05,0,0,0.05,42.95,0)" xlink:href="#E"/><use transform="matrix(0.05,0,0,0.05,47.6,0)" xlink:href="#E"/><use transform="matrix(0.05,0,0,0.05,52.6,0)" xlink:href="#B"/><use transform="matrix(0.05,0,0,0.05,62.6,0)" xlink:href="#P"/><use transform="matrix(0.05,0,0,0.05,72.6,0)" xlink:href="#G"/><use transform="matrix(0.05,0,0,0.05,78.55,0)" xlink:href="#H"/></g><path d="M143 0L79-87 56-68V0H24v-261h32v163l83-92h37l-77 82L181 0h-38" id="T"/><path d="M24-231v-30h32v30H24zM-9 49c24 4 33-6 33-30v-209h32V24c2 40-23 58-65 49V49" id="U"/><path d="M85-194c31 0 48 13 60 33l-1-100h32l1 261h-30c-2-10 0-23-3-31C134-8 116 4 85 4 32 4 16-35 15-94c0-66 23-100 70-100zm9 24c-40 0-46 34-46 75 0 40 6 74 45 74 42 0 51-32 51-76 0-42-9-74-50-73" id="V"/><g id="g"><use transform="matrix(0.05,0,0,0.05,0,0)" xlink:href="#M"/><use transform="matrix(0.05,0,0,0.05,9,0)" xlink:href="#B"/><use transform="matrix(0.05,0,0,0.05,19,0)" xlink:href="#G"/><use transform="matrix(0.05,0,0,0.05,24.95,0)" xlink:href="#F"/><use transform="matrix(0.05,0,0,0.05,29.950000000000003,0)" xlink:href="#G"/><use transform="matrix(0.05,0,0,0.05,35.9,0)" xlink:href="#B"/><use transform="matrix(0.05,0,0,0.05,45.9,0)" xlink:href="#T"/><use transform="matrix(0.05,0,0,0.05,54.900000000000006,0)" xlink:href="#F"/><use transform="matrix(0.05,0,0,0.05,59.900000000000006,0)" xlink:href="#D"/><use transform="matrix(0.05,0,0,0.05,63.85,0)" xlink:href="#U"/><use transform="matrix(0.05,0,0,0.05,67.8,0)" xlink:href="#V"/></g><path d="M140-251c81 0 123 46 123 126C263-46 219 4 140 4 59 4 17-45 17-125s42-126 123-126zm0 227c63 0 89-41 89-101s-29-99-89-99c-61 0-89 39-89 99S79-25 140-24" id="W"/><path d="M115-194c55 1 70 41 70 98S169 2 115 4C84 4 66-9 55-30l1 105H24l-1-265h31l2 30c10-21 28-34 59-34zm-8 174c40 0 45-34 45-75s-6-73-45-74c-42 0-51 32-51 76 0 43 10 73 51 73" id="X"/><path d="M9 0v-24l116-142H16v-24h144v24L44-24h123V0H9" id="Y"/><g id="h"><use transform="matrix(0.05,0,0,0.05,0,0)" xlink:href="#W"/><use transform="matrix(0.05,0,0,0.05,14,0)" xlink:href="#X"/><use transform="matrix(0.05,0,0,0.05,24,0)" xlink:href="#Y"/><use transform="matrix(0.05,0,0,0.05,33,0)" xlink:href="#Q"/><use transform="matrix(0.05,0,0,0.05,43,0)" xlink:href="#B"/><use transform="matrix(0.05,0,0,0.05,53,0)" xlink:href="#T"/><use transform="matrix(0.05,0,0,0.05,62,0)" xlink:href="#B"/><use transform="matrix(0.05,0,0,0.05,72,0)" xlink:href="#K"/></g><g id="i"><use transform="matrix(0.05,0,0,0.05,0,0)" xlink:href="#S"/><use transform="matrix(0.05,0,0,0.05,10,0)" xlink:href="#Q"/><use transform="matrix(0.05,0,0,0.05,20,0)" xlink:href="#B"/><use transform="matrix(0.05,0,0,0.05,30,0)" xlink:href="#M"/><use transform="matrix(0.05,0,0,0.05,39,0)" xlink:href="#B"/><use transform="matrix(0.05,0,0,0.05,49,0)" xlink:href="#B"/><use transform="matrix(0.05,0,0,0.05,59,0)" xlink:href="#C"/><use transform="matrix(0.05,0,0,0.05,62.95,0)" xlink:href="#S"/><use transform="matrix(0.05,0,0,0.05,72.95,0)" xlink:href="#B"/><use transform="matrix(0.05,0,0,0.05,82.95,0)" xlink:href="#D"/><use transform="matrix(0.05,0,0,0.05,86.9,0)" xlink:href="#V"/></g><g id="j"><use transform="matrix(0.05,0,0,0.05,0,0)" xlink:href="#N"/><use transform="matrix(0.05,0,0,0.05,10,0)" xlink:href="#J"/><use transform="matrix(0.05,0,0,0.05,20,0)" xlink:href="#L"/><use transform="matrix(0.05,0,0,0.05,30,0)" xlink:href="#J"/><use transform="matrix(0.05,0,0,0.05,40,0)" xlink:href="#L"/><use transform="matrix(0.05,0,0,0.05,50,0)" xlink:href="#B"/><use transform="matrix(0.05,0,0,0.05,60,0)" xlink:href="#G"/><use transform="matrix(0.05,0,0,0.05,65.95,0)" xlink:href="#P"/><use transform="matrix(0.05,0,0,0.05,75.95,0)" xlink:href="#D"/><use transform="matrix(0.05,0,0,0.05,79.9,0)" xlink:href="#O"/><use transform="matrix(0.05,0,0,0.05,94.85000000000001,0)" xlink:href="#F"/><use transform="matrix(0.05,0,0,0.05,99.85000000000001,0)" xlink:href="#B"/></g><g id="k"><use transform="matrix(0.05,0,0,0.05,0,0)" xlink:href="#N"/><use transform="matrix(0.05,0,0,0.05,10,0)" xlink:href="#B"/><use transform="matrix(0.05,0,0,0.05,20,0)" xlink:href="#K"/><use transform="matrix(0.05,0,0,0.05,30,0)" xlink:href="#Q"/><use transform="matrix(0.05,0,0,0.05,40,0)" xlink:href="#V"/><use transform="matrix(0.05,0,0,0.05,50,0)" xlink:href="#D"/><use transform="matrix(0.05,0,0,0.05,53.95,0)" xlink:href="#L"/><use transform="matrix(0.05,0,0,0.05,63.95,0)" xlink:href="#V"/><use transform="matrix(0.05,0,0,0.05,73.95,0)" xlink:href="#B"/></g><g id="l"><use transform="matrix(0.05,0,0,0.05,0,0)" xlink:href="#D"/><use transform="matrix(0.05,0,0,0.05,3.95,0)" xlink:href="#K"/><use transform="matrix(0.05,0,0,0.05,13.949999999999998,0)" xlink:href="#E"/><use transform="matrix(0.05,0,0,0.05,18.95,0)" xlink:href="#Q"/><use transform="matrix(0.05,0,0,0.05,28.950000000000003,0)" xlink:href="#G"/><use transform="matrix(0.05,0,0,0.05,34.9,0)" xlink:href="#O"/><use transform="matrix(0.05,0,0,0.05,49.85,0)" xlink:href="#J"/><use transform="matrix(0.05,0,0,0.05,59.85,0)" xlink:href="#F"/><use transform="matrix(0.05,0,0,0.05,64.85,0)" xlink:href="#D"/><use transform="matrix(0.05,0,0,0.05,68.8,0)" xlink:href="#B"/></g><path d="M233-177c-1 41-23 64-60 70L243 0h-38l-65-103H63V0H30v-248c88 3 205-21 203 71zM63-129c60-2 137 13 137-47 0-61-80-42-137-45v92" id="Z"/><g id="m"><use transform="matrix(0.05,0,0,0.05,0,0)" xlink:href="#Z"/><use transform="matrix(0.05,0,0,0.05,12.950000000000001,0)" xlink:href="#B"/><use transform="matrix(0.05,0,0,0.05,22.950000000000003,0)" xlink:href="#H"/><use transform="matrix(0.05,0,0,0.05,31.950000000000003,0)" xlink:href="#B"/><use transform="matrix(0.05,0,0,0.05,41.95,0)" xlink:href="#G"/><use transform="matrix(0.05,0,0,0.05,47.900000000000006,0)" xlink:href="#M"/><use transform="matrix(0.05,0,0,0.05,56.900000000000006,0)" xlink:href="#B"/><use transform="matrix(0.05,0,0,0.05,66.9,0)" xlink:href="#G"/><use transform="matrix(0.05,0,0,0.05,72.85000000000001,0)" xlink:href="#B"/><use transform="matrix(0.05,0,0,0.05,82.85000000000001,0)" xlink:href="#K"/></g><g id="n"><use transform="matrix(0.05,0,0,0.05,0,0)" xlink:href="#M"/><use transform="matrix(0.05,0,0,0.05,9,0)" xlink:href="#J"/><use transform="matrix(0.05,0,0,0.05,19,0)" xlink:href="#K"/></g><g id="o"><use transform="matrix(0.05,0,0,0.05,0,0)" xlink:href="#B"/><use transform="matrix(0.05,0,0,0.05,10,0)" xlink:href="#B"/><use transform="matrix(0.05,0,0,0.05,20,0)" xlink:href="#K"/></g><g id="p"><use transform="matrix(0.05,0,0,0.05,0,0)" xlink:href="#X"/><use transform="matrix(0.05,0,0,0.05,10,0)" xlink:href="#C"/><use transform="matrix(0.05,0,0,0.05,13.949999999999998,0)" xlink:href="#B"/><use transform="matrix(0.05,0,0,0.05,23.95,0)" xlink:href="#T"/></g><g id="q"><use transform="matrix(0.05,0,0,0.05,0,0)" xlink:href="#D"/><use transform="matrix(0.05,0,0,0.05,3.95,0)" xlink:href="#K"/></g><g id="r"><use transform="matrix(0.05,0,0,0.05,0,0)" xlink:href="#J"/><use transform="matrix(0.05,0,0,0.05,10,0)" xlink:href="#P"/><use transform="matrix(0.05,0,0,0.05,20,0)" xlink:href="#F"/><use transform="matrix(0.05,0,0,0.05,25,0)" xlink:href="#Q"/></g><path d="M18-100v-36l175-74v27L42-118l151 64v27" id="aa"/><path d="M96-169c-40 0-48 33-48 73s9 75 48 75c24 0 41-14 43-38l32 2c-6 37-31 61-74 61-59 0-76-41-82-99-10-93 101-131 147-64 4 7 5 14 7 22l-32 3c-4-21-16-35-41-35" id="ab"/><path d="M18-27v-27l151-64-151-65v-27l175 74v36" id="ac"/><g id="s"><use transform="matrix(0.05,0,0,0.05,0,0)" xlink:href="#aa"/><use transform="matrix(0.05,0,0,0.05,10.5,0)" xlink:href="#aa"/><use transform="matrix(0.05,0,0,0.05,21,0)" xlink:href="#D"/><use transform="matrix(0.05,0,0,0.05,24.95,0)" xlink:href="#K"/><use transform="matrix(0.05,0,0,0.05,34.95,0)" xlink:href="#ab"/><use transform="matrix(0.05,0,0,0.05,43.95,0)" xlink:href="#C"/><use transform="matrix(0.05,0,0,0.05,47.900000000000006,0)" xlink:href="#P"/><use transform="matrix(0.05,0,0,0.05,57.900000000000006,0)" xlink:href="#V"/><use transform="matrix(0.05,0,0,0.05,67.9,0)" xlink:href="#B"/><use transform="matrix(0.05,0,0,0.05,77.9,0)" xlink:href="#H"/><use transform="matrix(0.05,0,0,0.05,86.9,0)" xlink:href="#ac"/><use transform="matrix(0.05,0,0,0.05,97.4,0)" xlink:href="#ac"/></g><g id="t"><use transform="matrix(0.05,0,0,0.05,0,0)" xlink:href="#I"/><use transform="matrix(0.05,0,0,0.05,12,0)" xlink:href="#J"/><use transform="matrix(0.05,0,0,0.05,22,0)" xlink:href="#K"/><use transform="matrix(0.05,0,0,0.05,32,0)" xlink:href="#L"/><use transform="matrix(0.05,0,0,0.05,42,0)" xlink:href="#B"/><use transform="matrix(0.05,0,0,0.05,52,0)" xlink:href="#M"/><use transform="matrix(0.05,0,0,0.05,61,0)" xlink:href="#B"/><use transform="matrix(0.05,0,0,0.05,71,0)" xlink:href="#K"/></g><g id="u"><use transform="matrix(0.05,0,0,0.05,0,0)" xlink:href="#V"/><use transform="matrix(0.05,0,0,0.05,10,0)" xlink:href="#J"/><use transform="matrix(0.05,0,0,0.05,20,0)" xlink:href="#F"/></g><g id="v"><use transform="matrix(0.05,0,0,0.05,0,0)" xlink:href="#V"/><use transform="matrix(0.05,0,0,0.05,10,0)" xlink:href="#B"/></g><g id="w"><use transform="matrix(0.05,0,0,0.05,0,0)" xlink:href="#J"/><use transform="matrix(0.05,0,0,0.05,10,0)" xlink:href="#P"/><use transform="matrix(0.05,0,0,0.05,20,0)" xlink:href="#F"/><use transform="matrix(0.05,0,0,0.05,25,0)" xlink:href="#Q"/></g><g id="x"><use transform="matrix(0.05,0,0,0.05,0,0)" xlink:href="#M"/><use transform="matrix(0.05,0,0,0.05,9,0)" xlink:href="#Q"/><use transform="matrix(0.05,0,0,0.05,19,0)" xlink:href="#C"/></g><g id="y"><use transform="matrix(0.05,0,0,0.05,0,0)" xlink:href="#Y"/><use transform="matrix(0.05,0,0,0.05,9,0)" xlink:href="#D"/><use transform="matrix(0.05,0,0,0.05,12.949999999999998,0)" xlink:href="#F"/></g><path d="M185-189c-5-48-123-54-124 2 14 75 158 14 163 119 3 78-121 87-175 55-17-10-28-26-33-46l33-7c5 56 141 63 141-1 0-78-155-14-162-118-5-82 145-84 179-34 5 7 8 16 11 25" id="ad"/><path d="M206 0h-36l-40-164L89 0H53L-1-190h32L70-26l43-164h34l41 164 42-164h31" id="ae"/><g id="z"><use transform="matrix(0.05,0,0,0.05,0,0)" xlink:href="#ad"/><use transform="matrix(0.05,0,0,0.05,12,0)" xlink:href="#Q"/><use transform="matrix(0.05,0,0,0.05,22,0)" xlink:href="#E"/><use transform="matrix(0.05,0,0,0.05,27,0)" xlink:href="#F"/><use transform="matrix(0.05,0,0,0.05,32,0)" xlink:href="#ae"/><use transform="matrix(0.05,0,0,0.05,44.95,0)" xlink:href="#J"/><use transform="matrix(0.05,0,0,0.05,54.95,0)" xlink:href="#G"/><use transform="matrix(0.05,0,0,0.05,60.900000000000006,0)" xlink:href="#B"/></g></defs></g></svg>