<svg xmlns="http://www.w3.org/2000/svg" xmlns:xlink="http://www.w3.org/1999/xlink" xmlns:lucid="lucid" width="1208.67" height="1385.11"><g transform="translate(-380 -184.88887197883105)" lucid:page-tab-id="0_0"><path d="M0 0h1760v2656H0z" fill="#fff"/><path d="M1328.67 204.9h240v60h-240z" fill="none"/><path d="M400 340h200v80H400z" stroke="#000" stroke-width="2" fill="#fff"/><use xlink:href="#a" transform="matrix(1,0,0,1,405,345) translate(56.525 38.6)"/><path d="M1160 340h200v80h-200z" stroke="#000" stroke-width="2" fill="#fff"/><use xlink:href="#b" transform="matrix(1,0,0,1,1165,345) translate(72.075 38.6)"/><path d="M1260 421v1119" fill="none"/><path d="M1260 421v10.08m0 10.08v20.16m0 10.1v20.15m0 10.08v20.16m0 10.1v20.15m0 10.1v20.15m0 10.08v20.16m0 10.08v20.16m0 10.08v20.17m0 10.08v20.17m0 10.08v20.16m0 10.1v20.16m0 10.08V794m0 10.08v20.16m0 10.08v20.17m0 10.07v20.16m0 10.08v20.17m0 10.08v20.17m0 10.08v20.16m0 10.08v20.16m0 10.08v20.17m0 10.08v20.16m0 10.07v20.16m0 10.08v20.18m0 10.08v20.16m0 10.08v20.16m0 10.08v20.17m0 10.1v20.15m0 10.08v20.16m0 10.07v20.17m0 10.08v20.16m0 10.08v20.16m0 10.08v20.16m0 10.1v20.15m0 10.1v20.15m0 10.08v20.16m0 10.08v20.16m0 10.08V1540" stroke="#000" stroke-width="2" fill="none"/><path d="M1261 421h-2v-1h2z"/><path d="M500 421v1138" fill="none"/><path d="M500 421v9.98m0 9.98v19.97m0 9.98v19.98m0 9.98v19.96m0 10v19.95m0 9.98v19.97m0 9.98v19.97m0 9.98v19.96m0 10v19.96m0 9.98v19.97m0 10v19.96m0 9.98v19.96m0 10v19.95m0 9.98v19.97m0 9.98v19.97m0 9.98v19.96m0 9.98v19.96m0 9.98v19.97m0 9.97v19.97m0 9.98v19.96m0 9.98v19.97m0 9.98v19.98m0 9.98v19.96m0 10v19.95m0 9.98v19.97m0 9.98v19.97m0 9.98v19.96m0 10v19.96m0 9.98v19.97m0 10v19.96m0 9.98v19.96m0 10v19.95m0 9.98v19.97m0 9.98v19.97m0 9.98v19.96m0 9.98v19.96m0 9.98v19.97m0 9.97v19.97m0 9.98v9.98" stroke="#000" stroke-width="2" fill="none"/><path d="M501 421h-2v-1h2z"/><path d="M780 340h200v80H780z" stroke="#000" stroke-width="2" fill="#fff"/><use xlink:href="#c" transform="matrix(1,0,0,1,785,345) translate(62.725 38.6)"/><path d="M880 421v1119" fill="none"/><path d="M880 421v10.08m0 10.08v20.16m0 10.1v20.15m0 10.08v20.16m0 10.1v20.15m0 10.1v20.15m0 10.08v20.16m0 10.08v20.16m0 10.08v20.17m0 10.08v20.17m0 10.08v20.16m0 10.1v20.16m0 10.08V794m0 10.08v20.16m0 10.08v20.17m0 10.07v20.16m0 10.08v20.17m0 10.08v20.17m0 10.08v20.16m0 10.08v20.16m0 10.08v20.17m0 10.08v20.16m0 10.07v20.16m0 10.08v20.18m0 10.08v20.16m0 10.08v20.16m0 10.08v20.17m0 10.1v20.15m0 10.08v20.16m0 10.07v20.17m0 10.08v20.16m0 10.08v20.16m0 10.08v20.16m0 10.1v20.15m0 10.1v20.15m0 10.08v20.16m0 10.08v20.16m0 10.08V1540" stroke="#000" stroke-width="2" fill="none"/><path d="M881 421h-2v-1h2z"/><path d="M880 461.33h190v-.22h171.76" stroke="#000" stroke-width="2" fill="none"/><path d="M1256.76 461.1l-14.26 4.65v-9.27z" stroke="#000" stroke-width="2"/><path d="M960 420h240v40H960z" stroke="#000" stroke-opacity="0" stroke-width="2" fill="#fff" fill-opacity="0"/><use xlink:href="#d" transform="matrix(1,0,0,1,965,425) translate(26.57499999999999 18.6)"/><use xlink:href="#e" transform="matrix(1,0,0,1,965,425) translate(66.57499999999999 18.6)"/><use xlink:href="#f" transform="matrix(1,0,0,1,965,425) translate(170.475 18.6)"/><path d="M1260 533.1h-190v-.2H898.24" stroke="#000" stroke-width="2" fill="none"/><path d="M883.24 532.9l14.26-4.65v9.27z" stroke="#000" stroke-width="2"/><path d="M960 488h240v40H960z" stroke="#000" stroke-opacity="0" stroke-width="2" fill="#fff" fill-opacity="0"/><use xlink:href="#g" transform="matrix(1,0,0,1,965,493) translate(46.675 18.6)"/><use xlink:href="#h" transform="matrix(1,0,0,1,965,493) translate(80.57499999999999 18.6)"/><use xlink:href="#i" transform="matrix(1,0,0,1,965,493) translate(105.57499999999999 18.6)"/><use xlink:href="#j" transform="matrix(1,0,0,1,965,493) translate(143.425 18.6)"/><path d="M880 605.1H690v-.2H518.24" stroke="#000" stroke-width="2" fill="none"/><path d="M503.24 604.9l14.26-4.65v9.27z" stroke="#000" stroke-width="2"/><path d="M580 560h240v40H580z" stroke="#000" stroke-opacity="0" stroke-width="2" fill="#fff" fill-opacity="0"/><use xlink:href="#k" transform="matrix(1,0,0,1,585,565) translate(21.5 18.6)"/><use xlink:href="#l" transform="matrix(1,0,0,1,585,565) translate(73.8 18.6)"/><use xlink:href="#m" transform="matrix(1,0,0,1,585,565) translate(118.69999999999999 18.6)"/><use xlink:href="#n" transform="matrix(1,0,0,1,585,565) translate(141.6 18.6)"/><use xlink:href="#o" transform="matrix(1,0,0,1,585,565) translate(188.5 18.6)"/><path d="M500 681.33h190v-.22h171.76" stroke="#000" stroke-width="2" fill="none"/><path d="M876.76 681.1l-14.26 4.65v-9.27z" stroke="#000" stroke-width="2"/><path d="M580 640h240v40H580z" stroke="#000" stroke-opacity="0" stroke-width="2" fill="#fff" fill-opacity="0"/><g><use xlink:href="#p" transform="matrix(1,0,0,1,585,645) translate(36.175 18.6)"/><use xlink:href="#l" transform="matrix(1,0,0,1,585,645) translate(84.125 18.6)"/><use xlink:href="#m" transform="matrix(1,0,0,1,585,645) translate(129.02499999999998 18.6)"/><use xlink:href="#q" transform="matrix(1,0,0,1,585,645) translate(151.925 18.6)"/></g><path d="M880 741.33h190v-.22h171.76" stroke="#000" stroke-width="2" fill="none"/><path d="M1256.76 741.1l-14.26 4.65v-9.27z" stroke="#000" stroke-width="2"/><path d="M960 700h240v40H960z" stroke="#000" stroke-opacity="0" stroke-width="2" fill="#fff" fill-opacity="0"/><g><use xlink:href="#d" transform="matrix(1,0,0,1,965,705) translate(56.074999999999996 18.6)"/><use xlink:href="#l" transform="matrix(1,0,0,1,965,705) translate(96.07499999999999 18.6)"/><use xlink:href="#f" transform="matrix(1,0,0,1,965,705) translate(140.975 18.6)"/></g><path d="M760 260h240v60H760z" stroke="#000" stroke-opacity="0" stroke-width="2" fill="#fff" fill-opacity="0"/><g><use xlink:href="#r" transform="matrix(1,0,0,1,765,265) translate(25.51851851851852 30.333333333333336)"/><use xlink:href="#s" transform="matrix(1,0,0,1,765,265) translate(145.37037037037038 30.333333333333336)"/></g><defs><path d="M30-248c118-7 216 8 213 122C240-48 200 0 122 0H30v-248zM63-27c89 8 146-16 146-99s-60-101-146-95v194" id="t"/><path d="M141-36C126-15 110 5 73 4 37 3 15-17 15-53c-1-64 63-63 125-63 3-35-9-54-41-54-24 1-41 7-42 31l-33-3c5-37 33-52 76-52 45 0 72 20 72 64v82c-1 20 7 32 28 27v20c-31 9-61-2-59-35zM48-53c0 20 12 33 32 33 41-3 63-29 60-74-43 2-92-5-92 41" id="u"/><path d="M59-47c-2 24 18 29 38 22v24C64 9 27 4 27-40v-127H5v-23h24l9-43h21v43h35v23H59v120" id="v"/><path d="M115-194c53 0 69 39 70 98 0 66-23 100-70 100C84 3 66-7 56-30L54 0H23l1-261h32v101c10-23 28-34 59-34zm-8 174c40 0 45-34 45-75 0-40-5-75-45-74-42 0-51 32-51 76 0 43 10 73 51 73" id="w"/><path d="M135-143c-3-34-86-38-87 0 15 53 115 12 119 90S17 21 10-45l28-5c4 36 97 45 98 0-10-56-113-15-118-90-4-57 82-63 122-42 12 7 21 19 24 35" id="x"/><path d="M100-194c63 0 86 42 84 106H49c0 40 14 67 53 68 26 1 43-12 49-29l28 8c-11 28-37 45-77 45C44 4 14-33 15-96c1-61 26-98 85-98zm52 81c6-60-76-77-97-28-3 7-6 17-6 28h103" id="y"/><g id="a"><use transform="matrix(0.05,0,0,0.05,0,0)" xlink:href="#t"/><use transform="matrix(0.05,0,0,0.05,12.950000000000001,0)" xlink:href="#u"/><use transform="matrix(0.05,0,0,0.05,22.950000000000003,0)" xlink:href="#v"/><use transform="matrix(0.05,0,0,0.05,27.950000000000003,0)" xlink:href="#u"/><use transform="matrix(0.05,0,0,0.05,37.95,0)" xlink:href="#w"/><use transform="matrix(0.05,0,0,0.05,47.95,0)" xlink:href="#u"/><use transform="matrix(0.05,0,0,0.05,57.95,0)" xlink:href="#x"/><use transform="matrix(0.05,0,0,0.05,66.95,0)" xlink:href="#y"/></g><path d="M212-179c-10-28-35-45-73-45-59 0-87 40-87 99 0 60 29 101 89 101 43 0 62-24 78-52l27 14C228-24 195 4 139 4 59 4 22-46 18-125c-6-104 99-153 187-111 19 9 31 26 39 46" id="z"/><path d="M24 0v-261h32V0H24" id="A"/><path d="M24-231v-30h32v30H24zM24 0v-190h32V0H24" id="B"/><path d="M117-194c89-4 53 116 60 194h-32v-121c0-31-8-49-39-48C34-167 62-67 57 0H25l-1-190h30c1 10-1 24 2 32 11-22 29-35 61-36" id="C"/><g id="b"><use transform="matrix(0.05,0,0,0.05,0,0)" xlink:href="#z"/><use transform="matrix(0.05,0,0,0.05,12.950000000000001,0)" xlink:href="#A"/><use transform="matrix(0.05,0,0,0.05,16.900000000000002,0)" xlink:href="#B"/><use transform="matrix(0.05,0,0,0.05,20.85,0)" xlink:href="#y"/><use transform="matrix(0.05,0,0,0.05,30.85,0)" xlink:href="#C"/><use transform="matrix(0.05,0,0,0.05,40.85,0)" xlink:href="#v"/></g><path d="M266 0h-40l-56-210L115 0H75L2-248h35L96-30l15-64 43-154h32l59 218 59-218h35" id="D"/><g id="c"><use transform="matrix(0.05,0,0,0.05,0,0)" xlink:href="#D"/><use transform="matrix(0.05,0,0,0.05,16.599999999999998,0)" xlink:href="#y"/><use transform="matrix(0.05,0,0,0.05,26.599999999999994,0)" xlink:href="#w"/><use transform="matrix(0.05,0,0,0.05,36.599999999999994,0)" xlink:href="#x"/><use transform="matrix(0.05,0,0,0.05,45.599999999999994,0)" xlink:href="#B"/><use transform="matrix(0.05,0,0,0.05,49.55,0)" xlink:href="#v"/><use transform="matrix(0.05,0,0,0.05,54.54999999999999,0)" xlink:href="#y"/></g><path d="M30 0v-248h33v221h125V0H30" id="E"/><g id="d"><use transform="matrix(0.05,0,0,0.05,0,0)" xlink:href="#E"/><use transform="matrix(0.05,0,0,0.05,10,0)" xlink:href="#u"/><use transform="matrix(0.05,0,0,0.05,20,0)" xlink:href="#u"/><use transform="matrix(0.05,0,0,0.05,30,0)" xlink:href="#v"/></g><path d="M106-169C34-169 62-67 57 0H25v-261h32l-1 103c12-21 28-36 61-36 89 0 53 116 60 194h-32v-121c2-32-8-49-39-48" id="F"/><path d="M100-194c62-1 85 37 85 99 1 63-27 99-86 99S16-35 15-95c0-66 28-99 85-99zM99-20c44 1 53-31 53-75 0-43-8-75-51-75s-53 32-53 75 10 74 51 75" id="G"/><path d="M210-169c-67 3-38 105-44 169h-31v-121c0-29-5-50-35-48C34-165 62-65 56 0H25l-1-190h30c1 10-1 24 2 32 10-44 99-50 107 0 11-21 27-35 58-36 85-2 47 119 55 194h-31v-121c0-29-5-49-35-48" id="H"/><path d="M115-194c55 1 70 41 70 98S169 2 115 4C84 4 66-9 55-30l1 105H24l-1-265h31l2 30c10-21 28-34 59-34zm-8 174c40 0 45-34 45-75s-6-73-45-74c-42 0-51 32-51 76 0 43 10 73 51 73" id="I"/><path d="M177-190C167-65 218 103 67 71c-23-6-38-20-44-43l32-5c15 47 100 32 89-28v-30C133-14 115 1 83 1 29 1 15-40 15-95c0-56 16-97 71-98 29-1 48 16 59 35 1-10 0-23 2-32h30zM94-22c36 0 50-32 50-73 0-42-14-75-50-75-39 0-46 34-46 75s6 73 46 73" id="J"/><g id="e"><use transform="matrix(0.05,0,0,0.05,0,0)" xlink:href="#F"/><use transform="matrix(0.05,0,0,0.05,10,0)" xlink:href="#G"/><use transform="matrix(0.05,0,0,0.05,20,0)" xlink:href="#H"/><use transform="matrix(0.05,0,0,0.05,34.95,0)" xlink:href="#y"/><use transform="matrix(0.05,0,0,0.05,44.95,0)" xlink:href="#I"/><use transform="matrix(0.05,0,0,0.05,54.95,0)" xlink:href="#u"/><use transform="matrix(0.05,0,0,0.05,64.95,0)" xlink:href="#J"/><use transform="matrix(0.05,0,0,0.05,74.95,0)" xlink:href="#B"/><use transform="matrix(0.05,0,0,0.05,78.9,0)" xlink:href="#C"/><use transform="matrix(0.05,0,0,0.05,88.9,0)" xlink:href="#u"/></g><path d="M9 0v-24l116-142H16v-24h144v24L44-24h123V0H9" id="K"/><g id="f"><use transform="matrix(0.05,0,0,0.05,0,0)" xlink:href="#K"/><use transform="matrix(0.05,0,0,0.05,9,0)" xlink:href="#B"/><use transform="matrix(0.05,0,0,0.05,12.949999999999998,0)" xlink:href="#y"/><use transform="matrix(0.05,0,0,0.05,22.95,0)" xlink:href="#C"/></g><path d="M194 0L95-120 63-95V0H30v-248h33v124l119-124h40L117-140 236 0h-42" id="L"/><path d="M143 0L79-87 56-68V0H24v-261h32v163l83-92h37l-77 82L181 0h-38" id="M"/><g id="g"><use transform="matrix(0.05,0,0,0.05,0,0)" xlink:href="#L"/><use transform="matrix(0.05,0,0,0.05,12,0)" xlink:href="#A"/><use transform="matrix(0.05,0,0,0.05,15.949999999999998,0)" xlink:href="#B"/><use transform="matrix(0.05,0,0,0.05,19.9,0)" xlink:href="#M"/></g><g id="h"><use transform="matrix(0.05,0,0,0.05,0,0)" xlink:href="#G"/><use transform="matrix(0.05,0,0,0.05,10,0)" xlink:href="#I"/></g><path d="M24-231v-30h32v30H24zM-9 49c24 4 33-6 33-30v-209h32V24c2 40-23 58-65 49V49" id="N"/><g id="i"><use transform="matrix(0.05,0,0,0.05,0,0)" xlink:href="#H"/><use transform="matrix(0.05,0,0,0.05,14.950000000000001,0)" xlink:href="#B"/><use transform="matrix(0.05,0,0,0.05,18.900000000000002,0)" xlink:href="#N"/><use transform="matrix(0.05,0,0,0.05,22.85,0)" xlink:href="#C"/></g><path d="M114-163C36-179 61-72 57 0H25l-1-190h30c1 12-1 29 2 39 6-27 23-49 58-41v29" id="O"/><g id="j"><use transform="matrix(0.05,0,0,0.05,0,0)" xlink:href="#O"/><use transform="matrix(0.05,0,0,0.05,5.95,0)" xlink:href="#B"/><use transform="matrix(0.05,0,0,0.05,9.9,0)" xlink:href="#v"/><use transform="matrix(0.05,0,0,0.05,14.9,0)" xlink:href="#v"/><use transform="matrix(0.05,0,0,0.05,19.9,0)" xlink:href="#y"/><use transform="matrix(0.05,0,0,0.05,29.899999999999995,0)" xlink:href="#C"/></g><path d="M137 0h-34L2-248h35l83 218 83-218h36" id="P"/><g id="k"><use transform="matrix(0.05,0,0,0.05,0,0)" xlink:href="#P"/><use transform="matrix(0.05,0,0,0.05,11.35,0)" xlink:href="#O"/><use transform="matrix(0.05,0,0,0.05,17.3,0)" xlink:href="#u"/><use transform="matrix(0.05,0,0,0.05,27.3,0)" xlink:href="#u"/><use transform="matrix(0.05,0,0,0.05,37.3,0)" xlink:href="#J"/></g><g id="l"><use transform="matrix(0.05,0,0,0.05,0,0)" xlink:href="#O"/><use transform="matrix(0.05,0,0,0.05,5.95,0)" xlink:href="#B"/><use transform="matrix(0.05,0,0,0.05,9.9,0)" xlink:href="#v"/><use transform="matrix(0.05,0,0,0.05,14.9,0)" xlink:href="#v"/><use transform="matrix(0.05,0,0,0.05,19.9,0)" xlink:href="#y"/><use transform="matrix(0.05,0,0,0.05,29.899999999999995,0)" xlink:href="#C"/></g><g id="m"><use transform="matrix(0.05,0,0,0.05,0,0)" xlink:href="#w"/><use transform="matrix(0.05,0,0,0.05,10,0)" xlink:href="#B"/><use transform="matrix(0.05,0,0,0.05,13.949999999999998,0)" xlink:href="#N"/></g><path d="M96-169c-40 0-48 33-48 73s9 75 48 75c24 0 41-14 43-38l32 2c-6 37-31 61-74 61-59 0-76-41-82-99-10-93 101-131 147-64 4 7 5 14 7 22l-32 3c-4-21-16-35-41-35" id="Q"/><g id="n"><use transform="matrix(0.05,0,0,0.05,0,0)" xlink:href="#Q"/><use transform="matrix(0.05,0,0,0.05,9,0)" xlink:href="#A"/><use transform="matrix(0.05,0,0,0.05,12.949999999999998,0)" xlink:href="#B"/><use transform="matrix(0.05,0,0,0.05,16.9,0)" xlink:href="#y"/><use transform="matrix(0.05,0,0,0.05,26.899999999999995,0)" xlink:href="#C"/><use transform="matrix(0.05,0,0,0.05,36.9,0)" xlink:href="#v"/></g><g id="o"><use transform="matrix(0.05,0,0,0.05,0,0)" xlink:href="#G"/><use transform="matrix(0.05,0,0,0.05,10,0)" xlink:href="#I"/></g><path d="M185-189c-5-48-123-54-124 2 14 75 158 14 163 119 3 78-121 87-175 55-17-10-28-26-33-46l33-7c5 56 141 63 141-1 0-78-155-14-162-118-5-82 145-84 179-34 5 7 8 16 11 25" id="R"/><path d="M84 4C-5 8 30-112 23-190h32v120c0 31 7 50 39 49 72-2 45-101 50-169h31l1 190h-30c-1-10 1-25-2-33-11 22-28 36-60 37" id="S"/><g id="p"><use transform="matrix(0.05,0,0,0.05,0,0)" xlink:href="#R"/><use transform="matrix(0.05,0,0,0.05,12,0)" xlink:href="#v"/><use transform="matrix(0.05,0,0,0.05,17,0)" xlink:href="#S"/><use transform="matrix(0.05,0,0,0.05,27,0)" xlink:href="#S"/><use transform="matrix(0.05,0,0,0.05,37,0)" xlink:href="#O"/></g><g id="q"><use transform="matrix(0.05,0,0,0.05,0,0)" xlink:href="#Q"/><use transform="matrix(0.05,0,0,0.05,9,0)" xlink:href="#A"/><use transform="matrix(0.05,0,0,0.05,12.949999999999998,0)" xlink:href="#B"/><use transform="matrix(0.05,0,0,0.05,16.9,0)" xlink:href="#y"/><use transform="matrix(0.05,0,0,0.05,26.899999999999995,0)" xlink:href="#C"/><use transform="matrix(0.05,0,0,0.05,36.9,0)" xlink:href="#v"/></g><path d="M140-251c81 0 123 46 123 126C263-46 219 4 140 4 59 4 17-45 17-125s42-126 123-126zm0 227c63 0 89-41 89-101s-29-99-89-99c-61 0-89 39-89 99S79-25 140-24" id="T"/><path d="M108 0H70L1-190h34L89-25l56-165h34" id="U"/><g id="r"><use transform="matrix(0.07407407407407408,0,0,0.07407407407407408,0,0)" xlink:href="#T"/><use transform="matrix(0.07407407407407408,0,0,0.07407407407407408,20.740740740740744,0)" xlink:href="#U"/><use transform="matrix(0.07407407407407408,0,0,0.07407407407407408,34.074074074074076,0)" xlink:href="#y"/><use transform="matrix(0.07407407407407408,0,0,0.07407407407407408,48.88888888888889,0)" xlink:href="#O"/><use transform="matrix(0.07407407407407408,0,0,0.07407407407407408,57.70370370370371,0)" xlink:href="#K"/><use transform="matrix(0.07407407407407408,0,0,0.07407407407407408,71.03703703703704,0)" xlink:href="#B"/><use transform="matrix(0.07407407407407408,0,0,0.07407407407407408,76.88888888888889,0)" xlink:href="#Q"/><use transform="matrix(0.07407407407407408,0,0,0.07407407407407408,90.22222222222223,0)" xlink:href="#F"/><use transform="matrix(0.07407407407407408,0,0,0.07407407407407408,105.03703703703704,0)" xlink:href="#v"/></g><g id="s"><use transform="matrix(0.07407407407407408,0,0,0.07407407407407408,0,0)" xlink:href="#O"/><use transform="matrix(0.07407407407407408,0,0,0.07407407407407408,8.814814814814817,0)" xlink:href="#B"/><use transform="matrix(0.07407407407407408,0,0,0.07407407407407408,14.666666666666668,0)" xlink:href="#v"/><use transform="matrix(0.07407407407407408,0,0,0.07407407407407408,22.074074074074076,0)" xlink:href="#v"/><use transform="matrix(0.07407407407407408,0,0,0.07407407407407408,29.481481481481485,0)" xlink:href="#y"/><use transform="matrix(0.07407407407407408,0,0,0.07407407407407408,44.296296296296305,0)" xlink:href="#C"/></g></defs></g></svg>