<svg xmlns="http://www.w3.org/2000/svg" xmlns:xlink="http://www.w3.org/1999/xlink" xmlns:lucid="lucid" width="1000" height="1310"><g transform="translate(-200 20)" lucid:page-tab-id="0_0"><path d="M0 0h1760v1360H0z" fill="#fff"/><path d="M220 60h200v80H220z" stroke="#000" stroke-width="2" fill="#fff"/><use xlink:href="#a" transform="matrix(1,0,0,1,225,65) translate(56.525 38.6)"/><path d="M980 60h200v80H980z" stroke="#000" stroke-width="2" fill="#fff"/><use xlink:href="#b" transform="matrix(1,0,0,1,985,65) translate(72.075 38.6)"/><path d="M1080 141v1119" fill="none"/><path d="M1080 141v10.08m0 10.08v20.16m0 10.1v20.15m0 10.08v20.16m0 10.1v20.15m0 10.1v20.15m0 10.08v20.16m0 10.08v20.16m0 10.08v20.17m0 10.08v20.17m0 10.08v20.16m0 10.1v20.16m0 10.08V514m0 10.08v20.16m0 10.08v20.17m0 10.07v20.16m0 10.08v20.17m0 10.08v20.17m0 10.08v20.16m0 10.08v20.16m0 10.08v20.17m0 10.08v20.16m0 10.07v20.16m0 10.08v20.18m0 10.08v20.16m0 10.08v20.16m0 10.08v20.17m0 10.1v20.15m0 10.08v20.16m0 10.07v20.17m0 10.08v20.16m0 10.08v20.16m0 10.08v20.16m0 10.1v20.15m0 10.1v20.15m0 10.08v20.16m0 10.08v20.16m0 10.08V1260" stroke="#000" stroke-width="2" fill="none"/><path d="M1081 141h-2v-1h2z"/><path d="M320 141v1138" fill="none"/><path d="M320 141v9.98m0 9.98v19.97m0 9.98v19.98m0 9.98v19.96m0 10v19.95m0 9.98v19.97m0 9.98v19.97m0 9.98v19.96m0 10v19.96m0 9.98v19.97m0 10v19.96m0 9.98v19.96m0 10v19.95m0 9.98v19.97m0 9.98v19.97m0 9.98v19.96m0 9.98v19.96m0 9.98v19.97m0 9.97v19.97m0 9.98v19.96m0 9.98v19.97m0 9.98v19.98m0 9.98v19.96m0 10v19.95m0 9.98v19.97m0 9.98v19.97m0 9.98v19.96m0 10v19.96m0 9.98v19.97m0 10v19.96m0 9.98v19.96m0 10v19.95m0 9.98v19.97m0 9.98v19.97m0 9.98v19.96m0 9.98v19.96m0 9.98v19.97m0 9.97v19.97m0 9.98v9.98" stroke="#000" stroke-width="2" fill="none"/><path d="M321 141h-2v-1h2z"/><path d="M600 60h200v80H600z" stroke="#000" stroke-width="2" fill="#fff"/><use xlink:href="#c" transform="matrix(1,0,0,1,605,65) translate(62.725 38.6)"/><path d="M700 141v1119" fill="none"/><path d="M700 141v10.08m0 10.08v20.16m0 10.1v20.15m0 10.08v20.16m0 10.1v20.15m0 10.1v20.15m0 10.08v20.16m0 10.08v20.16m0 10.08v20.17m0 10.08v20.17m0 10.08v20.16m0 10.1v20.16m0 10.08V514m0 10.08v20.16m0 10.08v20.17m0 10.07v20.16m0 10.08v20.17m0 10.08v20.17m0 10.08v20.16m0 10.08v20.16m0 10.08v20.17m0 10.08v20.16m0 10.07v20.16m0 10.08v20.18m0 10.08v20.16m0 10.08v20.16m0 10.08v20.17m0 10.1v20.15m0 10.08v20.16m0 10.07v20.17m0 10.08v20.16m0 10.08v20.16m0 10.08v20.16m0 10.1v20.15m0 10.1v20.15m0 10.08v20.16m0 10.08v20.16m0 10.08V1260" stroke="#000" stroke-width="2" fill="none"/><path d="M701 141h-2v-1h2z"/><path d="M780 169.5h240v53.2H780z" stroke="#000" stroke-opacity="0" stroke-width="2" fill="#fff" fill-opacity="0"/><use xlink:href="#d" transform="matrix(1,0,0,1,785,174.50000000000003) translate(26.57499999999999 25.6)"/><use xlink:href="#e" transform="matrix(1,0,0,1,785,174.50000000000003) translate(66.57499999999999 25.6)"/><use xlink:href="#f" transform="matrix(1,0,0,1,785,174.50000000000003) translate(170.475 25.6)"/><path d="M700 227.94h190v-.22h171.76" stroke="#000" stroke-width="2" fill="none"/><path d="M1076.76 227.72l-14.26 4.64v-9.28z" stroke="#000" stroke-width="2"/><path d="M780 258.8h240V312H780z" stroke="#000" stroke-opacity="0" stroke-width="2" fill="#fff" fill-opacity="0"/><path d="M780 252.2h240v53.2H780z" stroke="#000" stroke-opacity="0" stroke-width="2" fill="#fff" fill-opacity="0"/><use xlink:href="#g" transform="matrix(1,0,0,1,785,257.20000000000005) translate(33.625 25.6)"/><use xlink:href="#h" transform="matrix(1,0,0,1,785,257.20000000000005) translate(67.525 25.6)"/><use xlink:href="#i" transform="matrix(1,0,0,1,785,257.20000000000005) translate(92.525 25.6)"/><use xlink:href="#j" transform="matrix(1,0,0,1,785,257.20000000000005) translate(112.425 25.6)"/><path d="M1080 301.18H890v-.22H718.24" stroke="#000" stroke-width="2" fill="none"/><path d="M703.24 300.96l14.26-4.64v9.27z" stroke="#000" stroke-width="2"/><path d="M780 340h240v53.2H780z" stroke="#000" stroke-opacity="0" stroke-width="2" fill="#fff" fill-opacity="0"/><use xlink:href="#k" transform="matrix(1,0,0,1,785,345) translate(7.375 14.799999999999999)"/><use xlink:href="#l" transform="matrix(1,0,0,1,785,345) translate(59.675 14.799999999999999)"/><use xlink:href="#m" transform="matrix(1,0,0,1,785,345) translate(89.625 14.799999999999999)"/><use xlink:href="#n" transform="matrix(1,0,0,1,785,345) translate(119.625 14.799999999999999)"/><use xlink:href="#o" transform="matrix(1,0,0,1,785,345) translate(193.625 14.799999999999999)"/><use xlink:href="#p" transform="matrix(1,0,0,1,785,345) translate(44.525000000000006 36.4)"/><use xlink:href="#q" transform="matrix(1,0,0,1,785,345) translate(122.47500000000001 36.4)"/><path d="M700 398.44h190v-.22h171.76" stroke="#000" stroke-width="2" fill="none"/><path d="M1076.76 398.22l-14.26 4.64v-9.28z" stroke="#000" stroke-width="2"/><path d="M780 446.6h240v53.2H780z" stroke="#000" stroke-opacity="0" stroke-width="2" fill="#fff" fill-opacity="0"/><path d="M780 440h240v53.2H780z" stroke="#000" stroke-opacity="0" stroke-width="2" fill="#fff" fill-opacity="0"/><use xlink:href="#g" transform="matrix(1,0,0,1,785,445) translate(51.05 25.6)"/><use xlink:href="#h" transform="matrix(1,0,0,1,785,445) translate(84.94999999999999 25.6)"/><use xlink:href="#r" transform="matrix(1,0,0,1,785,445) translate(109.94999999999999 25.6)"/><path d="M1080 488.98H890v-.22H718.24" stroke="#000" stroke-width="2" fill="none"/><path d="M703.24 488.76l14.26-4.64v9.27z" stroke="#000" stroke-width="2"/><path d="M700 580H338.24" stroke="#000" stroke-width="2" fill="none"/><path d="M323.24 580l14.26-4.64v9.28z" stroke="#000" stroke-width="2"/><path d="M400 520h240v53.2H400z" stroke="#000" stroke-opacity="0" stroke-width="2" fill="#fff" fill-opacity="0"/><use xlink:href="#k" transform="matrix(1,0,0,1,405,525) translate(10.875 25.6)"/><use xlink:href="#l" transform="matrix(1,0,0,1,405,525) translate(63.175 25.6)"/><use xlink:href="#s" transform="matrix(1,0,0,1,405,525) translate(93.125 25.6)"/><use xlink:href="#t" transform="matrix(1,0,0,1,405,525) translate(161.125 25.6)"/><path d="M400 600h240v53.2H400z" stroke="#000" stroke-opacity="0" stroke-width="2" fill="#fff" fill-opacity="0"/><use xlink:href="#u" transform="matrix(1,0,0,1,405,605) translate(18.025000000000006 25.6)"/><use xlink:href="#s" transform="matrix(1,0,0,1,405,605) translate(65.97500000000001 25.6)"/><use xlink:href="#v" transform="matrix(1,0,0,1,405,605) translate(133.97500000000002 25.6)"/><path d="M320 658.44h190v-.22h171.76" stroke="#000" stroke-width="2" fill="none"/><path d="M696.76 658.22l-14.26 4.64v-9.28z" stroke="#000" stroke-width="2"/><path d="M780 680h240v53.2H780z" stroke="#000" stroke-opacity="0" stroke-width="2" fill="#fff" fill-opacity="0"/><use xlink:href="#k" transform="matrix(1,0,0,1,785,685) translate(14.875 25.6)"/><use xlink:href="#l" transform="matrix(1,0,0,1,785,685) translate(67.175 25.6)"/><use xlink:href="#w" transform="matrix(1,0,0,1,785,685) translate(97.125 25.6)"/><use xlink:href="#v" transform="matrix(1,0,0,1,785,685) translate(137.125 25.6)"/><path d="M700 738.44h190v-.22h171.76" stroke="#000" stroke-width="2" fill="none"/><path d="M1076.76 738.22l-14.26 4.64v-9.28z" stroke="#000" stroke-width="2"/><path d="M780 766.6h240v53.2H780z" stroke="#000" stroke-opacity="0" stroke-width="2" fill="#fff" fill-opacity="0"/><path d="M780 760h240v53.2H780z" stroke="#000" stroke-opacity="0" stroke-width="2" fill="#fff" fill-opacity="0"/><use xlink:href="#x" transform="matrix(1,0,0,1,785,765) translate(35.55000000000001 25.6)"/><use xlink:href="#w" transform="matrix(1,0,0,1,785,765) translate(77.50000000000001 25.6)"/><use xlink:href="#y" transform="matrix(1,0,0,1,785,765) translate(117.50000000000001 25.6)"/><use xlink:href="#z" transform="matrix(1,0,0,1,785,765) translate(180.5 25.6)"/><path d="M1080 808.98H890v-.22H718.24" stroke="#000" stroke-width="2" fill="none"/><path d="M703.24 808.76l14.26-4.64v9.27z" stroke="#000" stroke-width="2"/><path d="M780 840h240v53.2H780z" stroke="#000" stroke-opacity="0" stroke-width="2" fill="#fff" fill-opacity="0"/><use xlink:href="#k" transform="matrix(1,0,0,1,785,845) translate(24.924999999999997 25.6)"/><use xlink:href="#l" transform="matrix(1,0,0,1,785,845) translate(77.225 25.6)"/><use xlink:href="#i" transform="matrix(1,0,0,1,785,845) translate(107.175 25.6)"/><use xlink:href="#v" transform="matrix(1,0,0,1,785,845) translate(127.075 25.6)"/><path d="M700 898.44h190v-.22h171.76" stroke="#000" stroke-width="2" fill="none"/><path d="M1076.76 898.22l-14.26 4.64v-9.28z" stroke="#000" stroke-width="2"/><path d="M780 926.6h240v53.2H780z" stroke="#000" stroke-opacity="0" stroke-width="2" fill="#fff" fill-opacity="0"/><path d="M780 920h240v53.2H780z" stroke="#000" stroke-opacity="0" stroke-width="2" fill="#fff" fill-opacity="0"/><g><use xlink:href="#x" transform="matrix(1,0,0,1,785,925) translate(35.60000000000001 25.6)"/><use xlink:href="#i" transform="matrix(1,0,0,1,785,925) translate(77.55000000000001 25.6)"/><use xlink:href="#A" transform="matrix(1,0,0,1,785,925) translate(97.45000000000002 25.6)"/><use xlink:href="#z" transform="matrix(1,0,0,1,785,925) translate(180.45 25.6)"/></g><path d="M1080 968.98H890v-.22H718.24" stroke="#000" stroke-width="2" fill="none"/><path d="M703.24 968.76l14.26-4.64v9.27z" stroke="#000" stroke-width="2"/><path d="M400 1006.6h240v53.2H400z" stroke="#000" stroke-opacity="0" stroke-width="2" fill="#fff" fill-opacity="0"/><path d="M400 1000h240v53.2H400z" stroke="#000" stroke-opacity="0" stroke-width="2" fill="#fff" fill-opacity="0"/><g><use xlink:href="#B" transform="matrix(1,0,0,1,405,1004.9999999999999) translate(38.075 25.6)"/><use xlink:href="#i" transform="matrix(1,0,0,1,405,1004.9999999999999) translate(69.025 25.6)"/><use xlink:href="#A" transform="matrix(1,0,0,1,405,1004.9999999999999) translate(88.925 25.6)"/><use xlink:href="#C" transform="matrix(1,0,0,1,405,1004.9999999999999) translate(171.925 25.6)"/></g><path d="M700 1048.98H510v-.22H338.24" stroke="#000" stroke-width="2" fill="none"/><path d="M323.24 1048.76l14.26-4.64v9.27z" stroke="#000" stroke-width="2"/><path d="M400 819.8h240V873H400z" stroke="#000" stroke-opacity="0" stroke-width="2" fill="#fff" fill-opacity="0"/><path d="M400 813.2h240v53.2H400z" stroke="#000" stroke-opacity="0" stroke-width="2" fill="#fff" fill-opacity="0"/><g><use xlink:href="#B" transform="matrix(1,0,0,1,405,818.2) translate(40.525000000000006 25.6)"/><use xlink:href="#w" transform="matrix(1,0,0,1,405,818.2) translate(71.47500000000001 25.6)"/><use xlink:href="#v" transform="matrix(1,0,0,1,405,818.2) translate(111.47500000000001 25.6)"/></g><path d="M700 862.18H510v-.22H338.24" stroke="#000" stroke-width="2" fill="none"/><path d="M323.24 861.96l14.26-4.64v9.27z" stroke="#000" stroke-width="2"/><path d="M780 1053.2h240v53.2H780z" stroke="#000" stroke-opacity="0" stroke-width="2" fill="#fff" fill-opacity="0"/><g><use xlink:href="#u" transform="matrix(1,0,0,1,785,1058.1999999999998) translate(18.624999999999986 25.6)"/><use xlink:href="#D" transform="matrix(1,0,0,1,785,1058.1999999999998) translate(66.57499999999999 25.6)"/><use xlink:href="#E" transform="matrix(1,0,0,1,785,1058.1999999999998) translate(162.47500000000002 25.6)"/><use xlink:href="#F" transform="matrix(1,0,0,1,785,1058.1999999999998) translate(196.47500000000002 25.6)"/></g><path d="M700 1111.64h190v-.22h171.76" stroke="#000" stroke-width="2" fill="none"/><path d="M1076.76 1111.42l-14.26 4.64v-9.28z" stroke="#000" stroke-width="2"/><path d="M580 0h240v60H580z" stroke="#000" stroke-opacity="0" stroke-width="2" fill="#fff" fill-opacity="0"/><g><use xlink:href="#G" transform="matrix(1,0,0,1,585,5) translate(32.8888888888889 30.333333333333336)"/><use xlink:href="#H" transform="matrix(1,0,0,1,585,5) translate(72.74074074074075 30.333333333333336)"/></g><defs><path d="M30-248c118-7 216 8 213 122C240-48 200 0 122 0H30v-248zM63-27c89 8 146-16 146-99s-60-101-146-95v194" id="I"/><path d="M141-36C126-15 110 5 73 4 37 3 15-17 15-53c-1-64 63-63 125-63 3-35-9-54-41-54-24 1-41 7-42 31l-33-3c5-37 33-52 76-52 45 0 72 20 72 64v82c-1 20 7 32 28 27v20c-31 9-61-2-59-35zM48-53c0 20 12 33 32 33 41-3 63-29 60-74-43 2-92-5-92 41" id="J"/><path d="M59-47c-2 24 18 29 38 22v24C64 9 27 4 27-40v-127H5v-23h24l9-43h21v43h35v23H59v120" id="K"/><path d="M115-194c53 0 69 39 70 98 0 66-23 100-70 100C84 3 66-7 56-30L54 0H23l1-261h32v101c10-23 28-34 59-34zm-8 174c40 0 45-34 45-75 0-40-5-75-45-74-42 0-51 32-51 76 0 43 10 73 51 73" id="L"/><path d="M135-143c-3-34-86-38-87 0 15 53 115 12 119 90S17 21 10-45l28-5c4 36 97 45 98 0-10-56-113-15-118-90-4-57 82-63 122-42 12 7 21 19 24 35" id="M"/><path d="M100-194c63 0 86 42 84 106H49c0 40 14 67 53 68 26 1 43-12 49-29l28 8c-11 28-37 45-77 45C44 4 14-33 15-96c1-61 26-98 85-98zm52 81c6-60-76-77-97-28-3 7-6 17-6 28h103" id="N"/><g id="a"><use transform="matrix(0.05,0,0,0.05,0,0)" xlink:href="#I"/><use transform="matrix(0.05,0,0,0.05,12.950000000000001,0)" xlink:href="#J"/><use transform="matrix(0.05,0,0,0.05,22.950000000000003,0)" xlink:href="#K"/><use transform="matrix(0.05,0,0,0.05,27.950000000000003,0)" xlink:href="#J"/><use transform="matrix(0.05,0,0,0.05,37.95,0)" xlink:href="#L"/><use transform="matrix(0.05,0,0,0.05,47.95,0)" xlink:href="#J"/><use transform="matrix(0.05,0,0,0.05,57.95,0)" xlink:href="#M"/><use transform="matrix(0.05,0,0,0.05,66.95,0)" xlink:href="#N"/></g><path d="M212-179c-10-28-35-45-73-45-59 0-87 40-87 99 0 60 29 101 89 101 43 0 62-24 78-52l27 14C228-24 195 4 139 4 59 4 22-46 18-125c-6-104 99-153 187-111 19 9 31 26 39 46" id="O"/><path d="M24 0v-261h32V0H24" id="P"/><path d="M24-231v-30h32v30H24zM24 0v-190h32V0H24" id="Q"/><path d="M117-194c89-4 53 116 60 194h-32v-121c0-31-8-49-39-48C34-167 62-67 57 0H25l-1-190h30c1 10-1 24 2 32 11-22 29-35 61-36" id="R"/><g id="b"><use transform="matrix(0.05,0,0,0.05,0,0)" xlink:href="#O"/><use transform="matrix(0.05,0,0,0.05,12.950000000000001,0)" xlink:href="#P"/><use transform="matrix(0.05,0,0,0.05,16.900000000000002,0)" xlink:href="#Q"/><use transform="matrix(0.05,0,0,0.05,20.85,0)" xlink:href="#N"/><use transform="matrix(0.05,0,0,0.05,30.85,0)" xlink:href="#R"/><use transform="matrix(0.05,0,0,0.05,40.85,0)" xlink:href="#K"/></g><path d="M266 0h-40l-56-210L115 0H75L2-248h35L96-30l15-64 43-154h32l59 218 59-218h35" id="S"/><g id="c"><use transform="matrix(0.05,0,0,0.05,0,0)" xlink:href="#S"/><use transform="matrix(0.05,0,0,0.05,16.599999999999998,0)" xlink:href="#N"/><use transform="matrix(0.05,0,0,0.05,26.599999999999994,0)" xlink:href="#L"/><use transform="matrix(0.05,0,0,0.05,36.599999999999994,0)" xlink:href="#M"/><use transform="matrix(0.05,0,0,0.05,45.599999999999994,0)" xlink:href="#Q"/><use transform="matrix(0.05,0,0,0.05,49.55,0)" xlink:href="#K"/><use transform="matrix(0.05,0,0,0.05,54.54999999999999,0)" xlink:href="#N"/></g><path d="M30 0v-248h33v221h125V0H30" id="T"/><g id="d"><use transform="matrix(0.05,0,0,0.05,0,0)" xlink:href="#T"/><use transform="matrix(0.05,0,0,0.05,10,0)" xlink:href="#J"/><use transform="matrix(0.05,0,0,0.05,20,0)" xlink:href="#J"/><use transform="matrix(0.05,0,0,0.05,30,0)" xlink:href="#K"/></g><path d="M106-169C34-169 62-67 57 0H25v-261h32l-1 103c12-21 28-36 61-36 89 0 53 116 60 194h-32v-121c2-32-8-49-39-48" id="U"/><path d="M100-194c62-1 85 37 85 99 1 63-27 99-86 99S16-35 15-95c0-66 28-99 85-99zM99-20c44 1 53-31 53-75 0-43-8-75-51-75s-53 32-53 75 10 74 51 75" id="V"/><path d="M210-169c-67 3-38 105-44 169h-31v-121c0-29-5-50-35-48C34-165 62-65 56 0H25l-1-190h30c1 10-1 24 2 32 10-44 99-50 107 0 11-21 27-35 58-36 85-2 47 119 55 194h-31v-121c0-29-5-49-35-48" id="W"/><path d="M115-194c55 1 70 41 70 98S169 2 115 4C84 4 66-9 55-30l1 105H24l-1-265h31l2 30c10-21 28-34 59-34zm-8 174c40 0 45-34 45-75s-6-73-45-74c-42 0-51 32-51 76 0 43 10 73 51 73" id="X"/><path d="M177-190C167-65 218 103 67 71c-23-6-38-20-44-43l32-5c15 47 100 32 89-28v-30C133-14 115 1 83 1 29 1 15-40 15-95c0-56 16-97 71-98 29-1 48 16 59 35 1-10 0-23 2-32h30zM94-22c36 0 50-32 50-73 0-42-14-75-50-75-39 0-46 34-46 75s6 73 46 73" id="Y"/><g id="e"><use transform="matrix(0.05,0,0,0.05,0,0)" xlink:href="#U"/><use transform="matrix(0.05,0,0,0.05,10,0)" xlink:href="#V"/><use transform="matrix(0.05,0,0,0.05,20,0)" xlink:href="#W"/><use transform="matrix(0.05,0,0,0.05,34.95,0)" xlink:href="#N"/><use transform="matrix(0.05,0,0,0.05,44.95,0)" xlink:href="#X"/><use transform="matrix(0.05,0,0,0.05,54.95,0)" xlink:href="#J"/><use transform="matrix(0.05,0,0,0.05,64.95,0)" xlink:href="#Y"/><use transform="matrix(0.05,0,0,0.05,74.95,0)" xlink:href="#Q"/><use transform="matrix(0.05,0,0,0.05,78.9,0)" xlink:href="#R"/><use transform="matrix(0.05,0,0,0.05,88.9,0)" xlink:href="#N"/></g><path d="M9 0v-24l116-142H16v-24h144v24L44-24h123V0H9" id="Z"/><g id="f"><use transform="matrix(0.05,0,0,0.05,0,0)" xlink:href="#Z"/><use transform="matrix(0.05,0,0,0.05,9,0)" xlink:href="#Q"/><use transform="matrix(0.05,0,0,0.05,12.949999999999998,0)" xlink:href="#N"/><use transform="matrix(0.05,0,0,0.05,22.95,0)" xlink:href="#R"/></g><path d="M194 0L95-120 63-95V0H30v-248h33v124l119-124h40L117-140 236 0h-42" id="aa"/><path d="M143 0L79-87 56-68V0H24v-261h32v163l83-92h37l-77 82L181 0h-38" id="ab"/><g id="g"><use transform="matrix(0.05,0,0,0.05,0,0)" xlink:href="#aa"/><use transform="matrix(0.05,0,0,0.05,12,0)" xlink:href="#P"/><use transform="matrix(0.05,0,0,0.05,15.949999999999998,0)" xlink:href="#Q"/><use transform="matrix(0.05,0,0,0.05,19.9,0)" xlink:href="#ab"/></g><g id="h"><use transform="matrix(0.05,0,0,0.05,0,0)" xlink:href="#V"/><use transform="matrix(0.05,0,0,0.05,10,0)" xlink:href="#X"/></g><path d="M114-163C36-179 61-72 57 0H25l-1-190h30c1 12-1 29 2 39 6-27 23-49 58-41v29" id="ac"/><g id="i"><use transform="matrix(0.05,0,0,0.05,0,0)" xlink:href="#ac"/><use transform="matrix(0.05,0,0,0.05,5.95,0)" xlink:href="#Q"/><use transform="matrix(0.05,0,0,0.05,9.9,0)" xlink:href="#K"/></g><path d="M85-194c31 0 48 13 60 33l-1-100h32l1 261h-30c-2-10 0-23-3-31C134-8 116 4 85 4 32 4 16-35 15-94c0-66 23-100 70-100zm9 24c-40 0-46 34-46 75 0 40 6 74 45 74 42 0 51-32 51-76 0-42-9-74-50-73" id="ad"/><g id="j"><use transform="matrix(0.05,0,0,0.05,0,0)" xlink:href="#J"/><use transform="matrix(0.05,0,0,0.05,10,0)" xlink:href="#J"/><use transform="matrix(0.05,0,0,0.05,20,0)" xlink:href="#R"/><use transform="matrix(0.05,0,0,0.05,30,0)" xlink:href="#L"/><use transform="matrix(0.05,0,0,0.05,40,0)" xlink:href="#Q"/><use transform="matrix(0.05,0,0,0.05,43.95,0)" xlink:href="#N"/><use transform="matrix(0.05,0,0,0.05,53.95,0)" xlink:href="#ad"/><use transform="matrix(0.05,0,0,0.05,63.95,0)" xlink:href="#N"/><use transform="matrix(0.05,0,0,0.05,73.95,0)" xlink:href="#R"/></g><path d="M137 0h-34L2-248h35l83 218 83-218h36" id="ae"/><g id="k"><use transform="matrix(0.05,0,0,0.05,0,0)" xlink:href="#ae"/><use transform="matrix(0.05,0,0,0.05,11.35,0)" xlink:href="#ac"/><use transform="matrix(0.05,0,0,0.05,17.3,0)" xlink:href="#J"/><use transform="matrix(0.05,0,0,0.05,27.3,0)" xlink:href="#J"/><use transform="matrix(0.05,0,0,0.05,37.3,0)" xlink:href="#Y"/></g><g id="l"><use transform="matrix(0.05,0,0,0.05,0,0)" xlink:href="#V"/><use transform="matrix(0.05,0,0,0.05,10,0)" xlink:href="#W"/></g><g id="m"><use transform="matrix(0.05,0,0,0.05,0,0)" xlink:href="#U"/><use transform="matrix(0.05,0,0,0.05,10,0)" xlink:href="#N"/><use transform="matrix(0.05,0,0,0.05,20,0)" xlink:href="#K"/></g><g id="n"><use transform="matrix(0.05,0,0,0.05,0,0)" xlink:href="#K"/><use transform="matrix(0.05,0,0,0.05,5,0)" xlink:href="#V"/><use transform="matrix(0.05,0,0,0.05,15,0)" xlink:href="#N"/><use transform="matrix(0.05,0,0,0.05,25,0)" xlink:href="#M"/><use transform="matrix(0.05,0,0,0.05,34,0)" xlink:href="#K"/><use transform="matrix(0.05,0,0,0.05,39,0)" xlink:href="#J"/><use transform="matrix(0.05,0,0,0.05,49,0)" xlink:href="#J"/><use transform="matrix(0.05,0,0,0.05,59,0)" xlink:href="#R"/></g><path d="M108 0H70L1-190h34L89-25l56-165h34" id="af"/><g id="o"><use transform="matrix(0.05,0,0,0.05,0,0)" xlink:href="#af"/><use transform="matrix(0.05,0,0,0.05,9,0)" xlink:href="#J"/><use transform="matrix(0.05,0,0,0.05,19,0)" xlink:href="#R"/></g><g id="p"><use transform="matrix(0.05,0,0,0.05,0,0)" xlink:href="#ab"/><use transform="matrix(0.05,0,0,0.05,9,0)" xlink:href="#V"/><use transform="matrix(0.05,0,0,0.05,19,0)" xlink:href="#X"/><use transform="matrix(0.05,0,0,0.05,29,0)" xlink:href="#X"/><use transform="matrix(0.05,0,0,0.05,39,0)" xlink:href="#N"/><use transform="matrix(0.05,0,0,0.05,49,0)" xlink:href="#P"/><use transform="matrix(0.05,0,0,0.05,52.95,0)" xlink:href="#N"/><use transform="matrix(0.05,0,0,0.05,62.95,0)" xlink:href="#R"/></g><path d="M96-169c-40 0-48 33-48 73s9 75 48 75c24 0 41-14 43-38l32 2c-6 37-31 61-74 61-59 0-76-41-82-99-10-93 101-131 147-64 4 7 5 14 7 22l-32 3c-4-21-16-35-41-35" id="ag"/><path d="M84 4C-5 8 30-112 23-190h32v120c0 31 7 50 39 49 72-2 45-101 50-169h31l1 190h-30c-1-10 1-25-2-33-11 22-28 36-60 37" id="ah"/><g id="q"><use transform="matrix(0.05,0,0,0.05,0,0)" xlink:href="#J"/><use transform="matrix(0.05,0,0,0.05,10,0)" xlink:href="#ag"/><use transform="matrix(0.05,0,0,0.05,19,0)" xlink:href="#ag"/><use transform="matrix(0.05,0,0,0.05,28,0)" xlink:href="#V"/><use transform="matrix(0.05,0,0,0.05,38,0)" xlink:href="#ah"/><use transform="matrix(0.05,0,0,0.05,48,0)" xlink:href="#R"/><use transform="matrix(0.05,0,0,0.05,58,0)" xlink:href="#K"/></g><g id="r"><use transform="matrix(0.05,0,0,0.05,0,0)" xlink:href="#K"/><use transform="matrix(0.05,0,0,0.05,5,0)" xlink:href="#V"/><use transform="matrix(0.05,0,0,0.05,15,0)" xlink:href="#N"/><use transform="matrix(0.05,0,0,0.05,25,0)" xlink:href="#M"/><use transform="matrix(0.05,0,0,0.05,34,0)" xlink:href="#K"/><use transform="matrix(0.05,0,0,0.05,39,0)" xlink:href="#J"/><use transform="matrix(0.05,0,0,0.05,49,0)" xlink:href="#J"/><use transform="matrix(0.05,0,0,0.05,59,0)" xlink:href="#R"/></g><g id="s"><use transform="matrix(0.05,0,0,0.05,0,0)" xlink:href="#J"/><use transform="matrix(0.05,0,0,0.05,10,0)" xlink:href="#ag"/><use transform="matrix(0.05,0,0,0.05,19,0)" xlink:href="#ag"/><use transform="matrix(0.05,0,0,0.05,28,0)" xlink:href="#V"/><use transform="matrix(0.05,0,0,0.05,38,0)" xlink:href="#ah"/><use transform="matrix(0.05,0,0,0.05,48,0)" xlink:href="#R"/><use transform="matrix(0.05,0,0,0.05,58,0)" xlink:href="#K"/></g><g id="t"><use transform="matrix(0.05,0,0,0.05,0,0)" xlink:href="#Y"/><use transform="matrix(0.05,0,0,0.05,10,0)" xlink:href="#N"/><use transform="matrix(0.05,0,0,0.05,20,0)" xlink:href="#af"/><use transform="matrix(0.05,0,0,0.05,29,0)" xlink:href="#N"/><use transform="matrix(0.05,0,0,0.05,39,0)" xlink:href="#R"/><use transform="matrix(0.05,0,0,0.05,49,0)" xlink:href="#M"/></g><path d="M185-189c-5-48-123-54-124 2 14 75 158 14 163 119 3 78-121 87-175 55-17-10-28-26-33-46l33-7c5 56 141 63 141-1 0-78-155-14-162-118-5-82 145-84 179-34 5 7 8 16 11 25" id="ai"/><g id="u"><use transform="matrix(0.05,0,0,0.05,0,0)" xlink:href="#ai"/><use transform="matrix(0.05,0,0,0.05,12,0)" xlink:href="#K"/><use transform="matrix(0.05,0,0,0.05,17,0)" xlink:href="#ah"/><use transform="matrix(0.05,0,0,0.05,27,0)" xlink:href="#ah"/><use transform="matrix(0.05,0,0,0.05,37,0)" xlink:href="#ac"/></g><g id="v"><use transform="matrix(0.05,0,0,0.05,0,0)" xlink:href="#Y"/><use transform="matrix(0.05,0,0,0.05,10,0)" xlink:href="#N"/><use transform="matrix(0.05,0,0,0.05,20,0)" xlink:href="#Y"/><use transform="matrix(0.05,0,0,0.05,30,0)" xlink:href="#N"/><use transform="matrix(0.05,0,0,0.05,40,0)" xlink:href="#af"/><use transform="matrix(0.05,0,0,0.05,49,0)" xlink:href="#N"/><use transform="matrix(0.05,0,0,0.05,59,0)" xlink:href="#R"/><use transform="matrix(0.05,0,0,0.05,69,0)" xlink:href="#M"/></g><g id="w"><use transform="matrix(0.05,0,0,0.05,0,0)" xlink:href="#J"/><use transform="matrix(0.05,0,0,0.05,10,0)" xlink:href="#ah"/><use transform="matrix(0.05,0,0,0.05,20,0)" xlink:href="#K"/><use transform="matrix(0.05,0,0,0.05,25,0)" xlink:href="#V"/></g><g id="x"><use transform="matrix(0.05,0,0,0.05,0,0)" xlink:href="#ae"/><use transform="matrix(0.05,0,0,0.05,11,0)" xlink:href="#V"/><use transform="matrix(0.05,0,0,0.05,21,0)" xlink:href="#N"/><use transform="matrix(0.05,0,0,0.05,31,0)" xlink:href="#ac"/></g><g id="y"><use transform="matrix(0.05,0,0,0.05,0,0)" xlink:href="#Y"/><use transform="matrix(0.05,0,0,0.05,10,0)" xlink:href="#N"/><use transform="matrix(0.05,0,0,0.05,20,0)" xlink:href="#af"/><use transform="matrix(0.05,0,0,0.05,29,0)" xlink:href="#N"/><use transform="matrix(0.05,0,0,0.05,39,0)" xlink:href="#R"/><use transform="matrix(0.05,0,0,0.05,49,0)" xlink:href="#M"/></g><g id="z"><use transform="matrix(0.05,0,0,0.05,0,0)" xlink:href="#Q"/><use transform="matrix(0.05,0,0,0.05,3.95,0)" xlink:href="#R"/></g><g id="A"><use transform="matrix(0.05,0,0,0.05,0,0)" xlink:href="#Y"/><use transform="matrix(0.05,0,0,0.05,10,0)" xlink:href="#N"/><use transform="matrix(0.05,0,0,0.05,20,0)" xlink:href="#Y"/><use transform="matrix(0.05,0,0,0.05,30,0)" xlink:href="#N"/><use transform="matrix(0.05,0,0,0.05,40,0)" xlink:href="#af"/><use transform="matrix(0.05,0,0,0.05,49,0)" xlink:href="#N"/><use transform="matrix(0.05,0,0,0.05,59,0)" xlink:href="#R"/><use transform="matrix(0.05,0,0,0.05,69,0)" xlink:href="#M"/></g><g id="B"><use transform="matrix(0.05,0,0,0.05,0,0)" xlink:href="#ai"/><use transform="matrix(0.05,0,0,0.05,12,0)" xlink:href="#P"/><use transform="matrix(0.05,0,0,0.05,15.949999999999998,0)" xlink:href="#J"/></g><g id="C"><use transform="matrix(0.05,0,0,0.05,0,0)" xlink:href="#V"/><use transform="matrix(0.05,0,0,0.05,10,0)" xlink:href="#X"/></g><g id="D"><use transform="matrix(0.05,0,0,0.05,0,0)" xlink:href="#L"/><use transform="matrix(0.05,0,0,0.05,10,0)" xlink:href="#N"/><use transform="matrix(0.05,0,0,0.05,20,0)" xlink:href="#af"/><use transform="matrix(0.05,0,0,0.05,29,0)" xlink:href="#N"/><use transform="matrix(0.05,0,0,0.05,39,0)" xlink:href="#M"/><use transform="matrix(0.05,0,0,0.05,48,0)" xlink:href="#K"/><use transform="matrix(0.05,0,0,0.05,53,0)" xlink:href="#Q"/><use transform="matrix(0.05,0,0,0.05,56.95,0)" xlink:href="#Y"/><use transform="matrix(0.05,0,0,0.05,66.95,0)" xlink:href="#Q"/><use transform="matrix(0.05,0,0,0.05,70.9,0)" xlink:href="#R"/><use transform="matrix(0.05,0,0,0.05,80.9,0)" xlink:href="#Y"/></g><g id="E"><use transform="matrix(0.05,0,0,0.05,0,0)" xlink:href="#af"/><use transform="matrix(0.05,0,0,0.05,9,0)" xlink:href="#J"/><use transform="matrix(0.05,0,0,0.05,19,0)" xlink:href="#R"/></g><g id="F"><use transform="matrix(0.05,0,0,0.05,0,0)" xlink:href="#ac"/><use transform="matrix(0.05,0,0,0.05,5.95,0)" xlink:href="#Q"/><use transform="matrix(0.05,0,0,0.05,9.9,0)" xlink:href="#K"/></g><path d="M233-177c-1 41-23 64-60 70L243 0h-38l-65-103H63V0H30v-248c88 3 205-21 203 71zM63-129c60-2 137 13 137-47 0-61-80-42-137-45v92" id="aj"/><g id="G"><use transform="matrix(0.07407407407407408,0,0,0.07407407407407408,0,0)" xlink:href="#aj"/><use transform="matrix(0.07407407407407408,0,0,0.07407407407407408,19.185185185185187,0)" xlink:href="#Q"/><use transform="matrix(0.07407407407407408,0,0,0.07407407407407408,25.037037037037035,0)" xlink:href="#K"/></g><g id="H"><use transform="matrix(0.07407407407407408,0,0,0.07407407407407408,0,0)" xlink:href="#J"/><use transform="matrix(0.07407407407407408,0,0,0.07407407407407408,14.814814814814817,0)" xlink:href="#J"/><use transform="matrix(0.07407407407407408,0,0,0.07407407407407408,29.629629629629633,0)" xlink:href="#R"/><use transform="matrix(0.07407407407407408,0,0,0.07407407407407408,44.44444444444445,0)" xlink:href="#L"/><use transform="matrix(0.07407407407407408,0,0,0.07407407407407408,59.25925925925927,0)" xlink:href="#Q"/><use transform="matrix(0.07407407407407408,0,0,0.07407407407407408,65.11111111111111,0)" xlink:href="#N"/><use transform="matrix(0.07407407407407408,0,0,0.07407407407407408,79.92592592592592,0)" xlink:href="#ad"/><use transform="matrix(0.07407407407407408,0,0,0.07407407407407408,94.74074074074073,0)" xlink:href="#N"/><use transform="matrix(0.07407407407407408,0,0,0.07407407407407408,109.55555555555554,0)" xlink:href="#R"/></g></defs></g></svg>