<svg xmlns="http://www.w3.org/2000/svg" xmlns:xlink="http://www.w3.org/1999/xlink" xmlns:lucid="lucid" width="1625.2" height="1198"><g transform="translate(-12 -2)" lucid:page-tab-id="0_0"><path d="M0 0h1760v1360H0z" fill="#fff"/><path d="M644.8 619h92.8v31.6h-92.8z" fill="#fff" fill-opacity="0"/><path d="M647.2 152h315.2" stroke="#999" stroke-width="2" fill="none"/><path d="M647.2 153h-1v-2h1zM963.4 153h-1v-2h1z" fill="#999"/><path d="M646.2 119c0-2.76 2.24-5 5-5h30c2.76 0 5 2.24 5 5v26c0 2.76-2.24 5-5 5h-30c-2.76 0-5-2.24-5-5z" stroke="#000" stroke-opacity="0" stroke-width="2" fill="#fff" fill-opacity="0"/><use xlink:href="#a" transform="matrix(1,0,0,1,651.1999999999999,119) translate(10 16.6)"/><path d="M922 116c0-2.76 2.24-5 5-5h30c2.76 0 5 2.24 5 5v32c0 2.76-2.24 5-5 5h-30c-2.76 0-5-2.24-5-5z" stroke="#000" stroke-opacity="0" stroke-width="2" fill="#fff" fill-opacity="0"/><use xlink:href="#b" transform="matrix(1,0,0,1,927.0000000000001,116) translate(1.5 19.6)"/><path d="M754.1 113c0-2.76 2.24-5 5-5h90c2.76 0 5 2.24 5 5v32c0 2.76-2.24 5-5 5h-90c-2.76 0-5-2.24-5-5z" stroke="#000" stroke-opacity="0" stroke-width="2" fill="#fff" fill-opacity="0"/><use xlink:href="#c" transform="matrix(1,0,0,1,759.0999999999999,113) translate(25 19.6)"/><path d="M1092 243v182" stroke="#999" stroke-width="2" fill="none"/><path d="M1093 243h-2v-1h2zM1093 426h-2v-1h2z" fill="#999"/><path d="M1092 326c0-2.76 2.24-5 5-5h50c2.76 0 5 2.24 5 5v10c0 2.76-2.24 5-5 5h-50c-2.76 0-5-2.24-5-5z" stroke="#000" stroke-opacity="0" stroke-width="2" fill="#fff" fill-opacity="0"/><use xlink:href="#d" transform="matrix(1,0,0,1,1097,326) translate(3.5249999999999986 14.4)"/><path d="M1092 247c0-2.76 2.24-5 5-5h30c2.76 0 5 2.24 5 5v26c0 2.76-2.24 5-5 5h-30c-2.76 0-5-2.24-5-5z" stroke="#000" stroke-opacity="0" stroke-width="2" fill="#fff" fill-opacity="0"/><use xlink:href="#a" transform="matrix(1,0,0,1,1097,247) translate(10 16.6)"/><path d="M1092 389c0-2.76 2.24-5 5-5h30c2.76 0 5 2.24 5 5v32c0 2.76-2.24 5-5 5h-30c-2.76 0-5-2.24-5-5z" stroke="#000" stroke-opacity="0" stroke-width="2" fill="#fff" fill-opacity="0"/><use xlink:href="#e" transform="matrix(1,0,0,1,1097,389) translate(1.5 19.6)"/><path d="M795.8 505.5H931" stroke="#999" stroke-width="2" fill="none"/><path d="M795.8 506.5h-1v-2h1z" fill="#999"/><path d="M961 505.5l-14.86 14.85L931 505.5l15.14-14.85z" fill="#fff"/><path d="M962.4 505.5l-16.26 16.26-16.58-16.26 16.58-16.26zm-30 0l13.73 13.44 13.44-13.44-13.44-13.44z" fill="#999"/><path d="M1092 586v145" stroke="#999" stroke-width="2" fill="none"/><path d="M1093 586h-2v-1h2zM1093 732h-2v-1h2z" fill="#999"/><path d="M1094.8 590c0-2.76 2.24-5 5-5h30c2.76 0 5 2.24 5 5v26c0 2.76-2.24 5-5 5h-30c-2.76 0-5-2.24-5-5z" stroke="#000" stroke-opacity="0" stroke-width="2" fill="#fff" fill-opacity="0"/><use xlink:href="#f" transform="matrix(1,0,0,1,1099.8,590) translate(10 16.6)"/><path d="M1092 701c0-2.76 2.24-5 5-5h30c2.76 0 5 2.24 5 5v26c0 2.76-2.24 5-5 5h-30c-2.76 0-5-2.24-5-5z" stroke="#000" stroke-opacity="0" stroke-width="2" fill="#fff" fill-opacity="0"/><use xlink:href="#f" transform="matrix(1,0,0,1,1097,701) translate(10 16.6)"/><path d="M1092 642.5c0-2.76 2.24-5 5-5h90c2.76 0 5 2.24 5 5v32c0 2.76-2.24 5-5 5h-90c-2.76 0-5-2.24-5-5z" stroke="#000" stroke-opacity="0" stroke-width="2" fill="#fff" fill-opacity="0"/><use xlink:href="#g" transform="matrix(1,0,0,1,1097,642.5) translate(16.05 19.6)"/><use xlink:href="#h" transform="matrix(1,0,0,1,1097,642.5) translate(53.95 19.6)"/><path d="M269.2 474c0-2.76 2.24-5 5-5h30c2.76 0 5 2.24 5 5v26c0 2.76-2.24 5-5 5h-30c-2.76 0-5-2.24-5-5z" stroke="#000" stroke-opacity="0" stroke-width="2" fill="#fff" fill-opacity="0"/><use xlink:href="#f" transform="matrix(1,0,0,1,274.20000000000005,474) translate(10 16.6)"/><path d="M497.6 468c0-2.76 2.24-5 5-5h30c2.76 0 5 2.24 5 5v32c0 2.76-2.24 5-5 5h-30c-2.76 0-5-2.24-5-5z" stroke="#000" stroke-opacity="0" stroke-width="2" fill="#fff" fill-opacity="0"/><use xlink:href="#e" transform="matrix(1,0,0,1,502.5999999999999,468) translate(1.5 19.6)"/><path d="M297.6 470c0-2.76 2.24-5 5-5h190c2.76 0 5 2.24 5 5v30c0 2.76-2.24 5-5 5h-190c-2.76 0-5-2.24-5-5z" stroke="#000" stroke-opacity="0" stroke-width="2" fill="#fff" fill-opacity="0"/><use xlink:href="#i" transform="matrix(1,0,0,1,302.5999999999999,469.99999999999994) translate(26.525000000000006 18.6)"/><use xlink:href="#j" transform="matrix(1,0,0,1,302.5999999999999,469.99999999999994) translate(45.525000000000006 18.6)"/><use xlink:href="#k" transform="matrix(1,0,0,1,302.5999999999999,469.99999999999994) translate(133.47500000000002 18.6)"/><path d="M32 290.5c0-2.76 2.24-5 5-5h227.2c2.76 0 5 2.24 5 5v430c0 2.76-2.24 5-5 5H37c-2.76 0-5-2.24-5-5z" stroke="#666" stroke-width="2" fill="#fff"/><path d="M32 323h237.2M32 622h237.2" stroke="#666" stroke-width="2" fill="none"/><use xlink:href="#l" transform="matrix(1,0,0,1,40,285.50000000000006) translate(85.57499999999999 22.6)"/><use xlink:href="#m" transform="matrix(1,0,0,1,44,331.1000000000001) translate(60.075 47.90000000000001)"/><use xlink:href="#n" transform="matrix(1,0,0,1,44,331.1000000000001) translate(114.025 47.90000000000001)"/><use xlink:href="#o" transform="matrix(1,0,0,1,44,331.1000000000001) translate(84.525 69.50000000000001)"/><use xlink:href="#p" transform="matrix(1,0,0,1,44,331.1000000000001) translate(81.07499999999999 91.10000000000002)"/><use xlink:href="#q" transform="matrix(1,0,0,1,44,331.1000000000001) translate(48 112.70000000000003)"/><use xlink:href="#r" transform="matrix(1,0,0,1,44,331.1000000000001) translate(42.599999999999994 134.3)"/><use xlink:href="#s" transform="matrix(1,0,0,1,44,331.1000000000001) translate(59.074999999999996 155.9)"/><use xlink:href="#t" transform="matrix(1,0,0,1,44,331.1000000000001) translate(32.14999999999999 177.50000000000003)"/><use xlink:href="#u" transform="matrix(1,0,0,1,44,331.1000000000001) translate(116 177.50000000000003)"/><use xlink:href="#v" transform="matrix(1,0,0,1,44,331.1000000000001) translate(85.57499999999999 199.1)"/><use xlink:href="#w" transform="matrix(1,0,0,1,44,331.1000000000001) translate(84.525 220.70000000000002)"/><use xlink:href="#x" transform="matrix(1,0,0,1,44,331.1000000000001) translate(92.525 242.29999999999998)"/><use xlink:href="#y" transform="matrix(1,0,0,1,44,629.5552429667521) translate(79.125 26)"/><use xlink:href="#z" transform="matrix(1,0,0,1,44,629.5552429667521) translate(52.199999999999996 47.6)"/><use xlink:href="#A" transform="matrix(1,0,0,1,44,629.5552429667521) translate(46.349999999999994 69.2)"/><path d="M537.6 431c0-2.76 2.24-5 5-5h247.2c2.76 0 5 2.24 5 5v149c0 2.76-2.24 5-5 5H542.6c-2.76 0-5-2.24-5-5z" stroke="#666" stroke-width="2" fill="#fff"/><path d="M537.6 464h257.2m-257.2 60h257.2" stroke="#666" stroke-width="2" fill="none"/><use xlink:href="#B" transform="matrix(1,0,0,1,545.6000000000001,426.00000000000006) translate(88.55 22.6)"/><use xlink:href="#C" transform="matrix(1,0,0,1,549.6000000000001,471.6000000000001) translate(89.025 26.1)"/><use xlink:href="#D" transform="matrix(1,0,0,1,549.6000000000001,532.3000000000001) translate(65.85 26.1)"/><path d="M963.4 431c0-2.76 2.24-5 5-5h247.2c2.76 0 5 2.24 5 5v149c0 2.76-2.24 5-5 5H968.4c-2.76 0-5-2.24-5-5z" stroke="#666" stroke-width="2" fill="#fff"/><path d="M963.4 464h257.2m-257.2 74h257.2" stroke="#666" stroke-width="2" fill="none"/><use xlink:href="#E" transform="matrix(1,0,0,1,971.4,426.00000000000006) translate(72.6 22.6)"/><use xlink:href="#F" transform="matrix(1,0,0,1,975.4,471.6000000000001) translate(92.025 22.299999999999997)"/><use xlink:href="#G" transform="matrix(1,0,0,1,975.4,471.6000000000001) translate(34.67500000000001 43.9)"/><use xlink:href="#D" transform="matrix(1,0,0,1,975.4,545.8446280991736) translate(65.85 19.6)"/><path d="M270.2 505.5h266.4" stroke="#999" stroke-width="2" fill="none"/><path d="M270.2 506.5h-1v-2h1zM537.6 506.5h-1v-2h1z" fill="#999"/><path d="M963.4 737c0-2.76 2.24-5 5-5h247.2c2.76 0 5 2.24 5 5v170c0 2.76-2.24 5-5 5H968.4c-2.76 0-5-2.24-5-5z" stroke="#666" stroke-width="2" fill="#fff"/><path d="M963.4 770h257.2m-257.2 87h257.2" stroke="#666" stroke-width="2" fill="none"/><use xlink:href="#H" transform="matrix(1,0,0,1,971.4,732) translate(74.55 22.6)"/><use xlink:href="#F" transform="matrix(1,0,0,1,975.4,777.6) translate(92.025 28.799999999999997)"/><use xlink:href="#G" transform="matrix(1,0,0,1,975.4,777.6) translate(34.67500000000001 50.4)"/><use xlink:href="#I" transform="matrix(1,0,0,1,975.4,864.6876033057852) translate(59.625 23.6)"/><path d="M963.4 67c0-2.76 2.24-5 5-5h247.2c2.76 0 5 2.24 5 5v170c0 2.76-2.24 5-5 5H968.4c-2.76 0-5-2.24-5-5z" stroke="#666" stroke-width="2" fill="#fff"/><path d="M963.4 100h257.2m-257.2 87h257.2" stroke="#666" stroke-width="2" fill="none"/><use xlink:href="#J" transform="matrix(1,0,0,1,971.4,62) translate(110.05 22.6)"/><use xlink:href="#K" transform="matrix(1,0,0,1,975.4,107.6) translate(54.05 28.799999999999997)"/><use xlink:href="#L" transform="matrix(1,0,0,1,975.4,107.6) translate(99.575 50.4)"/><use xlink:href="#M" transform="matrix(1,0,0,1,975.4,194.6876033057851) translate(59.92499999999999 23.6)"/><path d="M389 57c0-2.76 2.24-5 5-5h247.2c2.76 0 5 2.24 5 5v190c0 2.76-2.24 5-5 5H394c-2.76 0-5-2.24-5-5z" stroke="#666" stroke-width="2" fill="#fff"/><path d="M389 90h257.2M389 193h257.2" stroke="#666" stroke-width="2" fill="none"/><use xlink:href="#N" transform="matrix(1,0,0,1,396.9999999999999,52) translate(66.05 22.6)"/><use xlink:href="#O" transform="matrix(1,0,0,1,400.9999999999999,97.6) translate(68.07499999999999 14.69999999999999)"/><use xlink:href="#P" transform="matrix(1,0,0,1,400.9999999999999,97.6) translate(78.1 36.29999999999999)"/><use xlink:href="#Q" transform="matrix(1,0,0,1,400.9999999999999,97.6) translate(65.57499999999999 57.89999999999999)"/><use xlink:href="#R" transform="matrix(1,0,0,1,400.9999999999999,97.6) translate(92.025 79.5)"/><use xlink:href="#z" transform="matrix(1,0,0,1,400.9999999999999,200.5069306930693) translate(62.199999999999996 14.799999999999999)"/><use xlink:href="#S" transform="matrix(1,0,0,1,400.9999999999999,200.5069306930693) translate(74.14999999999999 36.4)"/><path d="M537.6 737c0-2.76 2.24-5 5-5h247.2c2.76 0 5 2.24 5 5v190c0 2.76-2.24 5-5 5H542.6c-2.76 0-5-2.24-5-5z" stroke="#666" stroke-width="2" fill="#fff"/><path d="M537.6 770h257.2M537.6 873h257.2" stroke="#666" stroke-width="2" fill="none"/><use xlink:href="#T" transform="matrix(1,0,0,1,545.5999999999999,732) translate(61.599999999999994 22.6)"/><use xlink:href="#U" transform="matrix(1,0,0,1,549.5999999999999,777.6) translate(45.099999999999994 14.69999999999999)"/><use xlink:href="#F" transform="matrix(1,0,0,1,549.5999999999999,777.6) translate(92.025 36.29999999999999)"/><use xlink:href="#V" transform="matrix(1,0,0,1,549.5999999999999,777.6) translate(105.55 57.89999999999999)"/><use xlink:href="#W" transform="matrix(1,0,0,1,549.5999999999999,777.6) translate(52.75 79.5)"/><use xlink:href="#X" transform="matrix(1,0,0,1,549.5999999999999,777.6) translate(57.75 79.5)"/><use xlink:href="#Y" transform="matrix(1,0,0,1,549.5999999999999,880.5069306930693) translate(69.625 14.799999999999999)"/><use xlink:href="#Z" transform="matrix(1,0,0,1,549.5999999999999,880.5069306930693) translate(67.89999999999999 36.4)"/><path d="M962.4 822H827.2" stroke="#999" stroke-width="2" fill="none"/><path d="M963.4 823h-1v-2h1z" fill="#999"/><path d="M827.2 822l-15.14 14.85L797.2 822l14.86-14.85z" fill="#fff"/><path d="M828.64 822l-16.58 16.26L795.8 822l16.26-16.26zm-30 0l13.43 13.44L825.8 822l-13.73-13.44z" fill="#999"/><path d="M1360 27c0-2.76 2.24-5 5-5h247.2c2.76 0 5 2.24 5 5v250c0 2.76-2.24 5-5 5H1365c-2.76 0-5-2.24-5-5z" stroke="#666" stroke-width="2" fill="#fff"/><path d="M1360 60h257.2M1360 236h257.2" stroke="#666" stroke-width="2" fill="none"/><g><use xlink:href="#aa" transform="matrix(1,0,0,1,1368,22) translate(102.5 22.6)"/></g><g><use xlink:href="#ab" transform="matrix(1,0,0,1,1372,67.6) translate(97.05 30.1)"/><use xlink:href="#ac" transform="matrix(1,0,0,1,1372,67.6) translate(97.55 51.7)"/><use xlink:href="#ad" transform="matrix(1,0,0,1,1372,67.6) translate(62.074999999999996 73.30000000000001)"/><use xlink:href="#ae" transform="matrix(1,0,0,1,1372,67.6) translate(48.599999999999994 94.90000000000002)"/><use xlink:href="#af" transform="matrix(1,0,0,1,1372,67.6) translate(66.1 116.50000000000001)"/><use xlink:href="#ag" transform="matrix(1,0,0,1,1372,67.6) translate(48.05 138.1)"/></g><g><use xlink:href="#ah" transform="matrix(1,0,0,1,1372,244.35458515283844) translate(50.849999999999994 18.6)"/></g><path d="M1359 152h-106" stroke="#999" stroke-width="2" fill="none"/><path d="M1360 153h-1v-2h1zM1253 152l-15.14 14.85L1223 152l14.86-14.85z" fill="#999"/><path d="M1254.44 152l-16.58 16.26L1221.6 152l16.26-16.26zm-30 0l13.43 13.44L1251.6 152l-13.73-13.44z" fill="#999"/><path d="M963.4 1005c0-2.76 2.24-5 5-5h247.2c2.76 0 5 2.24 5 5v170c0 2.76-2.24 5-5 5H968.4c-2.76 0-5-2.24-5-5z" stroke="#666" stroke-width="2" fill="#fff"/><path d="M963.4 1038h257.2m-257.2 71h257.2" stroke="#666" stroke-width="2" fill="none"/><g><use xlink:href="#ai" transform="matrix(1,0,0,1,971.4,1000) translate(83.55 22.6)"/></g><g><use xlink:href="#aj" transform="matrix(1,0,0,1,975.4,1045.6) translate(62.55 31.6)"/></g><g><use xlink:href="#ak" transform="matrix(1,0,0,1,975.4,1116.8) translate(60.849999999999994 31.6)"/></g><path d="M1360 346c0-2.76 2.24-5 5-5h247.2c2.76 0 5 2.24 5 5v250c0 2.76-2.24 5-5 5H1365c-2.76 0-5-2.24-5-5z" stroke="#666" stroke-width="2" fill="#fff"/><path d="M1360 379h257.2M1360 515h257.2" stroke="#666" stroke-width="2" fill="none"/><g><use xlink:href="#al" transform="matrix(1,0,0,1,1368,341) translate(91.57499999999999 22.6)"/></g><g><use xlink:href="#am" transform="matrix(1,0,0,1,1372,386.6) translate(63.074999999999996 53.3)"/><use xlink:href="#an" transform="matrix(1,0,0,1,1372,386.6) translate(69.05 74.9)"/></g><g><use xlink:href="#ao" transform="matrix(1,0,0,1,1372,522.6132231404958) translate(67.75 39.1)"/></g><path d="M1359 471h-63.7c-2.76 0-5-2.24-5-5V220.65c0-2.76-2.24-5-5-5h-63.7" stroke="#999" stroke-width="2" fill="none"/><path d="M1360 472h-1v-2h1zM1221.6 216.65h-1v-2h1z" fill="#999"/><path d="M1220.6 185c0-2.76 2.24-5 5-5h30c2.76 0 5 2.24 5 5v26c0 2.76-2.24 5-5 5h-30c-2.76 0-5-2.24-5-5z" stroke="#000" stroke-opacity="0" stroke-width="2" fill="#fff" fill-opacity="0"/><g><use xlink:href="#f" transform="matrix(1,0,0,1,1225.6,185) translate(10 16.6)"/></g><path d="M1320 432c0-2.76 2.24-5 5-5h30c2.76 0 5 2.24 5 5v32c0 2.76-2.24 5-5 5h-30c-2.76 0-5-2.24-5-5z" stroke="#000" stroke-opacity="0" stroke-width="2" fill="#fff" fill-opacity="0"/><g><use xlink:href="#e" transform="matrix(1,0,0,1,1325,432) translate(1.5 19.6)"/></g><defs><path fill="#333" d="M27 0v-27h64v-190l-56 39v-29l58-41h29v221h61V0H27" id="ap"/><use transform="matrix(0.05,0,0,0.05,0,0)" xlink:href="#ap" id="a"/><path fill="#333" d="M101-251c68 0 85 55 85 127S166 4 100 4C33 4 14-52 14-124c0-73 17-127 87-127zm-1 229c47 0 54-49 54-102s-4-102-53-102c-51 0-55 48-55 102 0 53 5 102 54 102" id="aq"/><path fill="#333" d="M33 0v-38h34V0H33" id="ar"/><path fill="#333" d="M80-196l47-18 7 23-49 13 32 44-20 13-27-46-27 45-21-12 33-44-49-13 8-23 47 19-2-53h23" id="as"/><g id="b"><use transform="matrix(0.05,0,0,0.05,0,0)" xlink:href="#aq"/><use transform="matrix(0.05,0,0,0.05,10,0)" xlink:href="#ar"/><use transform="matrix(0.05,0,0,0.05,15,0)" xlink:href="#ar"/><use transform="matrix(0.05,0,0,0.05,20,0)" xlink:href="#as"/></g><path fill="#333" d="M59-47c-2 24 18 29 38 22v24C64 9 27 4 27-40v-127H5v-23h24l9-43h21v43h35v23H59v120" id="at"/><path fill="#333" d="M100-194c62-1 85 37 85 99 1 63-27 99-86 99S16-35 15-95c0-66 28-99 85-99zM99-20c44 1 53-31 53-75 0-43-8-75-51-75s-53 32-53 75 10 74 51 75" id="au"/><path fill="#333" d="M117-194c89-4 53 116 60 194h-32v-121c0-31-8-49-39-48C34-167 62-67 57 0H25l-1-190h30c1 10-1 24 2 32 11-22 29-35 61-36" id="av"/><g id="c"><use transform="matrix(0.05,0,0,0.05,0,0)" xlink:href="#at"/><use transform="matrix(0.05,0,0,0.05,5,0)" xlink:href="#au"/><use transform="matrix(0.05,0,0,0.05,15,0)" xlink:href="#au"/><use transform="matrix(0.05,0,0,0.05,25,0)" xlink:href="#av"/><use transform="matrix(0.05,0,0,0.05,35,0)" xlink:href="#at"/></g><path fill="#333" d="M197 0v-115H63V0H30v-248h33v105h134v-105h34V0h-34" id="aw"/><path fill="#333" d="M100-194c63 0 86 42 84 106H49c0 40 14 67 53 68 26 1 43-12 49-29l28 8c-11 28-37 45-77 45C44 4 14-33 15-96c1-61 26-98 85-98zm52 81c6-60-76-77-97-28-3 7-6 17-6 28h103" id="ax"/><path fill="#333" d="M101-234c-31-9-42 10-38 44h38v23H63V0H32v-167H5v-23h27c-7-52 17-82 69-68v24" id="ay"/><g id="d"><use transform="matrix(0.05,0,0,0.05,0,0)" xlink:href="#aw"/><use transform="matrix(0.05,0,0,0.05,12.950000000000001,0)" xlink:href="#ax"/><use transform="matrix(0.05,0,0,0.05,22.950000000000003,0)" xlink:href="#ax"/><use transform="matrix(0.05,0,0,0.05,32.95,0)" xlink:href="#ay"/><use transform="matrix(0.05,0,0,0.05,37.95,0)" xlink:href="#at"/></g><g id="e"><use transform="matrix(0.05,0,0,0.05,0,0)" xlink:href="#aq"/><use transform="matrix(0.05,0,0,0.05,10,0)" xlink:href="#ar"/><use transform="matrix(0.05,0,0,0.05,15,0)" xlink:href="#ar"/><use transform="matrix(0.05,0,0,0.05,20,0)" xlink:href="#as"/></g><use transform="matrix(0.05,0,0,0.05,0,0)" xlink:href="#ap" id="f"/><path fill="#333" d="M24 0v-261h32V0H24" id="az"/><path fill="#333" d="M24-231v-30h32v30H24zM24 0v-190h32V0H24" id="aA"/><path fill="#333" d="M85-194c31 0 48 13 60 33l-1-100h32l1 261h-30c-2-10 0-23-3-31C134-8 116 4 85 4 32 4 16-35 15-94c0-66 23-100 70-100zm9 24c-40 0-46 34-46 75 0 40 6 74 45 74 42 0 51-32 51-76 0-42-9-74-50-73" id="aB"/><g id="g"><use transform="matrix(0.05,0,0,0.05,0,0)" xlink:href="#az"/><use transform="matrix(0.05,0,0,0.05,3.95,0)" xlink:href="#ax"/><use transform="matrix(0.05,0,0,0.05,13.949999999999998,0)" xlink:href="#aA"/><use transform="matrix(0.05,0,0,0.05,17.9,0)" xlink:href="#aB"/><use transform="matrix(0.05,0,0,0.05,27.899999999999995,0)" xlink:href="#at"/></g><g id="h"><use transform="matrix(0.05,0,0,0.05,0,0)" xlink:href="#at"/><use transform="matrix(0.05,0,0,0.05,5,0)" xlink:href="#au"/><use transform="matrix(0.05,0,0,0.05,15,0)" xlink:href="#at"/></g><path fill="#333" d="M33 0v-248h34V0H33" id="aC"/><path fill="#333" d="M135-143c-3-34-86-38-87 0 15 53 115 12 119 90S17 21 10-45l28-5c4 36 97 45 98 0-10-56-113-15-118-90-4-57 82-63 122-42 12 7 21 19 24 35" id="aD"/><g id="i"><use transform="matrix(0.05,0,0,0.05,0,0)" xlink:href="#aC"/><use transform="matrix(0.05,0,0,0.05,5,0)" xlink:href="#aD"/></g><path fill="#333" d="M177-190C167-65 218 103 67 71c-23-6-38-20-44-43l32-5c15 47 100 32 89-28v-30C133-14 115 1 83 1 29 1 15-40 15-95c0-56 16-97 71-98 29-1 48 16 59 35 1-10 0-23 2-32h30zM94-22c36 0 50-32 50-73 0-42-14-75-50-75-39 0-46 34-46 75s6 73 46 73" id="aE"/><path fill="#333" d="M143 0L79-87 56-68V0H24v-261h32v163l83-92h37l-77 82L181 0h-38" id="aF"/><path fill="#333" d="M115-194c55 1 70 41 70 98S169 2 115 4C84 4 66-9 55-30l1 105H24l-1-265h31l2 30c10-21 28-34 59-34zm-8 174c40 0 45-34 45-75s-6-73-45-74c-42 0-51 32-51 76 0 43 10 73 51 73" id="aG"/><g id="j"><use transform="matrix(0.05,0,0,0.05,0,0)" xlink:href="#aE"/><use transform="matrix(0.05,0,0,0.05,10,0)" xlink:href="#ax"/><use transform="matrix(0.05,0,0,0.05,20,0)" xlink:href="#aF"/><use transform="matrix(0.05,0,0,0.05,29,0)" xlink:href="#au"/><use transform="matrix(0.05,0,0,0.05,39,0)" xlink:href="#aG"/><use transform="matrix(0.05,0,0,0.05,49,0)" xlink:href="#aG"/><use transform="matrix(0.05,0,0,0.05,59,0)" xlink:href="#ax"/><use transform="matrix(0.05,0,0,0.05,69,0)" xlink:href="#az"/><use transform="matrix(0.05,0,0,0.05,72.95,0)" xlink:href="#aB"/></g><path fill="#333" d="M141-36C126-15 110 5 73 4 37 3 15-17 15-53c-1-64 63-63 125-63 3-35-9-54-41-54-24 1-41 7-42 31l-33-3c5-37 33-52 76-52 45 0 72 20 72 64v82c-1 20 7 32 28 27v20c-31 9-61-2-59-35zM48-53c0 20 12 33 32 33 41-3 63-29 60-74-43 2-92-5-92 41" id="aH"/><g id="k"><use transform="matrix(0.05,0,0,0.05,0,0)" xlink:href="#aH"/><use transform="matrix(0.05,0,0,0.05,10,0)" xlink:href="#aH"/><use transform="matrix(0.05,0,0,0.05,20,0)" xlink:href="#av"/></g><path fill="#333" d="M30-248c87 1 191-15 191 75 0 78-77 80-158 76V0H30v-248zm33 125c57 0 124 11 124-50 0-59-68-47-124-48v98" id="aI"/><path fill="#333" d="M114-163C36-179 61-72 57 0H25l-1-190h30c1 12-1 29 2 39 6-27 23-49 58-41v29" id="aJ"/><g id="l"><use transform="matrix(0.05,0,0,0.05,0,0)" xlink:href="#aI"/><use transform="matrix(0.05,0,0,0.05,12,0)" xlink:href="#aJ"/><use transform="matrix(0.05,0,0,0.05,17.95,0)" xlink:href="#au"/><use transform="matrix(0.05,0,0,0.05,27.950000000000003,0)" xlink:href="#ay"/><use transform="matrix(0.05,0,0,0.05,32.95,0)" xlink:href="#aA"/><use transform="matrix(0.05,0,0,0.05,36.900000000000006,0)" xlink:href="#ax"/><use transform="matrix(0.05,0,0,0.05,46.900000000000006,0)" xlink:href="#az"/></g><g id="m"><use transform="matrix(0.05,0,0,0.05,0,0)" xlink:href="#aH"/><use transform="matrix(0.05,0,0,0.05,10,0)" xlink:href="#aH"/><use transform="matrix(0.05,0,0,0.05,20,0)" xlink:href="#av"/><use transform="matrix(0.05,0,0,0.05,30,0)" xlink:href="#at"/><use transform="matrix(0.05,0,0,0.05,35,0)" xlink:href="#aH"/><use transform="matrix(0.05,0,0,0.05,45,0)" xlink:href="#az"/></g><g id="n"><use transform="matrix(0.05,0,0,0.05,0,0)" xlink:href="#aJ"/><use transform="matrix(0.05,0,0,0.05,5.95,0)" xlink:href="#aA"/><use transform="matrix(0.05,0,0,0.05,9.9,0)" xlink:href="#at"/><use transform="matrix(0.05,0,0,0.05,14.9,0)" xlink:href="#at"/><use transform="matrix(0.05,0,0,0.05,19.9,0)" xlink:href="#ax"/><use transform="matrix(0.05,0,0,0.05,29.899999999999995,0)" xlink:href="#av"/></g><path fill="#333" d="M210-169c-67 3-38 105-44 169h-31v-121c0-29-5-50-35-48C34-165 62-65 56 0H25l-1-190h30c1 10-1 24 2 32 10-44 99-50 107 0 11-21 27-35 58-36 85-2 47 119 55 194h-31v-121c0-29-5-49-35-48" id="aK"/><g id="o"><use transform="matrix(0.05,0,0,0.05,0,0)" xlink:href="#av"/><use transform="matrix(0.05,0,0,0.05,10,0)" xlink:href="#aH"/><use transform="matrix(0.05,0,0,0.05,20,0)" xlink:href="#aH"/><use transform="matrix(0.05,0,0,0.05,30,0)" xlink:href="#aK"/></g><path fill="#333" d="M24-231v-30h32v30H24zM-9 49c24 4 33-6 33-30v-209h32V24c2 40-23 58-65 49V49" id="aL"/><g id="p"><use transform="matrix(0.05,0,0,0.05,0,0)" xlink:href="#az"/><use transform="matrix(0.05,0,0,0.05,3.95,0)" xlink:href="#ax"/><use transform="matrix(0.05,0,0,0.05,13.949999999999998,0)" xlink:href="#ax"/><use transform="matrix(0.05,0,0,0.05,23.95,0)" xlink:href="#ay"/><use transform="matrix(0.05,0,0,0.05,28.950000000000003,0)" xlink:href="#at"/><use transform="matrix(0.05,0,0,0.05,33.95,0)" xlink:href="#aA"/><use transform="matrix(0.05,0,0,0.05,37.900000000000006,0)" xlink:href="#aL"/><use transform="matrix(0.05,0,0,0.05,41.85000000000001,0)" xlink:href="#aB"/></g><path fill="#333" d="M84 4C-5 8 30-112 23-190h32v120c0 31 7 50 39 49 72-2 45-101 50-169h31l1 190h-30c-1-10 1-25-2-33-11 22-28 36-60 37" id="aM"/><path fill="#333" d="M0 4l72-265h28L28 4H0" id="aN"/><path fill="#333" d="M96-169c-40 0-48 33-48 73s9 75 48 75c24 0 41-14 43-38l32 2c-6 37-31 61-74 61-59 0-76-41-82-99-10-93 101-131 147-64 4 7 5 14 7 22l-32 3c-4-21-16-35-41-35" id="aO"/><g id="q"><use transform="matrix(0.05,0,0,0.05,0,0)" xlink:href="#aD"/><use transform="matrix(0.05,0,0,0.05,9,0)" xlink:href="#at"/><use transform="matrix(0.05,0,0,0.05,14,0)" xlink:href="#aM"/><use transform="matrix(0.05,0,0,0.05,24,0)" xlink:href="#aB"/><use transform="matrix(0.05,0,0,0.05,34,0)" xlink:href="#ax"/><use transform="matrix(0.05,0,0,0.05,44,0)" xlink:href="#av"/><use transform="matrix(0.05,0,0,0.05,54,0)" xlink:href="#at"/><use transform="matrix(0.05,0,0,0.05,59,0)" xlink:href="#aN"/><use transform="matrix(0.05,0,0,0.05,64,0)" xlink:href="#aB"/><use transform="matrix(0.05,0,0,0.05,74,0)" xlink:href="#au"/><use transform="matrix(0.05,0,0,0.05,84,0)" xlink:href="#aO"/><use transform="matrix(0.05,0,0,0.05,93,0)" xlink:href="#ax"/><use transform="matrix(0.05,0,0,0.05,103,0)" xlink:href="#av"/><use transform="matrix(0.05,0,0,0.05,113,0)" xlink:href="#at"/></g><path fill="#333" d="M115-194c53 0 69 39 70 98 0 66-23 100-70 100C84 3 66-7 56-30L54 0H23l1-261h32v101c10-23 28-34 59-34zm-8 174c40 0 45-34 45-75 0-40-5-75-45-74-42 0-51 32-51 76 0 43 10 73 51 73" id="aP"/><g id="r"><use transform="matrix(0.05,0,0,0.05,0,0)" xlink:href="#aE"/><use transform="matrix(0.05,0,0,0.05,10,0)" xlink:href="#ax"/><use transform="matrix(0.05,0,0,0.05,20,0)" xlink:href="#aP"/><use transform="matrix(0.05,0,0,0.05,30,0)" xlink:href="#aJ"/><use transform="matrix(0.05,0,0,0.05,35.95,0)" xlink:href="#aM"/><use transform="matrix(0.05,0,0,0.05,45.95,0)" xlink:href="#aA"/><use transform="matrix(0.05,0,0,0.05,49.900000000000006,0)" xlink:href="#aF"/><use transform="matrix(0.05,0,0,0.05,58.900000000000006,0)" xlink:href="#ax"/><use transform="matrix(0.05,0,0,0.05,68.9,0)" xlink:href="#aJ"/><use transform="matrix(0.05,0,0,0.05,74.85000000000001,0)" xlink:href="#aD"/><use transform="matrix(0.05,0,0,0.05,83.85000000000001,0)" xlink:href="#av"/><use transform="matrix(0.05,0,0,0.05,93.85000000000001,0)" xlink:href="#aH"/><use transform="matrix(0.05,0,0,0.05,103.85000000000001,0)" xlink:href="#aH"/><use transform="matrix(0.05,0,0,0.05,113.85000000000001,0)" xlink:href="#aK"/></g><path fill="#333" d="M206 0h-36l-40-164L89 0H53L-1-190h32L70-26l43-164h34l41 164 42-164h31" id="aQ"/><path fill="#333" d="M106-169C34-169 62-67 57 0H25v-261h32l-1 103c12-21 28-36 61-36 89 0 53 116 60 194h-32v-121c2-32-8-49-39-48" id="aR"/><g id="s"><use transform="matrix(0.05,0,0,0.05,0,0)" xlink:href="#aQ"/><use transform="matrix(0.05,0,0,0.05,12.950000000000001,0)" xlink:href="#aH"/><use transform="matrix(0.05,0,0,0.05,22.950000000000003,0)" xlink:href="#aO"/><use transform="matrix(0.05,0,0,0.05,31.950000000000003,0)" xlink:href="#aR"/><use transform="matrix(0.05,0,0,0.05,41.95,0)" xlink:href="#at"/><use transform="matrix(0.05,0,0,0.05,46.95,0)" xlink:href="#aQ"/><use transform="matrix(0.05,0,0,0.05,59.900000000000006,0)" xlink:href="#au"/><use transform="matrix(0.05,0,0,0.05,69.9,0)" xlink:href="#au"/><use transform="matrix(0.05,0,0,0.05,79.9,0)" xlink:href="#aJ"/><use transform="matrix(0.05,0,0,0.05,85.85000000000001,0)" xlink:href="#aB"/></g><g id="t"><use transform="matrix(0.05,0,0,0.05,0,0)" xlink:href="#aO"/><use transform="matrix(0.05,0,0,0.05,9,0)" xlink:href="#aJ"/><use transform="matrix(0.05,0,0,0.05,14.949999999999998,0)" xlink:href="#ax"/><use transform="matrix(0.05,0,0,0.05,24.95,0)" xlink:href="#aB"/><use transform="matrix(0.05,0,0,0.05,34.95,0)" xlink:href="#aA"/><use transform="matrix(0.05,0,0,0.05,38.900000000000006,0)" xlink:href="#at"/><use transform="matrix(0.05,0,0,0.05,43.900000000000006,0)" xlink:href="#aO"/><use transform="matrix(0.05,0,0,0.05,52.900000000000006,0)" xlink:href="#aH"/><use transform="matrix(0.05,0,0,0.05,62.900000000000006,0)" xlink:href="#aJ"/><use transform="matrix(0.05,0,0,0.05,68.85000000000001,0)" xlink:href="#aB"/></g><g id="u"><use transform="matrix(0.05,0,0,0.05,0,0)" xlink:href="#av"/><use transform="matrix(0.05,0,0,0.05,10,0)" xlink:href="#aM"/><use transform="matrix(0.05,0,0,0.05,20,0)" xlink:href="#aK"/><use transform="matrix(0.05,0,0,0.05,34.95,0)" xlink:href="#aK"/><use transform="matrix(0.05,0,0,0.05,49.900000000000006,0)" xlink:href="#ax"/><use transform="matrix(0.05,0,0,0.05,59.900000000000006,0)" xlink:href="#aJ"/></g><g id="v"><use transform="matrix(0.05,0,0,0.05,0,0)" xlink:href="#ax"/><use transform="matrix(0.05,0,0,0.05,10,0)" xlink:href="#aK"/><use transform="matrix(0.05,0,0,0.05,24.950000000000003,0)" xlink:href="#aH"/><use transform="matrix(0.05,0,0,0.05,34.95,0)" xlink:href="#aA"/><use transform="matrix(0.05,0,0,0.05,38.900000000000006,0)" xlink:href="#az"/></g><g id="w"><use transform="matrix(0.05,0,0,0.05,0,0)" xlink:href="#aH"/><use transform="matrix(0.05,0,0,0.05,10,0)" xlink:href="#aB"/><use transform="matrix(0.05,0,0,0.05,20,0)" xlink:href="#aJ"/><use transform="matrix(0.05,0,0,0.05,25.950000000000003,0)" xlink:href="#ax"/><use transform="matrix(0.05,0,0,0.05,35.95,0)" xlink:href="#aD"/></g><g id="x"><use transform="matrix(0.05,0,0,0.05,0,0)" xlink:href="#at"/><use transform="matrix(0.05,0,0,0.05,5,0)" xlink:href="#aH"/><use transform="matrix(0.05,0,0,0.05,15,0)" xlink:href="#aH"/><use transform="matrix(0.05,0,0,0.05,25,0)" xlink:href="#az"/></g><path fill="#333" d="M16-82v-28h88v28H16" id="aS"/><path fill="#333" d="M87 75C49 33 22-17 22-94c0-76 28-126 65-167h31c-38 41-64 92-64 168S80 34 118 75H87" id="aT"/><path fill="#333" d="M33-261c38 41 65 92 65 168S71 34 33 75H2C39 34 66-17 66-93S39-220 2-261h31" id="aU"/><g id="y"><use transform="matrix(0.05,0,0,0.05,0,0)" xlink:href="#aS"/><use transform="matrix(0.05,0,0,0.05,5.95,0)" xlink:href="#az"/><use transform="matrix(0.05,0,0,0.05,9.9,0)" xlink:href="#au"/><use transform="matrix(0.05,0,0,0.05,19.9,0)" xlink:href="#aE"/><use transform="matrix(0.05,0,0,0.05,29.899999999999995,0)" xlink:href="#aA"/><use transform="matrix(0.05,0,0,0.05,33.85,0)" xlink:href="#av"/><use transform="matrix(0.05,0,0,0.05,43.85,0)" xlink:href="#aT"/><use transform="matrix(0.05,0,0,0.05,49.800000000000004,0)" xlink:href="#aU"/></g><path fill="#333" d="M108 0H70L1-190h34L89-25l56-165h34" id="aV"/><g id="z"><use transform="matrix(0.05,0,0,0.05,0,0)" xlink:href="#aS"/><use transform="matrix(0.05,0,0,0.05,5.95,0)" xlink:href="#aV"/><use transform="matrix(0.05,0,0,0.05,14.949999999999998,0)" xlink:href="#ax"/><use transform="matrix(0.05,0,0,0.05,24.95,0)" xlink:href="#aJ"/><use transform="matrix(0.05,0,0,0.05,30.899999999999995,0)" xlink:href="#aQ"/><use transform="matrix(0.05,0,0,0.05,43.85,0)" xlink:href="#aA"/><use transform="matrix(0.05,0,0,0.05,47.800000000000004,0)" xlink:href="#aL"/><use transform="matrix(0.05,0,0,0.05,51.75,0)" xlink:href="#aB"/><use transform="matrix(0.05,0,0,0.05,61.75,0)" xlink:href="#ax"/><use transform="matrix(0.05,0,0,0.05,71.75,0)" xlink:href="#aJ"/><use transform="matrix(0.05,0,0,0.05,77.7,0)" xlink:href="#ax"/><use transform="matrix(0.05,0,0,0.05,87.7,0)" xlink:href="#av"/><use transform="matrix(0.05,0,0,0.05,97.7,0)" xlink:href="#aT"/><use transform="matrix(0.05,0,0,0.05,103.65,0)" xlink:href="#aU"/></g><path fill="#333" d="M118-107v75H92v-75H18v-26h74v-75h26v75h74v26h-74" id="aW"/><g id="A"><use transform="matrix(0.05,0,0,0.05,0,0)" xlink:href="#aW"/><use transform="matrix(0.05,0,0,0.05,10.5,0)" xlink:href="#aE"/><use transform="matrix(0.05,0,0,0.05,20.5,0)" xlink:href="#au"/><use transform="matrix(0.05,0,0,0.05,30.5,0)" xlink:href="#ax"/><use transform="matrix(0.05,0,0,0.05,40.5,0)" xlink:href="#aB"/><use transform="matrix(0.05,0,0,0.05,50.5,0)" xlink:href="#aF"/><use transform="matrix(0.05,0,0,0.05,59.5,0)" xlink:href="#ax"/><use transform="matrix(0.05,0,0,0.05,69.5,0)" xlink:href="#aM"/><use transform="matrix(0.05,0,0,0.05,79.5,0)" xlink:href="#aJ"/><use transform="matrix(0.05,0,0,0.05,85.45,0)" xlink:href="#aA"/><use transform="matrix(0.05,0,0,0.05,89.4,0)" xlink:href="#av"/><use transform="matrix(0.05,0,0,0.05,99.4,0)" xlink:href="#aE"/><use transform="matrix(0.05,0,0,0.05,109.4,0)" xlink:href="#aT"/><use transform="matrix(0.05,0,0,0.05,115.35000000000001,0)" xlink:href="#aU"/></g><path fill="#333" d="M160-131c35 5 61 23 61 61C221 17 115-2 30 0v-248c76 3 177-17 177 60 0 33-19 50-47 57zm-97-11c50-1 110 9 110-42 0-47-63-36-110-37v79zm0 115c55-2 124 14 124-45 0-56-70-42-124-44v89" id="aX"/><g id="B"><use transform="matrix(0.05,0,0,0.05,0,0)" xlink:href="#aX"/><use transform="matrix(0.05,0,0,0.05,12,0)" xlink:href="#ax"/><use transform="matrix(0.05,0,0,0.05,22,0)" xlink:href="#at"/><use transform="matrix(0.05,0,0,0.05,27,0)" xlink:href="#aH"/><use transform="matrix(0.05,0,0,0.05,37,0)" xlink:href="#az"/><use transform="matrix(0.05,0,0,0.05,40.95,0)" xlink:href="#aA"/><use transform="matrix(0.05,0,0,0.05,44.900000000000006,0)" xlink:href="#av"/><use transform="matrix(0.05,0,0,0.05,54.900000000000006,0)" xlink:href="#aE"/></g><g id="C"><use transform="matrix(0.05,0,0,0.05,0,0)" xlink:href="#aP"/><use transform="matrix(0.05,0,0,0.05,10,0)" xlink:href="#ax"/><use transform="matrix(0.05,0,0,0.05,20,0)" xlink:href="#aB"/><use transform="matrix(0.05,0,0,0.05,30,0)" xlink:href="#aJ"/><use transform="matrix(0.05,0,0,0.05,35.95,0)" xlink:href="#aH"/><use transform="matrix(0.05,0,0,0.05,45.95,0)" xlink:href="#aE"/></g><g id="D"><use transform="matrix(0.05,0,0,0.05,0,0)" xlink:href="#aW"/><use transform="matrix(0.05,0,0,0.05,10.5,0)" xlink:href="#aH"/><use transform="matrix(0.05,0,0,0.05,20.5,0)" xlink:href="#av"/><use transform="matrix(0.05,0,0,0.05,30.5,0)" xlink:href="#av"/><use transform="matrix(0.05,0,0,0.05,40.5,0)" xlink:href="#aM"/><use transform="matrix(0.05,0,0,0.05,50.5,0)" xlink:href="#az"/><use transform="matrix(0.05,0,0,0.05,54.45,0)" xlink:href="#ax"/><use transform="matrix(0.05,0,0,0.05,64.45,0)" xlink:href="#aJ"/><use transform="matrix(0.05,0,0,0.05,70.4,0)" xlink:href="#ax"/><use transform="matrix(0.05,0,0,0.05,80.4,0)" xlink:href="#av"/><use transform="matrix(0.05,0,0,0.05,90.4,0)" xlink:href="#aT"/><use transform="matrix(0.05,0,0,0.05,96.35000000000001,0)" xlink:href="#aU"/></g><path fill="#333" d="M233-177c-1 41-23 64-60 70L243 0h-38l-65-103H63V0H30v-248c88 3 205-21 203 71zM63-129c60-2 137 13 137-47 0-61-80-42-137-45v92" id="aY"/><g id="E"><use transform="matrix(0.05,0,0,0.05,0,0)" xlink:href="#aY"/><use transform="matrix(0.05,0,0,0.05,12.950000000000001,0)" xlink:href="#ax"/><use transform="matrix(0.05,0,0,0.05,22.950000000000003,0)" xlink:href="#aD"/><use transform="matrix(0.05,0,0,0.05,31.950000000000003,0)" xlink:href="#ax"/><use transform="matrix(0.05,0,0,0.05,41.95,0)" xlink:href="#aJ"/><use transform="matrix(0.05,0,0,0.05,47.900000000000006,0)" xlink:href="#aV"/><use transform="matrix(0.05,0,0,0.05,56.900000000000006,0)" xlink:href="#ax"/><use transform="matrix(0.05,0,0,0.05,66.9,0)" xlink:href="#aJ"/><use transform="matrix(0.05,0,0,0.05,72.85000000000001,0)" xlink:href="#aA"/><use transform="matrix(0.05,0,0,0.05,76.80000000000001,0)" xlink:href="#av"/><use transform="matrix(0.05,0,0,0.05,86.80000000000001,0)" xlink:href="#aE"/></g><g id="F"><use transform="matrix(0.05,0,0,0.05,0,0)" xlink:href="#aB"/><use transform="matrix(0.05,0,0,0.05,10,0)" xlink:href="#aH"/><use transform="matrix(0.05,0,0,0.05,20,0)" xlink:href="#at"/><use transform="matrix(0.05,0,0,0.05,25,0)" xlink:href="#aM"/><use transform="matrix(0.05,0,0,0.05,35,0)" xlink:href="#aK"/></g><g id="G"><use transform="matrix(0.05,0,0,0.05,0,0)" xlink:href="#aJ"/><use transform="matrix(0.05,0,0,0.05,5.95,0)" xlink:href="#ax"/><use transform="matrix(0.05,0,0,0.05,15.949999999999998,0)" xlink:href="#aD"/><use transform="matrix(0.05,0,0,0.05,24.95,0)" xlink:href="#ax"/><use transform="matrix(0.05,0,0,0.05,34.95,0)" xlink:href="#aJ"/><use transform="matrix(0.05,0,0,0.05,40.900000000000006,0)" xlink:href="#aV"/><use transform="matrix(0.05,0,0,0.05,49.900000000000006,0)" xlink:href="#ax"/><use transform="matrix(0.05,0,0,0.05,59.900000000000006,0)" xlink:href="#aJ"/><use transform="matrix(0.05,0,0,0.05,65.85000000000001,0)" xlink:href="#aA"/><use transform="matrix(0.05,0,0,0.05,69.80000000000001,0)" xlink:href="#av"/><use transform="matrix(0.05,0,0,0.05,79.80000000000001,0)" xlink:href="#aE"/><use transform="matrix(0.05,0,0,0.05,89.80000000000001,0)" xlink:href="#aD"/><use transform="matrix(0.05,0,0,0.05,98.80000000000001,0)" xlink:href="#av"/><use transform="matrix(0.05,0,0,0.05,108.80000000000001,0)" xlink:href="#aM"/><use transform="matrix(0.05,0,0,0.05,118.80000000000001,0)" xlink:href="#aK"/><use transform="matrix(0.05,0,0,0.05,133.75,0)" xlink:href="#aK"/><use transform="matrix(0.05,0,0,0.05,148.7,0)" xlink:href="#ax"/><use transform="matrix(0.05,0,0,0.05,158.7,0)" xlink:href="#aJ"/></g><g id="H"><use transform="matrix(0.05,0,0,0.05,0,0)" xlink:href="#aX"/><use transform="matrix(0.05,0,0,0.05,12,0)" xlink:href="#ax"/><use transform="matrix(0.05,0,0,0.05,22,0)" xlink:href="#aV"/><use transform="matrix(0.05,0,0,0.05,31,0)" xlink:href="#ax"/><use transform="matrix(0.05,0,0,0.05,41,0)" xlink:href="#aD"/><use transform="matrix(0.05,0,0,0.05,50,0)" xlink:href="#at"/><use transform="matrix(0.05,0,0,0.05,55,0)" xlink:href="#aA"/><use transform="matrix(0.05,0,0,0.05,58.95,0)" xlink:href="#aE"/><use transform="matrix(0.05,0,0,0.05,68.95,0)" xlink:href="#aA"/><use transform="matrix(0.05,0,0,0.05,72.9,0)" xlink:href="#av"/><use transform="matrix(0.05,0,0,0.05,82.9,0)" xlink:href="#aE"/></g><g id="I"><use transform="matrix(0.05,0,0,0.05,0,0)" xlink:href="#aS"/><use transform="matrix(0.05,0,0,0.05,5.95,0)" xlink:href="#aB"/><use transform="matrix(0.05,0,0,0.05,15.949999999999998,0)" xlink:href="#au"/><use transform="matrix(0.05,0,0,0.05,25.950000000000003,0)" xlink:href="#aQ"/><use transform="matrix(0.05,0,0,0.05,38.9,0)" xlink:href="#av"/><use transform="matrix(0.05,0,0,0.05,48.9,0)" xlink:href="#az"/><use transform="matrix(0.05,0,0,0.05,52.85,0)" xlink:href="#au"/><use transform="matrix(0.05,0,0,0.05,62.85,0)" xlink:href="#aH"/><use transform="matrix(0.05,0,0,0.05,72.85,0)" xlink:href="#aB"/><use transform="matrix(0.05,0,0,0.05,82.85,0)" xlink:href="#ax"/><use transform="matrix(0.05,0,0,0.05,92.85,0)" xlink:href="#av"/><use transform="matrix(0.05,0,0,0.05,102.84999999999998,0)" xlink:href="#aT"/><use transform="matrix(0.05,0,0,0.05,108.80000000000001,0)" xlink:href="#aU"/></g><g id="J"><use transform="matrix(0.05,0,0,0.05,0,0)" xlink:href="#aY"/><use transform="matrix(0.05,0,0,0.05,12.950000000000001,0)" xlink:href="#aA"/><use transform="matrix(0.05,0,0,0.05,16.900000000000002,0)" xlink:href="#at"/></g><g id="K"><use transform="matrix(0.05,0,0,0.05,0,0)" xlink:href="#aH"/><use transform="matrix(0.05,0,0,0.05,10,0)" xlink:href="#aH"/><use transform="matrix(0.05,0,0,0.05,20,0)" xlink:href="#av"/><use transform="matrix(0.05,0,0,0.05,30,0)" xlink:href="#at"/><use transform="matrix(0.05,0,0,0.05,35,0)" xlink:href="#aH"/><use transform="matrix(0.05,0,0,0.05,45,0)" xlink:href="#az"/><use transform="matrix(0.05,0,0,0.05,48.95,0)" xlink:href="#aI"/><use transform="matrix(0.05,0,0,0.05,60.95,0)" xlink:href="#ax"/><use transform="matrix(0.05,0,0,0.05,70.95,0)" xlink:href="#aJ"/><use transform="matrix(0.05,0,0,0.05,76.9,0)" xlink:href="#aD"/><use transform="matrix(0.05,0,0,0.05,85.9,0)" xlink:href="#au"/><use transform="matrix(0.05,0,0,0.05,95.9,0)" xlink:href="#av"/><use transform="matrix(0.05,0,0,0.05,105.9,0)" xlink:href="#ax"/><use transform="matrix(0.05,0,0,0.05,115.9,0)" xlink:href="#av"/></g><g id="L"><use transform="matrix(0.05,0,0,0.05,0,0)" xlink:href="#aI"/><use transform="matrix(0.05,0,0,0.05,12,0)" xlink:href="#aJ"/><use transform="matrix(0.05,0,0,0.05,17.95,0)" xlink:href="#aA"/><use transform="matrix(0.05,0,0,0.05,21.9,0)" xlink:href="#aL"/><use transform="matrix(0.05,0,0,0.05,25.849999999999994,0)" xlink:href="#aD"/></g><g id="M"><use transform="matrix(0.05,0,0,0.05,0,0)" xlink:href="#aW"/><use transform="matrix(0.05,0,0,0.05,10.5,0)" xlink:href="#aV"/><use transform="matrix(0.05,0,0,0.05,19.5,0)" xlink:href="#ax"/><use transform="matrix(0.05,0,0,0.05,29.5,0)" xlink:href="#aJ"/><use transform="matrix(0.05,0,0,0.05,35.45,0)" xlink:href="#aQ"/><use transform="matrix(0.05,0,0,0.05,48.400000000000006,0)" xlink:href="#aA"/><use transform="matrix(0.05,0,0,0.05,52.35,0)" xlink:href="#aL"/><use transform="matrix(0.05,0,0,0.05,56.30000000000001,0)" xlink:href="#aB"/><use transform="matrix(0.05,0,0,0.05,66.30000000000001,0)" xlink:href="#ax"/><use transform="matrix(0.05,0,0,0.05,76.30000000000001,0)" xlink:href="#aJ"/><use transform="matrix(0.05,0,0,0.05,82.25000000000001,0)" xlink:href="#ax"/><use transform="matrix(0.05,0,0,0.05,92.25000000000001,0)" xlink:href="#av"/><use transform="matrix(0.05,0,0,0.05,102.25000000000001,0)" xlink:href="#aT"/><use transform="matrix(0.05,0,0,0.05,108.2,0)" xlink:href="#aU"/></g><path fill="#333" d="M209 0H11v-25l151-195H24v-28h176v25L50-27h159V0" id="aZ"/><g id="N"><use transform="matrix(0.05,0,0,0.05,0,0)" xlink:href="#aZ"/><use transform="matrix(0.05,0,0,0.05,10.950000000000001,0)" xlink:href="#au"/><use transform="matrix(0.05,0,0,0.05,20.950000000000003,0)" xlink:href="#ax"/><use transform="matrix(0.05,0,0,0.05,30.950000000000003,0)" xlink:href="#aF"/><use transform="matrix(0.05,0,0,0.05,39.95,0)" xlink:href="#au"/><use transform="matrix(0.05,0,0,0.05,49.95,0)" xlink:href="#aG"/><use transform="matrix(0.05,0,0,0.05,59.95,0)" xlink:href="#aB"/><use transform="matrix(0.05,0,0,0.05,69.95,0)" xlink:href="#aJ"/><use transform="matrix(0.05,0,0,0.05,75.9,0)" xlink:href="#aH"/><use transform="matrix(0.05,0,0,0.05,85.9,0)" xlink:href="#aO"/><use transform="matrix(0.05,0,0,0.05,94.9,0)" xlink:href="#aR"/><use transform="matrix(0.05,0,0,0.05,104.9,0)" xlink:href="#at"/></g><g id="O"><use transform="matrix(0.05,0,0,0.05,0,0)" xlink:href="#aP"/><use transform="matrix(0.05,0,0,0.05,10,0)" xlink:href="#ax"/><use transform="matrix(0.05,0,0,0.05,20,0)" xlink:href="#aD"/><use transform="matrix(0.05,0,0,0.05,29,0)" xlink:href="#at"/><use transform="matrix(0.05,0,0,0.05,34,0)" xlink:href="#ax"/><use transform="matrix(0.05,0,0,0.05,44,0)" xlink:href="#aK"/><use transform="matrix(0.05,0,0,0.05,58.95,0)" xlink:href="#aK"/><use transform="matrix(0.05,0,0,0.05,73.9,0)" xlink:href="#aA"/><use transform="matrix(0.05,0,0,0.05,77.85000000000001,0)" xlink:href="#av"/><use transform="matrix(0.05,0,0,0.05,87.85000000000001,0)" xlink:href="#aE"/></g><g id="P"><use transform="matrix(0.05,0,0,0.05,0,0)" xlink:href="#aV"/><use transform="matrix(0.05,0,0,0.05,9,0)" xlink:href="#ax"/><use transform="matrix(0.05,0,0,0.05,19,0)" xlink:href="#aJ"/><use transform="matrix(0.05,0,0,0.05,24.95,0)" xlink:href="#at"/><use transform="matrix(0.05,0,0,0.05,29.950000000000003,0)" xlink:href="#aJ"/><use transform="matrix(0.05,0,0,0.05,35.9,0)" xlink:href="#ax"/><use transform="matrix(0.05,0,0,0.05,45.9,0)" xlink:href="#aF"/><use transform="matrix(0.05,0,0,0.05,54.900000000000006,0)" xlink:href="#at"/><use transform="matrix(0.05,0,0,0.05,59.900000000000006,0)" xlink:href="#aA"/><use transform="matrix(0.05,0,0,0.05,63.85,0)" xlink:href="#aL"/><use transform="matrix(0.05,0,0,0.05,67.8,0)" xlink:href="#aB"/></g><g id="Q"><use transform="matrix(0.05,0,0,0.05,0,0)" xlink:href="#aV"/><use transform="matrix(0.05,0,0,0.05,9,0)" xlink:href="#ax"/><use transform="matrix(0.05,0,0,0.05,19,0)" xlink:href="#aJ"/><use transform="matrix(0.05,0,0,0.05,24.95,0)" xlink:href="#at"/><use transform="matrix(0.05,0,0,0.05,29.950000000000003,0)" xlink:href="#aJ"/><use transform="matrix(0.05,0,0,0.05,35.9,0)" xlink:href="#ax"/><use transform="matrix(0.05,0,0,0.05,45.9,0)" xlink:href="#aF"/><use transform="matrix(0.05,0,0,0.05,54.900000000000006,0)" xlink:href="#aG"/><use transform="matrix(0.05,0,0,0.05,64.9,0)" xlink:href="#az"/><use transform="matrix(0.05,0,0,0.05,68.85000000000001,0)" xlink:href="#aH"/><use transform="matrix(0.05,0,0,0.05,78.85000000000001,0)" xlink:href="#aH"/><use transform="matrix(0.05,0,0,0.05,88.85000000000001,0)" xlink:href="#at"/><use transform="matrix(0.05,0,0,0.05,93.85000000000001,0)" xlink:href="#aD"/></g><g id="R"><use transform="matrix(0.05,0,0,0.05,0,0)" xlink:href="#aB"/><use transform="matrix(0.05,0,0,0.05,10,0)" xlink:href="#aH"/><use transform="matrix(0.05,0,0,0.05,20,0)" xlink:href="#at"/><use transform="matrix(0.05,0,0,0.05,25,0)" xlink:href="#aM"/><use transform="matrix(0.05,0,0,0.05,35,0)" xlink:href="#aK"/></g><g id="S"><use transform="matrix(0.05,0,0,0.05,0,0)" xlink:href="#aS"/><use transform="matrix(0.05,0,0,0.05,5.95,0)" xlink:href="#aV"/><use transform="matrix(0.05,0,0,0.05,14.949999999999998,0)" xlink:href="#ax"/><use transform="matrix(0.05,0,0,0.05,24.95,0)" xlink:href="#aJ"/><use transform="matrix(0.05,0,0,0.05,30.899999999999995,0)" xlink:href="#ay"/><use transform="matrix(0.05,0,0,0.05,35.9,0)" xlink:href="#aA"/><use transform="matrix(0.05,0,0,0.05,39.85,0)" xlink:href="#aL"/><use transform="matrix(0.05,0,0,0.05,43.800000000000004,0)" xlink:href="#av"/><use transform="matrix(0.05,0,0,0.05,53.800000000000004,0)" xlink:href="#ax"/><use transform="matrix(0.05,0,0,0.05,63.800000000000004,0)" xlink:href="#av"/><use transform="matrix(0.05,0,0,0.05,73.80000000000001,0)" xlink:href="#aT"/><use transform="matrix(0.05,0,0,0.05,79.75000000000001,0)" xlink:href="#aU"/></g><path fill="#333" d="M9 0v-24l116-142H16v-24h144v24L44-24h123V0H9" id="ba"/><g id="T"><use transform="matrix(0.05,0,0,0.05,0,0)" xlink:href="#aY"/><use transform="matrix(0.05,0,0,0.05,12.950000000000001,0)" xlink:href="#aA"/><use transform="matrix(0.05,0,0,0.05,16.900000000000002,0)" xlink:href="#at"/><use transform="matrix(0.05,0,0,0.05,21.900000000000002,0)" xlink:href="#at"/><use transform="matrix(0.05,0,0,0.05,26.900000000000002,0)" xlink:href="#ax"/><use transform="matrix(0.05,0,0,0.05,36.900000000000006,0)" xlink:href="#av"/><use transform="matrix(0.05,0,0,0.05,46.900000000000006,0)" xlink:href="#au"/><use transform="matrix(0.05,0,0,0.05,56.900000000000006,0)" xlink:href="#aV"/><use transform="matrix(0.05,0,0,0.05,65.9,0)" xlink:href="#ax"/><use transform="matrix(0.05,0,0,0.05,75.9,0)" xlink:href="#aJ"/><use transform="matrix(0.05,0,0,0.05,81.85000000000001,0)" xlink:href="#ba"/><use transform="matrix(0.05,0,0,0.05,90.85000000000001,0)" xlink:href="#aA"/><use transform="matrix(0.05,0,0,0.05,94.80000000000001,0)" xlink:href="#aO"/><use transform="matrix(0.05,0,0,0.05,103.80000000000001,0)" xlink:href="#aR"/><use transform="matrix(0.05,0,0,0.05,113.80000000000001,0)" xlink:href="#at"/></g><g id="U"><use transform="matrix(0.05,0,0,0.05,0,0)" xlink:href="#aR"/><use transform="matrix(0.05,0,0,0.05,10,0)" xlink:href="#au"/><use transform="matrix(0.05,0,0,0.05,20,0)" xlink:href="#ax"/><use transform="matrix(0.05,0,0,0.05,30,0)" xlink:href="#aV"/><use transform="matrix(0.05,0,0,0.05,39,0)" xlink:href="#ax"/><use transform="matrix(0.05,0,0,0.05,49,0)" xlink:href="#ax"/><use transform="matrix(0.05,0,0,0.05,59,0)" xlink:href="#az"/><use transform="matrix(0.05,0,0,0.05,62.95,0)" xlink:href="#aR"/><use transform="matrix(0.05,0,0,0.05,72.95,0)" xlink:href="#ax"/><use transform="matrix(0.05,0,0,0.05,82.95,0)" xlink:href="#aA"/><use transform="matrix(0.05,0,0,0.05,86.9,0)" xlink:href="#aB"/><use transform="matrix(0.05,0,0,0.05,96.9,0)" xlink:href="#aY"/><use transform="matrix(0.05,0,0,0.05,109.85000000000001,0)" xlink:href="#aA"/><use transform="matrix(0.05,0,0,0.05,113.80000000000001,0)" xlink:href="#at"/><use transform="matrix(0.05,0,0,0.05,118.80000000000001,0)" xlink:href="#at"/><use transform="matrix(0.05,0,0,0.05,123.80000000000001,0)" xlink:href="#ax"/><use transform="matrix(0.05,0,0,0.05,133.8,0)" xlink:href="#av"/></g><g id="V"><use transform="matrix(0.05,0,0,0.05,0,0)" xlink:href="#at"/><use transform="matrix(0.05,0,0,0.05,5,0)" xlink:href="#aA"/><use transform="matrix(0.05,0,0,0.05,8.95,0)" xlink:href="#aL"/><use transform="matrix(0.05,0,0,0.05,12.899999999999999,0)" xlink:href="#aB"/></g><path fill="#333" d="M212-179c-10-28-35-45-73-45-59 0-87 40-87 99 0 60 29 101 89 101 43 0 62-24 78-52l27 14C228-24 195 4 139 4 59 4 22-46 18-125c-6-104 99-153 187-111 19 9 31 26 39 46" id="bb"/><g id="X"><use transform="matrix(0.05,0,0,0.05,0,0)" xlink:href="#av"/><use transform="matrix(0.05,0,0,0.05,10,0)" xlink:href="#aH"/><use transform="matrix(0.05,0,0,0.05,20,0)" xlink:href="#aH"/><use transform="matrix(0.05,0,0,0.05,30,0)" xlink:href="#aK"/><use transform="matrix(0.05,0,0,0.05,44.95,0)" xlink:href="#bb"/><use transform="matrix(0.05,0,0,0.05,57.900000000000006,0)" xlink:href="#aR"/><use transform="matrix(0.05,0,0,0.05,67.9,0)" xlink:href="#aH"/><use transform="matrix(0.05,0,0,0.05,77.9,0)" xlink:href="#aM"/><use transform="matrix(0.05,0,0,0.05,87.9,0)" xlink:href="#ay"/><use transform="matrix(0.05,0,0,0.05,92.55000000000001,0)" xlink:href="#ay"/><use transform="matrix(0.05,0,0,0.05,97.55000000000001,0)" xlink:href="#ax"/><use transform="matrix(0.05,0,0,0.05,107.55000000000001,0)" xlink:href="#aM"/><use transform="matrix(0.05,0,0,0.05,117.55000000000001,0)" xlink:href="#aJ"/></g><g id="Y"><use transform="matrix(0.05,0,0,0.05,0,0)" xlink:href="#aS"/><use transform="matrix(0.05,0,0,0.05,5.95,0)" xlink:href="#aB"/><use transform="matrix(0.05,0,0,0.05,15.949999999999998,0)" xlink:href="#au"/><use transform="matrix(0.05,0,0,0.05,25.950000000000003,0)" xlink:href="#aQ"/><use transform="matrix(0.05,0,0,0.05,38.9,0)" xlink:href="#av"/><use transform="matrix(0.05,0,0,0.05,48.9,0)" xlink:href="#az"/><use transform="matrix(0.05,0,0,0.05,52.85,0)" xlink:href="#au"/><use transform="matrix(0.05,0,0,0.05,62.85,0)" xlink:href="#aH"/><use transform="matrix(0.05,0,0,0.05,72.85,0)" xlink:href="#aB"/><use transform="matrix(0.05,0,0,0.05,82.85,0)" xlink:href="#aT"/><use transform="matrix(0.05,0,0,0.05,88.8,0)" xlink:href="#aU"/></g><g id="Z"><use transform="matrix(0.05,0,0,0.05,0,0)" xlink:href="#aW"/><use transform="matrix(0.05,0,0,0.05,10.5,0)" xlink:href="#aP"/><use transform="matrix(0.05,0,0,0.05,20.5,0)" xlink:href="#aA"/><use transform="matrix(0.05,0,0,0.05,24.45,0)" xlink:href="#aL"/><use transform="matrix(0.05,0,0,0.05,28.399999999999995,0)" xlink:href="#aQ"/><use transform="matrix(0.05,0,0,0.05,41.35,0)" xlink:href="#ax"/><use transform="matrix(0.05,0,0,0.05,51.35,0)" xlink:href="#aJ"/><use transform="matrix(0.05,0,0,0.05,57.300000000000004,0)" xlink:href="#aF"/><use transform="matrix(0.05,0,0,0.05,66.30000000000001,0)" xlink:href="#ax"/><use transform="matrix(0.05,0,0,0.05,76.30000000000001,0)" xlink:href="#av"/><use transform="matrix(0.05,0,0,0.05,86.30000000000001,0)" xlink:href="#aT"/><use transform="matrix(0.05,0,0,0.05,92.25000000000001,0)" xlink:href="#aU"/></g><path fill="#333" d="M205 0l-28-72H64L36 0H1l101-248h38L239 0h-34zm-38-99l-47-123c-12 45-31 82-46 123h93" id="bc"/><g id="aa"><use transform="matrix(0.05,0,0,0.05,0,0)" xlink:href="#bc"/><use transform="matrix(0.05,0,0,0.05,12,0)" xlink:href="#aM"/><use transform="matrix(0.05,0,0,0.05,22,0)" xlink:href="#at"/><use transform="matrix(0.05,0,0,0.05,27,0)" xlink:href="#au"/></g><path fill="#333" d="M240 0l2-218c-23 76-54 145-80 218h-23L58-218 59 0H30v-248h44l77 211c21-75 51-140 76-211h43V0h-30" id="bd"/><g id="ab"><use transform="matrix(0.05,0,0,0.05,0,0)" xlink:href="#bd"/><use transform="matrix(0.05,0,0,0.05,14.950000000000001,0)" xlink:href="#ax"/><use transform="matrix(0.05,0,0,0.05,24.950000000000003,0)" xlink:href="#aJ"/><use transform="matrix(0.05,0,0,0.05,30.900000000000002,0)" xlink:href="#aF"/></g><g id="ac"><use transform="matrix(0.05,0,0,0.05,0,0)" xlink:href="#aH"/><use transform="matrix(0.05,0,0,0.05,10,0)" xlink:href="#aA"/><use transform="matrix(0.05,0,0,0.05,13.949999999999998,0)" xlink:href="#aJ"/><use transform="matrix(0.05,0,0,0.05,19.9,0)" xlink:href="#aO"/><use transform="matrix(0.05,0,0,0.05,28.899999999999995,0)" xlink:href="#au"/></g><g id="ad"><use transform="matrix(0.05,0,0,0.05,0,0)" xlink:href="#aP"/><use transform="matrix(0.05,0,0,0.05,10,0)" xlink:href="#aH"/><use transform="matrix(0.05,0,0,0.05,20,0)" xlink:href="#aE"/><use transform="matrix(0.05,0,0,0.05,30,0)" xlink:href="#aH"/><use transform="matrix(0.05,0,0,0.05,40,0)" xlink:href="#aE"/><use transform="matrix(0.05,0,0,0.05,50,0)" xlink:href="#ax"/><use transform="matrix(0.05,0,0,0.05,60,0)" xlink:href="#aJ"/><use transform="matrix(0.05,0,0,0.05,65.95,0)" xlink:href="#aM"/><use transform="matrix(0.05,0,0,0.05,75.95,0)" xlink:href="#aA"/><use transform="matrix(0.05,0,0,0.05,79.9,0)" xlink:href="#aK"/><use transform="matrix(0.05,0,0,0.05,94.85000000000001,0)" xlink:href="#at"/><use transform="matrix(0.05,0,0,0.05,99.85000000000001,0)" xlink:href="#ax"/></g><g id="ae"><use transform="matrix(0.05,0,0,0.05,0,0)" xlink:href="#aH"/><use transform="matrix(0.05,0,0,0.05,10,0)" xlink:href="#aH"/><use transform="matrix(0.05,0,0,0.05,20,0)" xlink:href="#av"/><use transform="matrix(0.05,0,0,0.05,30,0)" xlink:href="#at"/><use transform="matrix(0.05,0,0,0.05,35,0)" xlink:href="#aH"/><use transform="matrix(0.05,0,0,0.05,45,0)" xlink:href="#az"/><use transform="matrix(0.05,0,0,0.05,48.95,0)" xlink:href="#aZ"/><use transform="matrix(0.05,0,0,0.05,59.900000000000006,0)" xlink:href="#aA"/><use transform="matrix(0.05,0,0,0.05,63.85,0)" xlink:href="#at"/><use transform="matrix(0.05,0,0,0.05,68.85000000000001,0)" xlink:href="#aG"/><use transform="matrix(0.05,0,0,0.05,78.85000000000001,0)" xlink:href="#az"/><use transform="matrix(0.05,0,0,0.05,82.80000000000001,0)" xlink:href="#aH"/><use transform="matrix(0.05,0,0,0.05,92.80000000000001,0)" xlink:href="#aH"/><use transform="matrix(0.05,0,0,0.05,102.80000000000001,0)" xlink:href="#at"/><use transform="matrix(0.05,0,0,0.05,107.80000000000001,0)" xlink:href="#aD"/><use transform="matrix(0.05,0,0,0.05,116.80000000000001,0)" xlink:href="#ax"/><use transform="matrix(0.05,0,0,0.05,126.80000000000001,0)" xlink:href="#av"/></g><g id="af"><use transform="matrix(0.05,0,0,0.05,0,0)" xlink:href="#av"/><use transform="matrix(0.05,0,0,0.05,10,0)" xlink:href="#aM"/><use transform="matrix(0.05,0,0,0.05,20,0)" xlink:href="#aK"/><use transform="matrix(0.05,0,0,0.05,34.95,0)" xlink:href="#aK"/><use transform="matrix(0.05,0,0,0.05,49.900000000000006,0)" xlink:href="#ax"/><use transform="matrix(0.05,0,0,0.05,59.900000000000006,0)" xlink:href="#aJ"/><use transform="matrix(0.05,0,0,0.05,65.85000000000001,0)" xlink:href="#aP"/><use transform="matrix(0.05,0,0,0.05,75.85000000000001,0)" xlink:href="#au"/><use transform="matrix(0.05,0,0,0.05,85.85000000000001,0)" xlink:href="#aJ"/><use transform="matrix(0.05,0,0,0.05,91.80000000000001,0)" xlink:href="#aB"/></g><path fill="#333" d="M127-220V0H93v-220H8v-28h204v28h-85" id="be"/><g id="ag"><use transform="matrix(0.05,0,0,0.05,0,0)" xlink:href="#aJ"/><use transform="matrix(0.05,0,0,0.05,5.95,0)" xlink:href="#au"/><use transform="matrix(0.05,0,0,0.05,15.949999999999998,0)" xlink:href="#aF"/><use transform="matrix(0.05,0,0,0.05,24.95,0)" xlink:href="#ax"/><use transform="matrix(0.05,0,0,0.05,34.95,0)" xlink:href="#av"/><use transform="matrix(0.05,0,0,0.05,44.95,0)" xlink:href="#be"/><use transform="matrix(0.05,0,0,0.05,53.900000000000006,0)" xlink:href="#au"/><use transform="matrix(0.05,0,0,0.05,63.900000000000006,0)" xlink:href="#ax"/><use transform="matrix(0.05,0,0,0.05,73.9,0)" xlink:href="#aE"/><use transform="matrix(0.05,0,0,0.05,83.9,0)" xlink:href="#ax"/><use transform="matrix(0.05,0,0,0.05,93.9,0)" xlink:href="#aD"/><use transform="matrix(0.05,0,0,0.05,102.9,0)" xlink:href="#at"/><use transform="matrix(0.05,0,0,0.05,107.9,0)" xlink:href="#aH"/><use transform="matrix(0.05,0,0,0.05,117.9,0)" xlink:href="#aH"/><use transform="matrix(0.05,0,0,0.05,127.9,0)" xlink:href="#av"/></g><g id="ah"><use transform="matrix(0.05,0,0,0.05,0,0)" xlink:href="#aW"/><use transform="matrix(0.05,0,0,0.05,10.5,0)" xlink:href="#az"/><use transform="matrix(0.05,0,0,0.05,14.449999999999998,0)" xlink:href="#aH"/><use transform="matrix(0.05,0,0,0.05,24.45,0)" xlink:href="#at"/><use transform="matrix(0.05,0,0,0.05,29.450000000000003,0)" xlink:href="#ax"/><use transform="matrix(0.05,0,0,0.05,39.45,0)" xlink:href="#av"/><use transform="matrix(0.05,0,0,0.05,49.45,0)" xlink:href="#bb"/><use transform="matrix(0.05,0,0,0.05,62.400000000000006,0)" xlink:href="#aR"/><use transform="matrix(0.05,0,0,0.05,72.4,0)" xlink:href="#ax"/><use transform="matrix(0.05,0,0,0.05,82.4,0)" xlink:href="#aO"/><use transform="matrix(0.05,0,0,0.05,91.4,0)" xlink:href="#aF"/><use transform="matrix(0.05,0,0,0.05,100.4,0)" xlink:href="#ax"/><use transform="matrix(0.05,0,0,0.05,110.4,0)" xlink:href="#av"/><use transform="matrix(0.05,0,0,0.05,120.4,0)" xlink:href="#aT"/><use transform="matrix(0.05,0,0,0.05,126.35000000000001,0)" xlink:href="#aU"/></g><g id="ai"><use transform="matrix(0.05,0,0,0.05,0,0)" xlink:href="#aw"/><use transform="matrix(0.05,0,0,0.05,12.950000000000001,0)" xlink:href="#ax"/><use transform="matrix(0.05,0,0,0.05,22.950000000000003,0)" xlink:href="#az"/><use transform="matrix(0.05,0,0,0.05,26.900000000000002,0)" xlink:href="#aG"/><use transform="matrix(0.05,0,0,0.05,36.900000000000006,0)" xlink:href="#aB"/><use transform="matrix(0.05,0,0,0.05,46.900000000000006,0)" xlink:href="#ax"/><use transform="matrix(0.05,0,0,0.05,56.900000000000006,0)" xlink:href="#aD"/><use transform="matrix(0.05,0,0,0.05,65.9,0)" xlink:href="#aF"/></g><g id="aj"><use transform="matrix(0.05,0,0,0.05,0,0)" xlink:href="#au"/><use transform="matrix(0.05,0,0,0.05,10,0)" xlink:href="#aG"/><use transform="matrix(0.05,0,0,0.05,20,0)" xlink:href="#ax"/><use transform="matrix(0.05,0,0,0.05,30,0)" xlink:href="#av"/><use transform="matrix(0.05,0,0,0.05,40,0)" xlink:href="#aA"/><use transform="matrix(0.05,0,0,0.05,43.95,0)" xlink:href="#av"/><use transform="matrix(0.05,0,0,0.05,53.95,0)" xlink:href="#aE"/><use transform="matrix(0.05,0,0,0.05,63.95,0)" xlink:href="#aD"/><use transform="matrix(0.05,0,0,0.05,72.95,0)" xlink:href="#aM"/><use transform="matrix(0.05,0,0,0.05,82.95,0)" xlink:href="#aJ"/><use transform="matrix(0.05,0,0,0.05,88.9,0)" xlink:href="#ax"/><use transform="matrix(0.05,0,0,0.05,98.9,0)" xlink:href="#av"/></g><g id="ak"><use transform="matrix(0.05,0,0,0.05,0,0)" xlink:href="#aW"/><use transform="matrix(0.05,0,0,0.05,10.5,0)" xlink:href="#aJ"/><use transform="matrix(0.05,0,0,0.05,16.45,0)" xlink:href="#aH"/><use transform="matrix(0.05,0,0,0.05,26.450000000000003,0)" xlink:href="#aH"/><use transform="matrix(0.05,0,0,0.05,36.45,0)" xlink:href="#aB"/><use transform="matrix(0.05,0,0,0.05,46.45,0)" xlink:href="#aG"/><use transform="matrix(0.05,0,0,0.05,56.45,0)" xlink:href="#az"/><use transform="matrix(0.05,0,0,0.05,60.400000000000006,0)" xlink:href="#ax"/><use transform="matrix(0.05,0,0,0.05,70.4,0)" xlink:href="#aE"/><use transform="matrix(0.05,0,0,0.05,80.4,0)" xlink:href="#ax"/><use transform="matrix(0.05,0,0,0.05,90.4,0)" xlink:href="#av"/><use transform="matrix(0.05,0,0,0.05,100.4,0)" xlink:href="#aT"/><use transform="matrix(0.05,0,0,0.05,106.35000000000001,0)" xlink:href="#aU"/></g><g id="al"><use transform="matrix(0.05,0,0,0.05,0,0)" xlink:href="#aY"/><use transform="matrix(0.05,0,0,0.05,12.950000000000001,0)" xlink:href="#ax"/><use transform="matrix(0.05,0,0,0.05,22.950000000000003,0)" xlink:href="#aV"/><use transform="matrix(0.05,0,0,0.05,31.950000000000003,0)" xlink:href="#aA"/><use transform="matrix(0.05,0,0,0.05,35.900000000000006,0)" xlink:href="#ax"/><use transform="matrix(0.05,0,0,0.05,45.900000000000006,0)" xlink:href="#aQ"/></g><path fill="#333" d="M185-189c-5-48-123-54-124 2 14 75 158 14 163 119 3 78-121 87-175 55-17-10-28-26-33-46l33-7c5 56 141 63 141-1 0-78-155-14-162-118-5-82 145-84 179-34 5 7 8 16 11 25" id="bf"/><g id="am"><use transform="matrix(0.05,0,0,0.05,0,0)" xlink:href="#aH"/><use transform="matrix(0.05,0,0,0.05,10,0)" xlink:href="#aH"/><use transform="matrix(0.05,0,0,0.05,20,0)" xlink:href="#av"/><use transform="matrix(0.05,0,0,0.05,30,0)" xlink:href="#at"/><use transform="matrix(0.05,0,0,0.05,35,0)" xlink:href="#aH"/><use transform="matrix(0.05,0,0,0.05,45,0)" xlink:href="#az"/><use transform="matrix(0.05,0,0,0.05,48.95,0)" xlink:href="#bf"/><use transform="matrix(0.05,0,0,0.05,60.95,0)" xlink:href="#at"/><use transform="matrix(0.05,0,0,0.05,65.95,0)" xlink:href="#ax"/><use transform="matrix(0.05,0,0,0.05,75.95,0)" xlink:href="#aJ"/><use transform="matrix(0.05,0,0,0.05,81.9,0)" xlink:href="#aJ"/><use transform="matrix(0.05,0,0,0.05,87.85000000000001,0)" xlink:href="#ax"/><use transform="matrix(0.05,0,0,0.05,97.85000000000001,0)" xlink:href="#av"/></g><g id="an"><use transform="matrix(0.05,0,0,0.05,0,0)" xlink:href="#aH"/><use transform="matrix(0.05,0,0,0.05,10,0)" xlink:href="#aJ"/><use transform="matrix(0.05,0,0,0.05,15.949999999999998,0)" xlink:href="#aE"/><use transform="matrix(0.05,0,0,0.05,25.950000000000003,0)" xlink:href="#aM"/><use transform="matrix(0.05,0,0,0.05,35.95,0)" xlink:href="#aK"/><use transform="matrix(0.05,0,0,0.05,50.900000000000006,0)" xlink:href="#ax"/><use transform="matrix(0.05,0,0,0.05,60.900000000000006,0)" xlink:href="#av"/><use transform="matrix(0.05,0,0,0.05,70.9,0)" xlink:href="#at"/><use transform="matrix(0.05,0,0,0.05,75.9,0)" xlink:href="#ax"/><use transform="matrix(0.05,0,0,0.05,85.9,0)" xlink:href="#av"/></g><g id="ao"><use transform="matrix(0.05,0,0,0.05,0,0)" xlink:href="#aW"/><use transform="matrix(0.05,0,0,0.05,10.5,0)" xlink:href="#aH"/><use transform="matrix(0.05,0,0,0.05,20.5,0)" xlink:href="#aH"/><use transform="matrix(0.05,0,0,0.05,30.5,0)" xlink:href="#av"/><use transform="matrix(0.05,0,0,0.05,40.5,0)" xlink:href="#aG"/><use transform="matrix(0.05,0,0,0.05,50.5,0)" xlink:href="#aH"/><use transform="matrix(0.05,0,0,0.05,60.5,0)" xlink:href="#aD"/><use transform="matrix(0.05,0,0,0.05,69.5,0)" xlink:href="#aD"/><use transform="matrix(0.05,0,0,0.05,78.5,0)" xlink:href="#ax"/><use transform="matrix(0.05,0,0,0.05,88.5,0)" xlink:href="#av"/></g></defs></g></svg>